<svg xmlns="http://www.w3.org/2000/svg" viewBox="0 0 95 75"><path class="st0" d="M94.9 8.7C94.5 6.6 93.6 4.6 92 3c-2-2-4.4-3-7.1-3H10.6C7.3 0 4.8 1.2 3 3.5c-1.1 1.4-2.1 3-2.5 4.8C0.4 8.6 0 9 0 9.4v55.5C0 67.6 1.2 70 3.2 72c2 2 4.6 3 7.4 3h74.3c2.8 0 5.2-1 7.1-3 2-2 3-4.4 3-7.2V9.4C95 9.1 94.9 8.9 94.9 8.7zM10.6 4h74.3c1.7 0 3.1 0.7 4.3 1.9 1.2 1.2 1.8 2.6 1.8 4.3 0 2.3-0.7 4.4-2.1 6.5 -1.5 2.2-3.4 4.1-5.6 5.7 -12.7 8.8-20.5 14.3-23.6 16.4 -0.3 0.2-1.1 0.8-2.2 1.6 -1.1 0.8-2 1.4-2.7 1.9 -0.7 0.5-1.5 1-2.5 1.6 -0.9 0.5-1.8 0.7-2.5 1C49 45.1 48.3 45 47.8 45h-0.1c-0.6 0-1.2 0.1-1.9-0.2 -0.8-0.3-1.6-0.6-2.5-1.1 -1-0.6-1.8-1.1-2.5-1.5 -0.7-0.5-1.6-1.1-2.7-1.9 -1.1-0.8-1.8-1.3-2.2-1.5 -3.1-2.2-7.5-5.2-13.2-9.2 -5.7-4-9.2-6.4-10.3-7.2 0 0 0 0 0 0 -1.9-1.3-3.7-3.1-5.4-5.4 -1.6-2.1-2.4-4-2.4-5.7 0-2.2 0.5-4 1.7-5.4C7.1 4.7 8.6 4 10.6 4zM89.2 69.2C88 70.4 86.6 71 84.9 71H10.6c-1.7 0-3.3-0.6-4.5-1.8 -1.2-1.2-2-2.6-2-4.3V20.5c2 2.2 3.8 3.9 5.8 5.3 1.2 0.8 4.7 3.2 10.5 7.2 5.8 4 10.2 7.1 13.3 9.2 0.3 0.2 1.1 0.7 2.2 1.5 1.1 0.8 2.1 1.5 2.8 2 0.8 0.5 1.7 1.1 2.7 1.7 1.1 0.7 2.3 1 3.3 1.3 1.1 0.4 2.2 0.4 3.2 0.4h0.1c1 0 2.1 0 3.2-0.4 1-0.3 2.1-0.8 3.3-1.4 1.1-0.6 2-1.1 2.7-1.7 0.7-0.5 1.7-1.1 2.8-1.9 1.1-0.8 1.8-1.3 2.1-1.5 3.1-2.2 11-7.6 23.7-16.4 2.1-1.5 3.5-3.2 5.5-5.1v44.3C91 66.5 90.4 68 89.2 69.2z"/></svg>