<svg xmlns="http://www.w3.org/2000/svg" viewBox="0 0 75.7 75.7"><path d="M55.5 75.7c-1 0-2.1-0.1-3.1-0.2 -1-0.1-2.1-0.4-3.3-0.7 -1.1-0.3-1.9-0.6-2.5-0.8 -0.5-0.2-1.4-0.5-2.8-1 -1.2-0.5-2-0.7-2.3-0.8 -3.4-1.2-6.6-2.7-9.3-4.4 -4.3-2.7-8.9-6.4-13.5-11 -4.6-4.6-8.3-9.1-11-13.5 -1.7-2.7-3.1-5.8-4.4-9.2 -0.1-0.3-0.4-1.1-0.9-2.3 -0.5-1.3-0.8-2.2-1-2.7 -0.2-0.6-0.5-1.5-0.8-2.5 -0.3-1.2-0.6-2.3-0.7-3.3 -0.1-1-0.2-2-0.2-3.1 0-3.6 1-7.2 2.9-10.8 2.3-4.1 4.5-6.5 6.9-7.5 1-0.4 2.3-0.8 3.9-1.2 3.2-0.7 5.1-0.8 6.6-0.2 1.5 0.5 2.8 2 4.5 5.4 0.3 0.6 0.8 1.4 1.4 2.6 0.6 1.1 1.2 2.1 1.7 3 0.5 0.9 1 1.7 1.4 2.4 0.1 0.2 0.4 0.5 0.8 1.1 0.6 0.8 1 1.6 1.3 2.2 0.5 1 0.7 2 0.7 3 0 1.7-0.8 3.2-2.4 5 -1.1 1.1-2.2 2.2-3.5 3.1 -0.9 0.7-1.8 1.5-2.6 2.2 0 0 0 0 0 0 0 0 0 0 0 0 0.1 0.2 0.3 0.4 0.5 0.9 0.4 0.7 0.6 1 0.7 1.1 2.3 4.1 4.9 7.6 7.8 10.6 2.9 2.9 6.5 5.6 10.6 7.8 0 0 0.4 0.2 1.1 0.6 0.4 0.3 0.7 0.4 0.9 0.5 0 0 0 0 0 0 0 0 0 0 0 0 0.8-0.8 1.5-1.7 2.2-2.6 0.9-1.3 2-2.4 3.1-3.5 2.6-2.5 5.2-3 7.9-1.7 0.6 0.3 1.4 0.7 2.2 1.3 0.6 0.4 1 0.7 1.2 0.9 0.6 0.4 1.4 0.8 2.3 1.3 0.9 0.5 1.9 1.1 3 1.7 1.1 0.6 2 1.1 2.7 1.5 3.3 1.7 4.8 2.9 5.4 4.5 0.2 0.6 0.4 1.3 0.4 2.3 0 1.2-0.2 2.5-0.6 4.2 -0.4 1.6-0.8 2.9-1.2 4 -1 2.4-3.5 4.6-7.5 6.9C62.8 74.7 59.1 75.7 55.5 75.7zM18 4c-0.7 0-1.7 0.1-3.3 0.5 -1.4 0.3-2.5 0.7-3.2 1 -1.6 0.7-3.3 2.6-5 5.8 -1.6 3-2.4 5.9-2.4 8.9 0 0.9 0.1 1.7 0.2 2.5 0.1 0.8 0.3 1.7 0.6 2.7 0.3 1.2 0.6 1.9 0.7 2.3 0.2 0.5 0.5 1.4 1 2.7 0.5 1.3 0.8 2.1 0.9 2.4 1.1 3.1 2.4 5.9 4 8.4 2.5 4.1 6 8.4 10.4 12.8 4.4 4.4 8.7 7.9 12.8 10.4 2.5 1.5 5.3 2.9 8.5 4 0.3 0.1 1.1 0.4 2.4 0.9 1.3 0.5 2.2 0.8 2.7 1 0.3 0.1 1 0.3 2.3 0.7 1 0.3 1.9 0.5 2.7 0.6 0.8 0.1 1.6 0.2 2.5 0.2 2.9 0 5.9-0.8 8.9-2.4 3.2-1.8 5.1-3.4 5.7-4.9 0.4-0.8 0.7-1.9 1-3.3 0.3-1.4 0.5-2.5 0.5-3.3 0-0.5-0.1-0.8-0.1-0.8 0-0.1 0-0.1-0.1-0.2 -0.1-0.2-0.6-0.9-3.4-2.3 0 0-0.1 0-0.1-0.1 -0.6-0.4-1.5-0.8-2.6-1.4 -1.1-0.6-2.2-1.2-3.1-1.7 -0.9-0.5-1.8-1-2.4-1.4 -0.1 0-0.1-0.1-0.2-0.1 -0.1-0.1-0.5-0.4-1.2-0.8 -0.7-0.5-1.2-0.8-1.7-1 -0.9-0.4-1.7-0.6-3.4 1 -1 0.9-1.8 1.9-2.6 3 -0.8 1.1-1.7 2.1-2.6 3 -0.8 0.8-1.3 1.2-1.7 1.3 -0.3 0.1-0.7 0.2-1 0.2 -0.3 0-0.6-0.1-1-0.3 -0.5-0.2-0.8-0.3-1-0.4 -0.2-0.1-0.6-0.3-1.2-0.7 -0.5-0.3-0.8-0.5-0.9-0.6 -4.4-2.5-8.3-5.3-11.5-8.5 -3.2-3.2-6-7-8.5-11.5 -0.1-0.1-0.2-0.4-0.6-0.9 -0.3-0.6-0.6-1-0.7-1.2 -0.1-0.2-0.3-0.6-0.4-1 -0.1-0.3-0.2-0.5-0.2-0.6 -0.1-0.4-0.1-0.9 0.1-1.3 0.2-0.5 0.7-1.1 1.3-1.8 0.9-0.9 2-1.8 3-2.6 1.1-0.8 2.1-1.7 3-2.6 0.9-0.9 1.3-1.6 1.3-2.2 0-0.4-0.1-0.8-0.3-1.2 -0.2-0.4-0.6-1-1-1.7 -0.5-0.7-0.8-1.1-0.8-1.1 0 0-0.1-0.1-0.1-0.1 -0.5-0.8-1-1.7-1.5-2.6 -0.5-0.9-1.1-2-1.7-3.1 -0.6-1.1-1.1-2-1.4-2.5 0 0 0-0.1-0.1-0.1 -1.5-3-2.2-3.4-2.2-3.5 -0.1 0-0.1 0-0.2-0.1C18.8 4.1 18.5 4 18 4z"/></svg>