<svg xmlns="http://www.w3.org/2000/svg" viewBox="0 0 89.3 73.3"><path class="st0" d="M28.8 73.3c-9.9 0-19.6-2.8-27.9-8.2 -0.8-0.5-1.1-1.5-0.8-2.4 0.3-0.9 1.2-1.4 2.1-1.3 1.3 0.2 2.7 0.2 4 0.2 5.9 0 11.5-1.5 16.4-4.3 -6-1.8-10.9-6.5-12.9-12.7 -0.2-0.7-0.1-1.4 0.4-1.9 0.3-0.3 0.6-0.5 1-0.6 -4.7-3.6-7.7-9.3-7.7-15.5v-0.2c0-0.7 0.4-1.4 1-1.7 0.6-0.4 1.4-0.4 2 0 0.2 0.1 0.3 0.2 0.5 0.3C4.8 21.7 3.6 17.9 3.6 14c0-3.5 0.9-6.9 2.6-9.8 0.3-0.6 0.9-0.9 1.6-1 0.7 0 1.3 0.2 1.7 0.7 8 9.8 19.6 16.1 32.2 17.4 -0.1-0.6-0.1-1.2-0.1-1.8C41.6 8.7 50.3 0 61.1 0c5 0 9.8 1.9 13.4 5.3 3.3-0.8 6.5-2 9.5-3.8 0.7-0.4 1.6-0.4 2.3 0.2 0.6 0.5 0.9 1.4 0.7 2.2 -0.6 2-1.6 3.8-2.7 5.4 0.8-0.3 1.6-0.6 2.4-0.9 0.8-0.4 1.8-0.1 2.3 0.5 0.6 0.7 0.6 1.7 0.1 2.4 -2.3 3.4-5.1 6.4-8.4 8.9l0 1.2C80.6 47 61.3 73.3 28.8 73.3zM10.1 65.5c5.9 2.5 12.3 3.8 18.7 3.8 29.9 0 47.8-24.3 47.8-47.8l-0.1-2.2c0-0.7 0.3-1.3 0.8-1.7 1.4-1 2.7-2.1 4-3.3 -1.3 0.3-2.6 0.5-3.9 0.7 -0.9 0.1-1.8-0.4-2.1-1.3 -0.3-0.9 0.1-1.9 0.9-2.4 1.6-0.9 2.9-2.1 4.1-3.5 -2 0.8-4 1.3-6.1 1.7 -0.7 0.1-1.4-0.1-1.8-0.6 -3-3.2-7-4.9-11.3-4.9 -8.6 0-15.5 7-15.5 15.5 0 1.2 0.1 2.4 0.4 3.5 0.1 0.6 0 1.3-0.4 1.7 -0.4 0.5-1 0.7-1.6 0.7C30.4 24.8 17.6 18.8 8.5 8.8c-0.6 1.6-0.9 3.4-0.9 5.2 0 5.2 2.6 10 6.9 12.9 0.7 0.5 1.1 1.4 0.8 2.3 -0.3 0.9-1.1 1.4-2 1.4 -1.9-0.1-3.8-0.4-5.6-1 1.2 6.1 5.9 11 12.1 12.2 0.9 0.2 1.6 1 1.6 1.9 0 0.9-0.6 1.8-1.5 2 -1.7 0.5-3.5 0.7-5.2 0.7 2.7 4.7 7.6 7.7 13.2 7.8 0.8 0 1.6 0.6 1.9 1.4 0.3 0.8 0 1.7-0.7 2.2C23.6 62.1 17.1 64.8 10.1 65.5z"/></svg>