<?xml version="1.0" standalone="yes"?>
<svg xmlns="http://www.w3.org/2000/svg">
<path style="fill:#ffffff; stroke:none;" d="M0 0L0 382C5.61918 375.288 9.31764 366.525 13.7994 359C24.2335 341.48 34.279 323.691 44.4213 306C74.2789 253.92 104.291 201.92 134.424 150C153.358 117.378 171.909 84.5237 191.011 52C197.449 41.0372 203.821 30.0262 210.15 19C213.648 12.9062 218.01 6.76636 220 0L0 0z"/>
<path style="fill:#fd5765; stroke:none;" d="M220 0C215.054 11.4779 207.634 22.1626 201.421 33C189.166 54.3773 176.793 75.6883 164.424 97C129.656 156.908 95.029 216.909 60.5787 277C46.7946 301.043 32.8098 324.971 19 349C12.7459 359.882 2.22177 372.544 0 385C10.7049 389.998 20.7522 396.704 31 402.579C50.3552 413.675 69.7623 424.712 89 436.011C101.43 443.311 115.132 453.997 129 458C134.531 445.165 142.912 433.05 149.989 421C160.511 403.085 170.807 385.018 181.15 367C216.967 304.602 252.575 242.038 289.011 180C303.637 155.097 317.674 129.845 332.397 105C336.509 98.0606 340.376 90.9767 344.424 84C345.859 81.5272 348.84 78.1229 348.698 75.1042C348.548 71.9348 344.338 70.1997 342 68.8503C334.336 64.4277 326.612 60.1144 319 55.6034C297.16 42.6614 274.957 30.3187 253 17.5756C243.028 11.7883 231.388 2.19586 220 0z"/>
<path style="fill:#ffffff; stroke:none;" d="M223 0C231.606 8.05884 244.743 13.446 255 19.2809C275.726 31.0715 296.439 42.9349 317 55.0108C324.633 59.4939 332.31 63.896 340 68.2809C342.406 69.6526 347.59 71.6425 348.273 74.6798C348.81 77.0676 346.128 80.1002 345.011 82.0008C341.315 88.289 337.781 94.6741 334.15 101C319.973 125.697 305.914 150.502 291.397 175C253.73 238.563 217.663 303.097 180.576 367C168.593 387.646 156.522 408.252 144.719 429C139.465 438.237 132.008 447.775 129 458C115.465 452.335 102.652 443.441 90 436.011C71.0948 424.907 52.0411 414.019 33 403.15C22.4788 397.145 11.5697 388.661 0 385L0 642L267 642C262.149 637.082 254.932 634.119 249 630.603C236.433 623.156 223.699 615.939 211 608.719C205.973 605.861 200.974 602.962 196.001 600.011C194.171 598.925 191.138 597.756 190.302 595.61C188.983 592.222 193.575 586.729 195.201 584C201.502 573.419 207.623 562.7 213.719 552C235.804 513.238 257.86 474.379 280.603 436C286.103 426.72 291.501 417.368 296.85 408C298.311 405.44 300.462 399.459 303.681 398.727C305.767 398.252 308.316 400.325 310.004 401.282C315.034 404.133 320.015 407.061 325 409.989C343.811 421.037 362.977 434.372 383 443L383 0L223 0z"/>
<path style="fill:#fd5765; stroke:none;" d="M269 642C277.046 624.767 288.115 608.507 297.579 592C316.91 558.281 336.501 524.71 355.85 491C364.861 475.302 376.009 459.703 383 443C363.615 431.135 343.527 420.428 324 408.799C319.372 406.043 314.706 403.34 310 400.721C308.088 399.657 305.542 397.743 303.213 398.446C299.681 399.512 297.391 406.066 295.719 409C290.374 418.381 284.844 427.662 279.424 437C257.217 475.264 235.174 513.63 213.15 552C207.209 562.35 201.307 572.747 195.201 583C193.395 586.031 188.572 591.837 189.736 595.61C190.407 597.785 193.226 598.943 195.005 600.011C199.633 602.789 204.312 605.475 209 608.15C221.354 615.202 233.697 622.284 246 629.424C253.461 633.754 260.874 639.042 269 642z"/>
<path style="fill:#ffffff; stroke:none;" d="M382 444C375.12 459.967 364.506 474.92 355.85 490C336.501 523.71 316.91 557.28 297.579 591C291.265 602.012 284.947 613.022 278.576 624C275.195 629.825 271.041 635.551 269 642L383 642L383 503L383 463C383 457.113 384.292 449.463 382 444z"/>
</svg>
