<svg xmlns="http://www.w3.org/2000/svg" width="571" height="700" fill="none"><path fill="#fff" d="M343.059 298.856H267v401.143h76.059V298.856Z"/><path fill="#E9E7EE" d="M445.718 297.881H343.073V700h102.645V297.881Z"/><path fill="#FFD469" d="M445.703 297.881H343.074l-38.918-56.83H406.8l38.903 56.83Z"/><path fill="#E9E7EE" d="m267 297.881 37.156-56.83 38.918 56.83H267Z"/><path fill="#559EA3" d="M314.192 339.721h-29.81v35.973h29.81v-35.973ZM314.192 427.804h-29.81v35.973h29.81v-35.973ZM314.192 515.904h-29.81v35.973h29.81v-35.973ZM314.192 603.988h-29.81v35.973h29.81v-35.973Z"/><path fill="#284D74" d="M355 286.5 331 252h32.5l22.5 34.5h-31Z"/><path stroke="#000" d="m347.25 252 23.25 34.5M347.25 252h8.125m-8.125 0h-8.125m31.375 34.5h7.75m-7.75 0h-7.75M343 269.25h31.75m-31.75 0-6-8.625m6 8.625 6 8.625m25.75-8.625-5.625-8.625m5.625 8.625 5.625 8.625M337 260.625 331 252h8.125M337 260.625h32.125m0 0L363.5 252h-8.125M349 277.875l6 8.625h7.75M349 277.875h31.375m0 0L386 286.5h-7.75M355.375 252l22.875 34.5M339.125 252l23.625 34.5"/><path fill="#284D74" d="M398 286.5 374 252h32.5l22.5 34.5h-31Z"/><path stroke="#000" d="m390.25 252 23.25 34.5M390.25 252h8.125m-8.125 0h-8.125m31.375 34.5h7.75m-7.75 0h-7.75M386 269.25h31.75m-31.75 0-6-8.625m6 8.625 6 8.625m25.75-8.625-5.625-8.625m5.625 8.625 5.625 8.625M380 260.625 374 252h8.125M380 260.625h32.125m0 0L406.5 252h-8.125M392 277.875l6 8.625h7.75M392 277.875h31.375m0 0L429 286.5h-7.75M398.375 252l22.875 34.5M382.125 252l23.625 34.5"/><path fill="#fff" d="M468.371 207.736h-76.075v492.263h76.075V207.736Z"/><path fill="#E9E7EE" d="M571 207.736H468.355v492.263H571V207.736Z"/><path fill="#FFD469" d="M570.999 207.736H468.354l-38.918-56.83h102.66l38.903 56.83Z"/><path fill="#E9E7EE" d="m392.296 207.736 37.141-56.83 38.918 56.83h-76.059Z"/><path fill="#284D74" d="M509.004 249.576h-26.869v35.973h26.869v-35.973ZM556.15 249.576h-26.853v35.973h26.853v-35.973Z"/><path fill="#559EA3" d="M439.488 249.576h-29.81v35.973h29.81v-35.973Z"/><path fill="#284D74" d="M509.004 337.66h-26.869v35.972h26.869V337.66ZM556.15 337.66h-26.853v35.972h26.853V337.66Z"/><path fill="#559EA3" d="M439.488 337.66h-29.81v35.972h29.81V337.66Z"/><path fill="#284D74" d="M509.004 425.759h-26.869v35.973h26.869v-35.973ZM556.15 425.76h-26.853v35.973h26.853V425.76Z"/><path fill="#559EA3" d="M439.488 425.759h-29.81v35.973h29.81v-35.973Z"/><path fill="#284D74" d="M509.004 513.843h-26.869v35.973h26.869v-35.973ZM556.15 513.843h-26.853v35.973h26.853v-35.973Z"/><path fill="#559EA3" d="M439.488 513.843h-29.81v35.973h29.81v-35.973Z"/><path fill="#284D74" d="M509.004 601.942h-26.869v35.973h26.869v-35.973ZM556.15 601.942h-26.853v35.973h26.853v-35.973Z"/><path fill="#559EA3" d="M439.488 601.942h-29.81v35.973h29.81v-35.973Z"/><path fill="#284D74" d="M475 196.5 451 162h32.5l22.5 34.5h-31Z"/><path stroke="#000" d="m467.25 162 23.25 34.5M467.25 162h8.125m-8.125 0h-8.125m31.375 34.5h7.75m-7.75 0h-7.75M463 179.25h31.75m-31.75 0-6-8.625m6 8.625 6 8.625m25.75-8.625-5.625-8.625m5.625 8.625 5.625 8.625M457 170.625 451 162h8.125M457 170.625h32.125m0 0L483.5 162h-8.125M469 187.875l6 8.625h7.75M469 187.875h31.375m0 0L506 196.5h-7.75M475.375 162l22.875 34.5M459.125 162l23.625 34.5"/><path fill="#284D74" d="M518 196.5 494 162h32.5l22.5 34.5h-31Z"/><path stroke="#000" d="m510.25 162 23.25 34.5M510.25 162h8.125m-8.125 0h-8.125m31.375 34.5h7.75m-7.75 0h-7.75M506 179.25h31.75m-31.75 0-6-8.625m6 8.625 6 8.625m25.75-8.625-5.625-8.625m5.625 8.625 5.625 8.625M500 170.625 494 162h8.125M500 170.625h32.125m0 0L526.5 162h-8.125M512 187.875l6 8.625h7.75M512 187.875h31.375m0 0L549 196.5h-7.75M518.375 162l22.875 34.5M502.125 162l23.625 34.5"/><path fill="#fff" d="M119.071 103.041c0 9.957-8.07 18.042-18.028 18.042-9.957 0-18.043-8.069-18.043-18.042C83 93.069 91.07 85 101.043 85c9.974 0 18.028 8.07 18.028 18.041ZM416.921 61s2.001-37.318-14.108-37.318c-11.745 0-24.598 17.192-32.013 26.087C362.457 27.475 340.572 0 314.9 0c-24.304 0-45.194 25.838-54.441 46.27-7.766-9.63-18.821-27.261-31.12-27.261C211.58 19.009 196.376 43.154 190 61h226.921ZM177.938 242.988s1.572-29.358-11.065-29.358c-9.207 0-19.282 13.521-25.107 20.539C135.228 216.625 118.065 195 97.937 195c-19.056 0-35.444 20.324-42.686 36.412-6.086-7.579-14.756-21.458-24.404-21.458C16.924 209.954 4.99 228.953 0 243h177.938v-.012Z"/><path fill="#FFD469" d="M92.781 655.738h-9.81V700h9.81v-44.262Z"/><path fill="#6DB49B" d="M87.872 534 42.567 668.737h90.626L87.872 534Z"/><path fill="#FFD469" d="M173.033 676.956h-6.078v23.241h6.078v-23.241Z"/><path fill="#BEE396" d="M169.997 587.605c-8.282 0-19.997 34.903-19.997 61.09 0 26.188 11.721 33.744 19.997 33.744S190 674.883 190 648.695c0-26.187-11.715-61.09-20.003-61.09Z"/></svg>
