<svg data-name="" viewBox="0 0 740 590.83">
  <title>Help character</title>
  <defs>
    <style>
      .cls-1{fill:#2f128d}.cls-3{fill:#fd5765}.cls-4{fill:#fff}.cls-5{fill:#e6e6e6}.cls-6{fill:#251657}
    </style>
  </defs>
  <path class="cls-1" d="M273 107.38l-.44 240C159.07 347.12 67.26 255 67.47 141.5l.07-38.15"/>
  <path d="M-3.2 169.29a128.51 128.51 0 0 1 128.6 128.42A128.51 128.51 0 0 1-3 426.31z" fill="#251657"/>
  <path class="cls-1" d="M710.41 368.53l-65.84-16.15 16.1-66.02 65.84 16.14-16.1 66.03zM506.24 253.84l-65.18 18.62-18.57-65.37 65.18-18.62 18.57 65.37zm118.61 302.79l-65.18 18.62-18.57-65.36 65.18-18.62 18.57 65.36z"/>
  <path class="cls-3" d="M454.72 313.85h67.78v67.97h-67.78zM461.226 467.735l7.54-67.54 67.362 7.52-7.54 67.54zM548.526 268.309l67.45-6.673 6.692 67.64-67.45 6.672zM554.21 382.81l65.18-18.62 18.58 65.36-65.19 18.63-18.57-65.37z"/>
  <path class="cls-4" d="M503.838 348.3l67.45-6.672 6.692 67.64-67.45 6.673z"/>
  <path class="cls-5 handnote" d="M303 431.9h47.6a47.87 47.87 0 0 1-47.6 47.87h-.32a34.7 34.7 0 0 1 .26-69.4z"/>
  <path class="cls-1 handnote" d="M302.42 364.91h67.27v67.46h-67.27z"/>
  <circle class="cls-1" cx="170.04" cy="108.47" r="102.68"/>
  <rect class="cls-5" x="95.63" y="41.29" width="131.26" height="199.05" rx="53.13" transform="rotate(30 161.274 140.827)"/>
  <rect class="cls-5" x="66.4" y="98.23" width="65.22" height="168.76" rx="32.61" transform="rotate(30 99.01 182.61)"/>
  <path class="cls-5" d="M122.74 88.52a27.32 27.32 0 0 0-27.32 47.31z"/>
  <circle class="cls-6" cx="155.85" cy="118" r="7.54"/>
  <circle class="cls-6" cx="203.5" cy="145.51" r="7.54"/>
  <path class="cls-4" d="M127.41 179.18a20.13 20.13 0 1 0 34.86 20.13z"/>
  <path class="cls-3" d="M172.93 183.4l-18.36-10.6 16.71-28.95 1.65 39.55z"/>
  <path class="cls-1" d="M222.77 53.54a80.66 80.66 0 0 1-110.18 29.52s13.17-49.6 59-59.08"/>
  <path class="cls-1" d="M221.1 54.92a60.11 60.11 0 0 0 22 82.11l17.41-59.36z"/>
</svg>
