<svg xmlns="http://www.w3.org/2000/svg" viewBox="0 0 541 551">
    <title>Man with fruit</title>
    <style>.st0{fill:#3beccd}.st1{fill:#231749}.st2{fill:#fd5765}.st3{fill:#e6e6e6}.st4{fill:#2f128d}.st5{fill:#fff}
    </style>
    <path class="st0" d="M.2 202.9c86 .1 155.6 69.8 155.5 155.8 0 86-69.7 155.6-155.7 155.5l.2-311.3z"/>
    <ellipse transform="rotate(-80.781 487.626 417.814)" class="st0" cx="487.6" cy="417.8" rx="39" ry="39"/>
    <path class="st0" d="M321.3 372s37 2.5 49.5 24.5c12.6 22-4 55.1-4 55.1s-37-2.5-49.5-24.5 4-55.1 4-55.1z"/>
    <path class="st1"
          d="M352.5 438.4c4.1 6.2 9.3 11.7 15.6 16.4 29.1 21.5 70.2 15.4 91.7-13.7s15.4-70.2-13.7-91.7c-6.3-4.7-13.2-8-20.2-10.1 14.9 22.3 15 52.5-1.9 75.3-17 22.7-45.8 31.4-71.5 23.8z"/>
    <circle class="st2" cx="399.1" cy="427.7" r="29.1"/>
    <path class="st3" d="M541 429.9c0 66.9-54.2 121.2-121.2 121.2s-121.2-54.2-121.2-121.2"/>
    <circle class="st4" cx="134.4" cy="145.8" r="51.4"/>
    <circle class="st4" cx="194.6" cy="71.1" r="71.1"/>
    <circle class="st4" cx="292.6" cy="126.7" r="103.2"/>
    <path class="st5"
          d="M182.3 297.8l-25.2-14.6c-29.6-17.1-39.7-54.9-22.6-84.5l54.1-93.5c17.1-29.6 54.9-39.7 84.5-22.6l25.2 14.6c29.6 17.1 39.7 54.9 22.6 84.5l-54.1 93.5c-17.1 29.6-55 39.7-84.5 22.6z"/>
    <path class="st5"
          d="M106 323.9c-18.2-10.5-24.4-33.7-13.9-51.9l60.4-104.4c10.5-18.2 33.7-24.4 51.9-13.9 18.2 10.5 24.4 33.7 13.9 51.9L157.8 310c-10.5 18.2-33.7 24.4-51.8 13.9z"/>
    <path class="st5" d="M184.8 125.9c-15.2-8.8-34.7-3.6-43.5 11.6s-3.6 34.7 11.6 43.5l31.9-55.1z"/>
    <circle class="st1" cx="221.4" cy="163.6" r="8.8"/>
    <circle class="st1" cx="276.9" cy="195.7" r="8.8"/>
    <path class="st3" d="M189.7 240.5c-5.3 9.2-2.2 21.1 7.1 26.4 9.2 5.3 21.1 2.2 26.4-7.1l-33.5-19.3z"/>
    <path class="st2" d="M241.2 239.8l-21.3-12.4 19.4-33.6z"/>
    <circle class="st4" cx="289.4" cy="104.1" r="51.4"/>
</svg>
