<svg xmlns="http://www.w3.org/2000/svg" viewBox="0 0 130.37 156.35" aria-hidden="true"><title>Flame</title><path d="M129.64 82.82c-.2-1.59-2.3-1.96-3.08-.57-4.72 8.4-11.32 15.63-15.95 17.77l.03-.94C109.85 40.98 67.87 9.53 53.1.26c-1.39-.87-3.08.63-2.36 2.11 9.67 20.07 6.11 39.15-10.19 57.56-3.05 3.45-6.46 7.82-9.36 12.24v-.01s-3.48 5.06-6.84 12.09l-.16-.19c-6.73-10.16-8.2-22.44-8.47-29.08-.06-1.59-2.07-2.25-3-.95C8.53 59.86 1.31 71.61.24 84.57c-2.58 31.23 15.9 63.11 47.72 71.64 1.46.39 2.56-1.25 1.75-2.52-2.81-4.41-4.49-10.59-4.49-18.62 0-18.53 19.97-46.64 19.97-46.64s19.97 28.11 19.97 46.64c0 8.09-1.71 14.29-4.55 18.71-.81 1.26.27 2.9 1.73 2.52 30.86-7.96 45.44-36.5 47.64-53.99.78-7.79.24-14.95-.34-19.49z"></path>
    <style>
        svg {fill: var(--header-icon-color, #fd5765);}
    </style>
</svg>
