<svg xmlns="http://www.w3.org/2000/svg" viewBox="0 0 567.3 332.5"><title>Toolkit</title><style>.st0{fill: #e9e8ed}.st1{fill: #2f128d}.st2{fill: var(--color-accent, #2f128d)}.st3{fill:#fff}</style><path class="st0" d="M-31.8 63h520V43h-520c-5.5 0-10 4.5-10 10s4.4 10 10 10z"/><path class="st1" d="M380.1 104.8h40V239h-40z"/><path class="st1" d="M384.5 54.7v29.9c0 8.6 7 15.6 15.6 15.6s15.6-7 15.6-15.6V54.7c12.6 5.9 21.3 18.6 21.3 33.4 0 20.4-16.5 36.9-36.9 36.9s-36.9-16.5-36.9-36.9c0-14.7 8.8-27.5 21.3-33.4zM222.6 72.1v29.7h-16v6h16v29.9h-8v6h8v29.9h-16v6h16v30h-8v6h8v29.9h-16v6h16v30h-39.3V72.1z"/><path class="st1" d="M222.6 0v29.7h-16v6h16v29.9h-8v6h8v29.9h-16v6h16v30h-8v6h8v29.9h-16v6h16v30h-39.3V0zm-89.7 150.8V88.4l7.4-7.6h-30.9l7.5 7.6v62.3h-27c0 11.9 5.9 22.4 15 28.7v85.9h40v-85.9c9.1-6.3 15-16.8 15-28.7l-27 .1z"/><path class="st1" d="M109.4 50h30.9v30.9h-30.9zm139.7 50.1l71.3.2c5.5-6.7 13.9-11 23.2-10.9l-.2 60c-9.4 0-17.7-4.3-23.2-11.1h-12l-.4 141.4-40-.1.4-141.4-19.3-.1.2-38z"/><path class="st2 accented" d="M453 179.5v-129c0-19.9 16.1-36 36-36s36 16.1 36 36v129c0 23.5 18.9 42.6 42.3 43v110H410v-110c23.8 0 43-19.2 43-43z"/><circle class="st3" cx="488.7" cy="52" r="16.5"/><path class="st1" d="M47.3 100.2h-15V73.9l15.1-.2 36.8-.3-37-31.2-14.9.1V23.6H-5.9v19l-15.9.2.2 31.5 15.7-.1v186.4h38.2V131.8h15v-.1l36.8-31.5z"/><path class="st0" d="M-48.8 222.5h459v110h-459z"/></svg>
