<svg xmlns="http://www.w3.org/2000/svg" viewBox="0 0 740 494.4">
  <title>Wagtail</title>
  <style>
    .st0{fill:#3beccd}.st1{fill:#e6e6e6}.eyes{fill:#251657}.faces{fill:#fff}
  </style>
  <path class="st0" d="M740.3 169.6c-81.1-.1-146.8 65.6-146.9 146.7S659 463.1 740.1 463.1l.2-293.5z"/>
  <path class="st1" d="M619.3 220.3l-24.7 14.3c-29 16.8-66.1 6.8-82.9-22.2l-53-91.8c-16.8-29-6.8-66.1 22.2-82.9l24.7-14.3c29-16.8 66.1-6.8 82.9 22.2l53 91.8c16.7 29 6.8 66.1-22.2 82.9z"/>
  <path class="st1" d="M669.3 260.2c-17.8 10.3-40.6 4.2-50.9-13.6l-59.1-102.4c-10.3-17.8-4.2-40.6 13.6-50.9 17.8-10.3 40.6-4.2 50.9 13.6L683 209.3c10.3 17.8 4.2 40.6-13.7 50.9z"/>
  <path class="st1" d="M594.1 69.3c14.7-9 33.9-4.4 42.9 10.3s4.4 33.9-10.3 42.9c-.4.3-.9.5-1.4.8l-31.2-54z"/>
  <circle class="eyes" cx="556.2" cy="102.9" r="8.6"/>
  <circle class="eyes" cx="501.8" cy="134.4" r="8.6"/>
  <path class="faces" d="M588.7 172.8c6.1 11.2 1.9 25.1-9.2 31.2-10.8 5.9-24.2 2.3-30.6-8.2l39.8-23z"/>
  <path fill="#fd5765" d="M536.8 177.6l20.9-12.1-19.1-33z"/>
  <path class="eyes" d="M535.3 68l-16.1 9.3c5.1 8.8 16.5 11.9 25.3 6.7l16.1-9.3c-5-8.8-16.4-11.9-25.3-6.7.1 0 0 0 0 0zM480.6 99.6l-16.1 9.3c5.1 8.9 16.5 11.9 25.3 6.8l16.1-9.3c-5-8.9-16.4-12-25.3-6.8.1 0 0 0 0 0z"/>
  <path class="faces waggy" d="M383.8 287.7c12.9 7.8 17.1 24.6 9.4 37.5L366 370.4l-46.8-28.2 27.2-45.2c7.7-12.9 24.5-17 37.4-9.3z"/>
  <ellipse class="st0 waggy" cx="375.6" cy="312.8" rx="5.4" ry="5.4"/>
  <path class="st0 waggy" d="M392.6 325.9l-8.8 14.8 23.7-5.9z"/>
  <path class="st0 waggy" d="M357.6 340.2c-8.5-5.1-18.2-8-28.2-8.3l19.9-33.1c7.6-12.4 23.7-16.4 36.2-8.8 8.2 5 13.1 14.1 12.6 23.7 6.1-21.5-6.5-43.9-28-49.9-17.6-4.9-36.4 2.6-45.8 18.4L272.1 369 205 480.8l132.4-33c31.8-5.4 53.2-35.6 47.7-67.4-2.9-16.7-12.9-31.5-27.5-40.2z"/>
</svg>
