<?xml version="1.0" encoding="UTF-8" standalone="no"?>
<!-- Created with Inkscape (http://www.inkscape.org/) -->

<svg
   xmlns:dc="http://purl.org/dc/elements/1.1/"
   xmlns:cc="http://creativecommons.org/ns#"
   xmlns:rdf="http://www.w3.org/1999/02/22-rdf-syntax-ns#"
   xmlns:svg="http://www.w3.org/2000/svg"
   xmlns="http://www.w3.org/2000/svg"
   version="1.1"
   width="142"
   height="108.2"
   id="svg4913">
  <defs
     id="defs4915">
    <clipPath
       id="clipPath1788">
      <path
         d="m 0,5650 1401,0 L 1401,0 0,0 0,5650 z"
         id="path1790" />
    </clipPath>
    <clipPath
       id="clipPath1796">
      <path
         d="m 966,446 169,0 0,-1 -169,0 0,1 z"
         id="path1798" />
    </clipPath>
    <clipPath
       id="clipPath1820">
      <path
         d="m 966,421 137,0 0,-1 -137,0 0,1 z"
         id="path1822" />
    </clipPath>
    <clipPath
       id="clipPath1860">
      <path
         d="m 789,4384 85,0 0,-1 -85,0 0,1 z"
         id="path1862" />
    </clipPath>
    <clipPath
       id="clipPath1788-4">
      <path
         d="m 0,5650 1401,0 L 1401,0 0,0 0,5650 z"
         id="path1790-8" />
    </clipPath>
    <clipPath
       id="clipPath1796-1">
      <path
         d="m 966,446 169,0 0,-1 -169,0 0,1 z"
         id="path1798-4" />
    </clipPath>
    <clipPath
       id="clipPath1820-6">
      <path
         d="m 966,421 137,0 0,-1 -137,0 0,1 z"
         id="path1822-9" />
    </clipPath>
    <clipPath
       id="clipPath1860-9">
      <path
         d="m 789,4384 85,0 0,-1 -85,0 0,1 z"
         id="path1862-2" />
    </clipPath>
  </defs>
  <metadata
     id="metadata4918">
    <rdf:RDF>
      <cc:Work
         rdf:about="">
        <dc:format>image/svg+xml</dc:format>
        <dc:type
           rdf:resource="http://purl.org/dc/dcmitype/StillImage" />
        <dc:title></dc:title>
      </cc:Work>
    </rdf:RDF>
  </metadata>
  <g
     transform="translate(-319.79369,-505.11948)"
     id="layer1">
    <path
       d="m 420.781,584.63321 c -7.5937,-6.67237 -9.35442,-32.21425 -9.35442,-38.65381 0,-3.82964 -7.26911,-6.11497 -13.17095,-7.33796 -4.8887,-1.01643 -9.94461,-1.01643 -14.83659,-0.005 -5.92807,1.22299 -13.24964,3.50832 -13.24964,7.34451 0,6.43958 -1.80334,31.98145 -9.39705,38.65382 -7.5937,6.67236 -11.33154,10.0233 0.86233,12.71847 12.19714,2.69846 29.2043,3.15749 29.2043,3.15749 0,0 16.94485,-0.45903 29.13872,-3.15749 12.19715,-2.69517 8.39701,-6.04611 0.8033,-12.71847 z"
       id="path1842"
       style="fill:none;stroke:#fd5938;stroke-width:3.27880287;stroke-linecap:butt;stroke-linejoin:miter;stroke-miterlimit:10;stroke-opacity:1;stroke-dasharray:none" />
    <path
       d="m 402.63611,600.35181 c 0,6.25596 -5.07231,11.32827 -11.32827,11.32827 -6.25923,0 -11.33154,-5.07231 -11.33154,-11.32827"
       id="path1846"
       style="fill:none;stroke:#fd5938;stroke-width:3.27880287;stroke-linecap:butt;stroke-linejoin:miter;stroke-miterlimit:10;stroke-opacity:1;stroke-dasharray:none" />
    <path
       d="m 416.4982,535.10098 11.23974,0.0753 0,-28.41738 -73.88782,0 0,28.90921 10.34462,0 15.7317,-6.77073 c 6.62974,-5.47233 16.1481,-5.68873 23.02047,-0.52133 l 13.55129,6.72482 z"
       id="path1850"
       style="fill:none;stroke:#fd5938;stroke-width:3.27880287;stroke-linecap:butt;stroke-linejoin:miter;stroke-miterlimit:10;stroke-opacity:1;stroke-dasharray:none" />
    <path
       d="m 389.78352,527.31154 0,9.83642"
       id="path1854"
       style="fill:none;stroke:#fd5938;stroke-width:3.27880287;stroke-linecap:butt;stroke-linejoin:miter;stroke-miterlimit:10;stroke-opacity:1;stroke-dasharray:none" />
  </g>
</svg>
