<?xml version="1.0" encoding="utf-8"?>
<!-- Generator: Adobe Illustrator 18.1.1, SVG Export Plug-In . SVG Version: 6.00 Build 0)  -->
<!DOCTYPE svg PUBLIC "-//W3C//DTD SVG 1.1//EN" "http://www.w3.org/Graphics/SVG/1.1/DTD/svg11.dtd">
<svg version="1.1" id="Capa_1" xmlns="http://www.w3.org/2000/svg" xmlns:xlink="http://www.w3.org/1999/xlink" x="0px" y="0px"
	 viewBox="-597.6 658.1 166.2 284.9" enable-background="new -597.6 658.1 166.2 284.9" xml:space="preserve">
<g>
	<path fill="#FD5938" d="M-567.4,940.2l133-133.1c1.9-1.9,2.9-4.1,2.9-6.6s-1-4.7-2.9-6.6l-133-133c-1.9-1.9-4.1-2.9-6.6-2.9
		c-2.5,0-4.7,1-6.6,2.9l-14.3,14.3c-1.9,1.9-2.9,4.1-2.9,6.6s1,4.7,2.9,6.6l112.2,112.2l-112.2,112.2c-1.9,1.9-2.8,4.1-2.8,6.6
		c0,2.5,1,4.7,2.8,6.6l14.3,14.3c1.9,1.9,4.1,2.8,6.6,2.8C-571.4,943-569.3,942.1-567.4,940.2z"/>
</g>
</svg>
