<?xml version="1.0" encoding="utf-8"?>
<!-- Generator: Adobe Illustrator 19.2.1, SVG Export Plug-In . SVG Version: 6.00 Build 0)  -->
<svg version="1.1" id="Layer_1" xmlns="http://www.w3.org/2000/svg" xmlns:xlink="http://www.w3.org/1999/xlink" x="0px" y="0px"
	 viewBox="0 0 56.5 56.5" style="enable-background:new 0 0 56.5 56.5;" xml:space="preserve">
<style type="text/css">
	.st0{fill:#26B2B1;}
</style>
<g>
	<g>
		<path class="st0" d="M25,56.5c-1,0-2-0.6-3.2-1.7c-0.5-0.5-1.1-1.1-1.6-1.6c-1-1-2-2-3-3c-1.5-1.5-1.5-2.9-1.1-3.8
			c0.6-1.7,1.8-2.8,3.4-2.9c2.4-0.1,3.8-1,4.3-2.8c0.6-2,0.1-3.9-1.6-5.9c-1.4-1.5-2.9-2.3-4.8-2.3l0,0l0,0l0,0
			c-2.5,0-4.1,1.5-4.2,3.9c-0.1,1.9-1.1,3.2-2.7,3.9c-2.2,0.9-3.7-0.6-4.3-1.3c-1.3-1.4-2.7-2.7-4-4.1l-0.5-0.5c-2-2-2-3.8,0-5.8
			c1.2-1.2,2.4-2.5,3.7-3.7c0.7-0.7,1.4-1.4,2.1-2.1c0.3-0.3,0.6-0.6,0.7-0.8c0.1-0.3,0.1-0.5,0.1-0.6c0,0-0.1-0.1-0.2-0.1
			c-1.9-0.1-2.9-1.1-3.5-1.8c-0.9-1.2-1.1-2.8-0.8-4.4c0.8-3.7,3-6.7,6.4-9.1c1.6-1.1,3.5-1.9,5.5-2.4c1.4-0.4,2.7-0.2,3.7,0.4
			c1.1,0.7,1.8,1.9,2.2,3.6c0,0.1,0.1,0.2,0.1,0.3c0.4,0,0.8-0.2,1-0.3c1.4-1.3,2.8-2.7,4.1-4c0.6-0.6,1.1-1.1,1.7-1.7
			c0.3-0.3,0.7-0.7,1.1-1c1.8-1.3,3.3-1.1,4.9,0.4c0.7,0.7,1.4,1.4,2.1,2.1c1,1,2.1,2.1,3.1,3.1c1.6,1.6,1.3,3.1,1,3.9
			c-0.9,2.4-2.6,2.7-3.5,2.7c-1.7,0-3,0.7-3.8,1.9c-0.9,1.4-0.8,3.3,0.2,5.3c1.1,2.2,4.2,4.1,6.4,3.8c3.3-0.4,3.7-3.2,3.8-4
			c0.1-1.6,0.8-2.8,2.2-3.6c1.5-0.8,3-0.7,4.2,0.5l0.4,0.4c1.7,1.7,3.5,3.5,5.2,5.2c1.5,1.6,1.4,3.6-0.3,5.3
			C54.1,29,53,30,51.9,31.1c-0.9,0.9-1.7,1.7-2.6,2.6c-0.3,0.3-0.6,0.6-0.7,0.9c-0.1,0.2-0.1,0.4-0.1,0.4s0.2,0.2,0.6,0.2
			c2.6,0.4,4.1,2.2,4.1,4.9c0,2.8-1.8,6.1-4.6,8.8s-6.1,4.2-8.8,4.2c-2.3-0.1-4-1.4-4.5-3.8c-0.1-0.3-0.2-0.6-0.3-0.7
			c-0.3,0-0.7,0.1-0.8,0.3c-1.5,1.4-2.9,2.8-4.4,4.2c-0.5,0.5-1,1-1.6,1.6C27.1,55.9,26.1,56.5,25,56.5z M17.4,30
			c2.5,0,4.8,1.1,6.6,3.1c2.3,2.6,3.1,5.4,2.2,8.3c-0.9,2.8-3.1,4.3-6.6,4.5c-0.6,0-1,0.7-1.2,1.2c-0.1,0.2-0.2,0.5,0.5,1.2
			c1,1,2,2,3.1,3c0.5,0.5,1.1,1.1,1.6,1.6c1.3,1.3,1.6,1.3,2.9,0c0.5-0.5,1-1,1.5-1.6c1.4-1.4,2.9-2.9,4.4-4.3
			c0.8-0.7,2.2-1.1,3.3-0.9c1.4,0.3,1.9,2.4,2,2.6c0.3,1.2,1,1.8,2.1,1.8h0.1c2,0,4.7-1.3,6.9-3.5c2.3-2.3,3.8-5,3.8-7
			c0-1.4-0.6-2.2-2-2.4s-2.1-0.9-2.4-1.5c-0.3-0.5-0.5-1.4,0-2.6c0.3-0.7,0.8-1.2,1.2-1.7c0.9-0.9,1.8-1.8,2.6-2.6
			c1.1-1.1,2.1-2.1,3.2-3.2c1.1-1.1,0.7-1.5,0.3-1.9c-1.7-1.8-3.5-3.5-5.2-5.2l-0.4-0.4c-0.3-0.3-0.6-0.4-1.2-0.1
			c-0.6,0.4-0.9,0.8-0.9,1.6c-0.2,3.5-2.5,6-6,6.4c-3.2,0.4-7.3-2-8.9-5.2c-1.4-2.7-1.4-5.5-0.1-7.7c1.2-2,3.3-3.1,5.9-3.1
			c0.2,0,0.7,0,1.2-1.2C38,9,38.1,8.6,37.5,8c-1-1-2.1-2.1-3.1-3.1c-0.7-0.7-1.4-1.4-2.1-2.1c-0.7-0.7-0.9-0.7-1.7-0.2
			c-0.3,0.2-0.5,0.4-0.8,0.7c-0.6,0.6-1.1,1.1-1.7,1.7c-1.4,1.4-2.8,2.8-4.2,4.1c-0.8,0.8-2.1,1-3.1,0.9c-1.2-0.1-2-1.5-2.1-2.3
			c-0.1-0.7-0.4-1.6-1.1-2c-0.4-0.3-1-0.3-1.7-0.1c-1.7,0.4-3.4,1.2-4.7,2.1c-2.9,2-4.7,4.6-5.4,7.6c-0.2,0.9-0.1,1.8,0.3,2.4
			c0.4,0.5,0.9,0.7,1.7,0.8c1,0.1,1.8,0.6,2.2,1.4c0.5,0.9,0.5,2-0.1,2.9c-0.3,0.5-0.7,1-1.1,1.3c-0.8,0.8-1.5,1.5-2.2,2.2
			C5.4,27.5,4.2,28.7,3,30c-1,1-1,1.3,0,2.3l0.5,0.5c1.4,1.4,2.7,2.7,4.1,4.1c0.9,0.9,1.2,0.9,1.6,0.7c0.8-0.4,1.2-0.9,1.2-1.8
			C10.9,32.5,13.5,30,17.4,30C17.3,30,17.4,30,17.4,30z"/>
	</g>
</g>
</svg>
