<?xml version="1.0" encoding="utf-8"?>
<!-- Generator: Adobe Illustrator 17.0.2, SVG Export Plug-In . SVG Version: 6.00 Build 0)  -->
<!DOCTYPE svg PUBLIC "-//W3C//DTD SVG 1.1//EN" "http://www.w3.org/Graphics/SVG/1.1/DTD/svg11.dtd">
<svg version="1.1" id="Layer_1" xmlns="http://www.w3.org/2000/svg" xmlns:xlink="http://www.w3.org/1999/xlink" x="0px" y="0px"
	 width="408.984px" height="80.709px" viewBox="-2.014 20.172 408.984 80.709"
	 enable-background="new -2.014 20.172 408.984 80.709" xml:space="preserve">
<path fill="#222222" d="M83.308,70.731c-5.754,6.57-10.291,11.668-10.615,11.992c-0.328-0.324-4.863-5.422-10.617-11.992
	c-5.182-5.914-7.449-8.914-7.449-12.884c0-4.131,3.318-7.695,8.18-7.695c1.783,0,3.322,0.488,4.699,1.377
	c-4.049-12.725-15.557-21.55-28.926-21.55c-16.689,0-29.896,13.527-29.896,30.543c0,17.015,13.207,30.632,29.896,30.632
	c6.4,0,11.1-1.705,13.936-3.486l5.916,7.449c-4.699,3.729-12.963,5.764-19.852,5.764c-22.443,0-40.594-17.914-40.594-40.359
	s18.15-40.35,40.594-40.35c19.203,0,35.652,13.371,39.297,31.357c1.377-0.889,2.916-1.377,4.701-1.377
	c4.861,0,8.184,3.564,8.184,7.695C90.761,61.817,88.491,64.817,83.308,70.731z M118.714,59.064
	c-1.053-0.647-2.268-1.133-3.889-1.133c-5.672,0-6.24,5.345-6.24,9.396v13.934h-8.59V51.119h8.59v3.488
	c1.783-2.676,3.973-4.215,7.617-4.215c1.217,0,2.432,0.328,3.564,0.727L118.714,59.064z M129.816,67.817
	c0,2.592,1.377,7.289,7.613,7.289c3.811,0,6.889-1.943,7.295-2.27l3.484,5.748c-1.621,1.307-6.156,3.645-12.156,3.645
	c-9.559,0-15.312-6.561-15.312-15.711c0-9.236,4.861-16.367,15.07-16.367c9.482,0,14.1,6.641,14.1,16.367v1.299
	C149.91,67.817,129.816,67.817,129.816,67.817z M135.892,56.146c-3.484,0-5.674,2.676-5.836,5.999h11.506
	C141.402,58.822,139.376,56.146,135.892,56.146z M168.71,82.229c-9.158,0-15.318-6.961-15.318-15.959
	c0-9.234,6.482-16.119,16.047-16.119c2.35,0,5.182,0.568,7.291,1.863v7.941c-1.623-1.461-3.975-2.596-6.645-2.596
	c-5.188,0-7.941,4.376-7.941,8.994c0,4.943,2.92,8.672,7.619,8.672c2.992,0,5.025-1.301,5.428-1.621l3.559,5.912
	C178.177,79.809,174.3,82.229,168.71,82.229z M191.88,94.798h-9.066l8.984-18.316l-12.795-25.363h10.199l7.371,16.046l7.701-16.046
	h8.998L191.88,94.798z M227.37,82.229c-9.154,0-15.32-6.961-15.32-15.959c0-9.234,6.492-16.119,16.051-16.119
	c2.348,0,5.186,0.568,7.291,1.863v7.941c-1.625-1.461-3.971-2.596-6.647-2.596c-5.184,0-7.939,4.376-7.939,8.994
	c0,4.943,2.916,8.672,7.621,8.672c2.994,0,5.022-1.301,5.426-1.621l3.564,5.912C236.847,79.809,232.96,82.229,227.37,82.229z
	 M240.247,81.261V33.544h8.598v47.718L240.247,81.261L240.247,81.261z M261.97,67.817c0,2.592,1.371,7.289,7.617,7.289
	c3.803,0,6.885-1.943,7.289-2.27l3.486,5.748c-1.621,1.307-6.162,3.645-12.158,3.645c-9.555,0-15.309-6.561-15.309-15.711
	c0-9.236,4.857-16.367,15.07-16.367c9.476,0,14.096,6.641,14.096,16.367v1.299C282.061,67.817,261.97,67.817,261.97,67.817z
	 M268.044,56.146c-3.488,0-5.672,2.676-5.834,5.999h11.508C273.556,58.822,271.528,56.146,268.044,56.146z"/>
<path fill="#222222" d="M288.014,50.661h7.173v2.856c2.496-2.476,5.311-3.713,8.442-3.713c3.597,0,6.4,1.132,8.41,3.396
	c1.735,1.926,2.603,5.067,2.603,9.427v18.947h-7.173V64.331c0-3.043-0.423-5.146-1.27-6.308c-0.825-1.184-2.327-1.775-4.507-1.775
	c-2.37,0-4.052,0.782-5.046,2.346c-0.974,1.543-1.46,4.238-1.46,8.083v14.898h-7.173V50.661z"/>
<path fill="#222222" d="M322.196,65.896c0-4.464,1.598-8.263,4.793-11.394c3.193-3.132,7.088-4.697,11.68-4.697
	c4.611,0,8.525,1.576,11.742,4.729c3.174,3.153,4.762,7.026,4.762,11.617c0,4.634-1.6,8.517-4.793,11.647
	c-3.217,3.111-7.162,4.666-11.838,4.666c-4.635,0-8.518-1.587-11.648-4.761C323.761,74.572,322.196,70.636,322.196,65.896z
	 M329.495,66.023c0,3.09,0.826,5.533,2.477,7.331c1.691,1.82,3.924,2.73,6.697,2.73c2.793,0,5.023-0.899,6.695-2.698
	c1.672-1.798,2.508-4.2,2.508-7.204c0-3.005-0.836-5.407-2.508-7.206c-1.693-1.819-3.924-2.729-6.695-2.729
	c-2.73,0-4.941,0.91-6.635,2.729C330.341,60.797,329.495,63.146,329.495,66.023z"/>
<path fill="#222222" d="M365.36,50.661l8.094,17.647l8.728-20.472l8.792,20.472l7.998-17.647h7.998l-16.188,33.23l-8.601-19.899
	l-8.696,19.899l-16.154-33.23H365.36z"/>
</svg>
