<?xml version="1.0" encoding="utf-8"?>
<!-- Generator: Adobe Illustrator 17.0.2, SVG Export Plug-In . SVG Version: 6.00 Build 0)  -->
<!DOCTYPE svg PUBLIC "-//W3C//DTD SVG 1.1//EN" "http://www.w3.org/Graphics/SVG/1.1/DTD/svg11.dtd">
<svg version="1.1" id="Layer_1" xmlns="http://www.w3.org/2000/svg" xmlns:xlink="http://www.w3.org/1999/xlink" x="0px" y="0px"
	 width="96.378px" height="48.039px" viewBox="0 0 96.378 48.039" enable-background="new 0 0 96.378 48.039" xml:space="preserve">
<g id="GUIDES">
</g>
<path fill="#1D1D1B" d="M0,0h96.378v48.039H0V0z M54.479,17.116c1.73,0,3.029,0.558,3.532,1.688
	c0.166,0.041,0.335,0.085,0.496,0.139l0.16,0.05c0.656,0.203,1.235,0.386,2.153,0.865l0.001,0.003
	c-0.272-3.298-2.919-4.39-5.901-4.39c-2.331,0-4.223,0.652-5.199,1.132l0.661,1.477C51.327,17.654,52.839,17.116,54.479,17.116z
	 M58.013,18.807c-0.001-0.001-0.002-0.002-0.002-0.004h-0.002L58.013,18.807z M32.382,26.773c-0.254,0.906-0.348,1.844-0.348,1.844
	H31.97c0,0-0.125-0.938-0.379-1.816l-3.34-10.978h-2.398l-3.434,10.978c-0.314,1.051-0.412,1.816-0.412,1.816h-0.061
	c0,0-0.064-0.766-0.348-1.816c0,0-3.041-11.236-3.045-11.255c-1.295,0.182-2.575,0.846-2.575,0.846l4.644,14.722h2.396l3.496-10.924
	c0.317-0.935,0.412-1.786,0.412-1.786h0.033c0,0,0.062,0.852,0.344,1.786l3.438,10.924h2.392l4.855-15.291h-2.521L32.382,26.773z
	 M47.476,15.568c-4.033-0.087-5.644,0.31-7.313,1.077v14.468h2.774V17.752c0.914-0.541,2.489-0.655,3.88-0.284L47.476,15.568z
	 M64.985,27.34v9.617h2.727v-8.154c-0.096-0.039-0.191-0.076-0.287-0.117C66.65,28.346,65.85,27.904,64.985,27.34z M64.985,22.654
	l0.433,0.329c0.745,0.583,1.529,1.186,2.294,1.722v-6.452c1.535-2.074,4.486-2.097,4.486-2.097c3.355,0,6.56,2.88,6.56,5.913
	s-2.419,5.873-4.843,5.873c-2.035,0-4.057-0.916-6.203-2.359c-0.885-0.596-1.782-1.282-2.73-2.024l-1.348-1.022
	c-1.042-0.759-1.91-1.364-2.79-1.854c-1.159-0.642-1.739-0.806-2.552-1.062c-0.89-0.281-1.797-0.364-2.67-0.285
	c-1.017,0.094-2.572,0.306-5.091,1.394l-0.347,0.155c-1.889,0.914-4.549,2.788-4.395,5.654c0.15,2.865,2.899,5.33,7.236,5.33
	c7.76,0,9.923-5.971,9.924-5.973c-0.217-0.166-0.582-0.467-0.762-0.613c-0.377,0.854-0.854,1.578-1.345,2.18v-3.224
	c-0.065-0.047-0.13-0.099-0.194-0.143c-0.928-0.649-1.853-1.151-2.412-1.451v7.086c-0.001,0-0.002,0.002-0.002,0.002
	c-0.42,0.242-1.735,0.834-3.305,0.834c-2.731,0.146-6.362-1.418-6.554-4.979c-0.153-2.85,1.877-5.088,4.655-5.235
	c0.205-0.018,0.386-0.011,0.386-0.011c1.515,0,3.114,0.566,4.825,1.494c0.426,0.23,1.627,0.841,2.816,1.671
	c0.483,0.338,0.952,0.721,1.432,1.104l1.125,0.86c0.458,0.361,0.92,0.703,1.383,1.02c0.903,0.615,1.802,1.141,2.713,1.541
	c1.27,0.557,2.539,0.881,3.785,0.881c1.064,0,2.945-0.385,4.778-1.113c3.354-1.338,5.095-3.791,5.095-6.728
	s-3.227-5.599-7.195-5.599c-1.012,0-1.768,0.082-2.429,0.19c-0.149,0.022-0.296,0.048-0.443,0.079
	c-1.362,0.281-2.58,0.838-3.591,1.569v-1.82c-1.142,0.197-2.042,0.516-2.727,0.874v6.289"/>
</svg>
