<?xml version="1.0" standalone="no"?>
<!DOCTYPE svg PUBLIC "-//W3C//DTD SVG 20010904//EN"
 "http://www.w3.org/TR/2001/REC-SVG-20010904/DTD/svg10.dtd">
<svg version="1.0" xmlns="http://www.w3.org/2000/svg"
 width="329.000000pt" height="329.000000pt" viewBox="0 0 329.000000 329.000000"
 preserveAspectRatio="xMidYMid meet">
<metadata>
Created by potrace 1.11, written by Peter Selinger 2001-2013
</metadata>
<g transform="translate(0.000000,329.000000) scale(0.100000,-0.100000)"
fill="#000000" stroke="none">
<path d="M1403 3195 c-3 -9 9 -52 26 -95 65 -164 90 -332 71 -469 -30 -222
-121 -401 -325 -641 -98 -115 -168 -216 -240 -343 -33 -59 -63 -107 -66 -107
-12 0 -87 165 -113 248 -14 45 -33 138 -42 205 -17 132 -23 150 -47 155 -38 8
-192 -275 -243 -443 -36 -123 -45 -370 -19 -526 64 -387 272 -721 575 -926
102 -69 319 -163 376 -163 34 0 36 24 4 92 -48 104 -64 180 -64 313 -1 100 4
136 26 215 30 107 100 278 160 390 52 97 201 340 208 340 7 0 156 -243 208
-340 60 -112 130 -283 160 -390 22 -79 27 -115 26 -215 0 -134 -15 -208 -66
-317 -16 -36 -27 -71 -24 -77 19 -29 145 7 300 87 343 176 625 564 686 943 17
103 10 420 -9 443 -24 28 -39 18 -94 -66 -71 -109 -155 -207 -216 -252 -27
-20 -51 -36 -53 -36 -3 0 -8 51 -12 112 -29 467 -180 873 -465 1253 -143 190
-386 421 -597 568 -83 58 -120 70 -131 42z"/>
</g>
</svg>
