
<svg version="1.1" id="Layer_1" xmlns="http://www.w3.org/2000/svg" xmlns:xlink="http://www.w3.org/1999/xlink" x="0px" y="0px"
	 width="283.465px" height="263.621px" viewBox="0 0 283.465 263.621" enable-background="new 0 0 283.465 263.621"
	 xml:space="preserve">
<g>
	<path fill="#1D1D1B" d="M265.291,50.105l0.647-0.272c0.798-1.905,1.363-3.316,1.771-4.395c-0.498,0.097-1.003,0.215-1.527,0.393
		c-0.713,1.099-1.529,2.379-2.373,3.666c-4.015,11.323-8.137,20.868-12.045,29.978C257.047,69.765,262.119,60.144,265.291,50.105z"
		/>
	<path fill="#1D1D1B" d="M254.507,54.054c-0.113,0.435-0.222,0.882-0.349,1.321c0.85-1.155,1.712-2.3,2.603-3.424
		C255.99,52.635,255.247,53.323,254.507,54.054z"/>
	<path fill="#1D1D1B" d="M255.511,56.986c-1.143,1.577-2.173,3.221-3.246,4.839c-0.11,0.371-0.222,0.744-0.332,1.114
		c1.072-1.797,2.166-3.592,3.299-5.379L255.511,56.986z"/>
	<path fill="#1D1D1B" d="M268.904,69.194c0.401-1.325,0.832-2.631,1.23-3.955c-1.218,2.175-2.425,4.28-3.627,6.331
		C267.328,70.793,268.124,70.002,268.904,69.194z"/>
	<path fill="#1D1D1B" d="M247.771,82.034c2.327-5.841,4.648-11.712,7.084-17.495c0.332-0.893,0.662-1.801,0.987-2.699
		c-0.464,0.787-0.923,1.557-1.392,2.363c-2.339,5.273-4.922,10.5-7.626,15.709C247.203,80.587,247.52,81.291,247.771,82.034z"/>
	<path fill="#1D1D1B" d="M277.013,55.677c-0.139,1.059-0.445,2.146-0.886,3.258c0.652-1.609,1.059-3.184,1.035-4.667
		c0-0.305-0.039-0.608-0.073-0.915c-0.342,0.542-0.688,1.081-1.02,1.61c-0.381,1.463-0.771,2.926-1.16,4.379
		c0.304-0.617,0.6-1.237,0.957-1.865C276.127,56.906,276.561,56.291,277.013,55.677z"/>
	<path fill="#1D1D1B" d="M273.26,53.962c0.512-1.971,0.962-3.968,1.432-5.954c-0.772-0.897-1.55-1.514-2.357-1.95
		c-0.98,4.503-2.424,8.898-3.566,13.408c-0.412,1.273-0.828,2.53-1.233,3.8C269.306,60.14,271.176,57.02,273.26,53.962z"/>
	<path fill="#1D1D1B" d="M230.761,75.557c0.747-0.68,1.575-1.206,2.475-1.547c2.183-5.582,4.303-11.16,6.618-16.598
		c-0.055-2.017-0.159-4.018-0.304-6.046c-0.137,0.335-0.274,0.669-0.413,1.006c-0.907,2.355-1.805,4.721-2.679,7.087
		C234.56,64.82,232.659,70.19,230.761,75.557z"/>
	<path fill="#1D1D1B" d="M243.113,67.822c0,0,0.312-0.458,0.81-1.17C243.409,67.377,243.113,67.822,243.113,67.822z"/>
	<path fill="#1D1D1B" d="M222.617,90.541c1.184-3.406,2.367-6.815,3.557-10.221c-0.542,1.138-1.088,2.278-1.631,3.414l-1.333,4.383
		l0.644-2.942c-0.722,2.005-1.465,3.997-2.2,5.996C222.029,90.94,222.299,90.754,222.617,90.541z"/>
	<path fill="#1D1D1B" d="M223.711,77.106c0.346,0.129,0.588,0.222,0.588,0.222S224.077,77.244,223.711,77.106z"/>
	<path fill="#1D1D1B" d="M239.977,66.871c0-2.926-0.025-6.164-0.123-9.454C239.951,60.707,239.977,63.95,239.977,66.871z"/>
	<path fill="#1D1D1B" d="M257.303,79.044c0.061-0.167,0.122-0.328,0.183-0.491l6.644-17.921c-2.985,6.998-6.328,13.73-9.685,20.394
		C255.282,80.47,256.251,79.796,257.303,79.044z"/>
	<path fill="#1D1D1B" d="M248.922,63.017c0.531-1.554,1.029-3.107,1.522-4.662c-2.976,3.42-5.289,6.565-6.468,8.226
		c-0.679,1.261-1.353,2.53-2.037,3.793c-0.432,1.307-0.914,2.624-1.368,3.931c0.415,0.174,0.826,0.369,1.229,0.596
		C244.124,70.88,246.463,66.881,248.922,63.017z"/>
	<path fill="#1D1D1B" d="M244.129,76.499c0.429-1.184,0.857-2.359,1.282-3.542c-0.604,1.074-1.167,2.151-1.763,3.223
		c0.152,0.124,0.305,0.246,0.452,0.37C244.11,76.535,244.119,76.516,244.129,76.499z"/>
	<path fill="#1D1D1B" d="M276.106,100.848c0.475-1.659,1.001-3.358,1.577-5.074c-0.21-0.279-0.463-0.554-0.694-0.827
		c-0.652,2.574-1.299,5.151-1.963,7.712C275.391,102.04,275.751,101.441,276.106,100.848z"/>
	<path fill="#1D1D1B" d="M135.489,191.091c0.818,0,1.469-0.426,2.146-1.729c0.663-1.352,1.102-2.901,1.301-4.674l0.235-2.095
		c-0.087-1.2-0.318-2.287-0.692-3.253c-0.387-1.016-0.841-1.871-1.35-2.567c-1.062-1.466-2.235-2.606-3.512-3.425
		c-1.287-0.842-2.494-1.299-3.622-1.421c-2.382-0.254-4.531,0.479-6.623,2.331c-2.088,1.874-3.228,4.027-3.518,6.549
		c-0.266,2.47,0.405,4.466,2.078,6.222c1.95,2.057,5.087,3.374,9.45,3.864L135.489,191.091z"/>
	<path fill="#1D1D1B" d="M183.299,174.063c-0.896-1.085-1.787-1.652-2.703-1.827l-0.812,0.026c-0.86,0.023-1.924,0.57-3.125,1.809
		c-1.02,1.057-2.169,2.686-3.414,4.87l12.305-1.26C184.831,176.216,184.076,175.008,183.299,174.063z"/>
	<path fill="#1D1D1B" d="M216.238,38.464c0.217-0.496,0.46-0.994,0.665-1.482c-0.046,0.062-0.1,0.134-0.152,0.193
		C216.573,37.605,216.4,38.029,216.238,38.464z"/>
	<path fill="#1D1D1B" d="M197.955,218.881c-0.843-1.091-1.698-1.672-2.594-1.866l-0.747-0.004h-0.012
		c-0.851,0.004-1.903,0.5-3.114,1.671c-1.033,1.003-2.207,2.55-3.485,4.641l12.03-0.834
		C199.38,221.033,198.679,219.831,197.955,218.881z"/>
	<path fill="#1D1D1B" d="M222.954,100.164c0.362-0.684,0.729-1.376,1.091-2.062c0.498-1.419,1.006-2.833,1.504-4.258
		c-1.006,1.834-2.029,3.663-3.057,5.485c-0.574,1.663-1.155,3.323-1.718,4.986L222.954,100.164z"/>
	<path fill="#1D1D1B" d="M68.457,153.078c0.237,0.994,0.589,1.697,1.003,2.115c0.4,0.41,0.737,0.552,1.102,0.556
		c0.039,0,0.074,0,0.098-0.004c0.472-0.039,0.931-0.307,1.418-0.959c0.461-0.625,0.789-1.518,0.936-2.644l0,0l0.008-0.933
		c-0.074-0.878-0.356-1.442-0.841-1.832c-0.477-0.375-0.953-0.54-1.516-0.54c-0.063,0-0.131,0.005-0.198,0.006
		c-0.813,0.078-1.378,0.376-1.869,1.03c0.067,0.032,0.133,0.073,0.194,0.13c0.176,0.166,0.232,0.377,0.242,0.552l0.004,0.075
		l-0.008,0.039c-0.012,0.055,0,0.213-0.139,0.4c-0.19,0.244-0.308,0.431-0.349,0.523c-0.123,0.223-0.186,0.484-0.186,0.792
		c0,0.051,0.005,0.109,0.009,0.164C68.384,152.778,68.418,152.951,68.457,153.078z"/>
	<path fill="#1D1D1B" d="M104.839,235.863h0.714c2.229,0,4.939-0.833,8.087-2.585c3.753-2.093,5.408-4.31,5.399-6.635l0.003-0.003
		l0.004-6.479c-0.033-0.363-0.087-0.477-0.561-0.718c-0.511-0.231-1.391-0.38-2.596-0.379c-2.104-0.001-4.232,0.354-6.406,1.055
		c-2.164,0.697-3.649,1.599-4.497,2.616c-1.916,2.275-2.837,4.704-2.843,7.385C102.158,232.712,103.028,234.533,104.839,235.863z"/>
	<path fill="#1D1D1B" d="M189.055,69.047c-0.551,0.007-1.008,0.064-1.511,0.099c-1.052,2.299-2.069,4.561-2.349,5.665
		c-0.2,0.361-0.392,0.725-0.588,1.085c1.771-2.235,3.465-4.523,5.17-6.799C189.549,69.093,189.281,69.047,189.055,69.047z"/>
	<path fill="#1D1D1B" d="M194.981,87.244c-0.374,0.88-0.775,1.816-1.195,2.764c2.325-2.914,4.53-5.928,6.706-8.945
		c1.214-3.235,2.459-6.556,3.693-9.867c-0.069-0.015-0.144-0.028-0.215-0.048C200.707,77.255,197.517,82.855,194.981,87.244z"/>
	<path fill="#1D1D1B" d="M278.396,96.866c-0.108,0.295-0.232,0.589-0.341,0.891c0.163-0.242,0.32-0.458,0.482-0.687
		C278.493,97.003,278.442,96.934,278.396,96.866z"/>
	<path fill="#1D1D1B" d="M194.801,94.61c0.293-0.72,0.589-1.436,0.87-2.116c-0.44,0.63-0.909,1.263-1.393,1.903
		C194.462,94.457,194.624,94.549,194.801,94.61z"/>
	<path fill="#1D1D1B" d="M200.739,70.444c-0.125-0.021-0.252-0.056-0.374-0.08c-3.135,4.743-6.268,9.499-9.294,14.345
		c-1.327,2.03-2.584,4.108-3.813,6.206c0.65,0.438,1.373,0.8,2.069,1.191c2.713-4.496,5.054-9.204,7.446-13.834
		C198.104,75.671,199.42,73.056,200.739,70.444z"/>
	<path fill="#1D1D1B" d="M196.804,69.798c-0.889-0.131-1.797-0.32-2.66-0.419c-2.475,5.355-4.938,10.73-7.287,16.186
		c-0.159,0.352-0.298,0.708-0.457,1.064c2.604-4.203,5.121-8.256,7.124-11.999C194.559,73.078,195.694,71.426,196.804,69.798z"/>
	<path fill="#1D1D1B" d="M182.919,87.213c0.849-1.986,1.702-3.984,2.477-5.881c-1.16,1.517-2.376,2.997-3.645,4.446
		C182.118,86.267,182.499,86.75,182.919,87.213z"/>
	<path fill="#1D1D1B" d="M193.777,94.187c-1.35-0.506-2.651-1.101-3.892-1.763C191.126,93.086,192.423,93.681,193.777,94.187z"/>
	<path fill="#1D1D1B" d="M271.382,111.145l0.066-0.262c-0.069,0.067-0.154,0.167-0.235,0.252
		C271.269,111.134,271.326,111.145,271.382,111.145z"/>
	<path fill="#1D1D1B" d="M253.03,85.975c-0.366,0.2-0.759,0.22-1.125,0.136c-2.171,4.328-4.301,8.657-6.298,13.028
		c-0.189-0.14-0.342-0.255-0.478-0.357c0.281,0.213,0.669,0.506,1.202,0.903c2.803-4.694,5.589-9.417,8.376-14.154
		c0.484-0.069,0.994-0.133,1.596-0.133C254.839,85.398,253.677,85.636,253.03,85.975z"/>
	<path fill="#1D1D1B" d="M255.729,105.773c0.035-0.075,0.069-0.147,0.1-0.222l-0.111,0.214
		C255.723,105.765,255.725,105.773,255.729,105.773z"/>
	<path fill="#1D1D1B" d="M252.784,100.652c0.41-1.429,0.816-2.856,1.243-4.295c-0.462,1.34-0.925,2.685-1.385,4.026
		C252.691,100.476,252.737,100.56,252.784,100.652z"/>
	<path fill="#1D1D1B" d="M263.026,86.547c-0.962-0.283-1.898-0.523-2.803-0.703c-1.516,4.675-3.038,9.346-4.51,14.044
		c2.087-3.797,4.168-7.589,6.232-11.404L263.026,86.547z"/>
	<path fill="#1D1D1B" d="M248.424,101.179c-0.595-0.414-1.109-0.785-1.585-1.124c0.513,0.371,1.08,0.778,1.737,1.236
		c-0.035-0.062-0.071-0.123-0.11-0.185C248.456,101.13,248.437,101.153,248.424,101.179z"/>
	<path fill="#1D1D1B" d="M239.669,101.874c1.234-2.875,2.386-5.828,3.571-8.741l0.005-0.005c-0.277,0.088-0.556,0.152-0.835,0.204
		C241.474,96.181,240.571,99.034,239.669,101.874z"/>
	<path fill="#1D1D1B" d="M238.989,77.328c-0.854-0.306-1.737-0.48-2.594-0.48c-2.452,0.137-4.29,1.023-5.042,4.325
		c-0.238,1.191-0.376,2.249-0.376,3.133c0.173,2.555,0.583,3.478,4.021,4.736c1.875,0.611,3.852,1.055,5.458,1.055
		c2.657-0.202,3.883-0.576,4.493-3.816c0.037-0.272,0.037-0.546,0.037-0.85C245.088,82.094,241.951,78.311,238.989,77.328z"/>
	<path fill="#1D1D1B" d="M270.403,89.765c-0.955-0.548-1.91-1.105-2.913-1.561c-1.124,2.229-2.259,4.484-3.38,6.708
		c-1.419,4.354-2.932,8.621-4.434,12.91c0.332,0.154,0.655,0.315,0.987,0.465c1.333-2.314,2.662-4.636,4.016-6.946
		C266.583,97.49,268.498,93.63,270.403,89.765z"/>
	<path fill="#1D1D1B" d="M275.799,104c-0.823,2.345-1.679,4.657-2.549,6.95c1.07-0.179,2.039-0.493,2.893-1.035
		c1.262-3.004,2.508-6.019,3.754-9.025c-0.144-0.915-0.388-1.824-0.796-2.705C277.975,100.111,276.858,102.044,275.799,104z"/>
	<path fill="#1D1D1B" d="M274.415,106.579c-0.27,0.519-0.53,1.036-0.801,1.556c-0.244,0.969-0.498,1.937-0.749,2.898
		c0.055-0.006,0.097-0.02,0.149-0.033l0.316-0.8L274.415,106.579z"/>
	<path fill="#1D1D1B" d="M237.843,117.142c1.247-2.539,2.271-5.339,2.987-8.361l-0.007,0.013
		C240.11,111.815,239.081,114.602,237.843,117.142z"/>
	<path fill="#1D1D1B" d="M263.958,109.606c0.52,0.179,1.013,0.302,1.525,0.456c0.378-1.815,1.137-4.258,1.762-6.857
		C266.168,105.352,265.054,107.462,263.958,109.606z"/>
	<path fill="#1D1D1B" d="M273.57,91.769c-0.888,2.456-1.758,4.91-2.546,7.37c-0.183-0.633-0.607-0.42-1.475,1.341
		c-1.07,3.271-2.115,6.562-3.146,9.862c1.241,0.338,2.45,0.607,3.594,0.71c0.764-1.166,1.562-2.476,2.379-3.855
		c1.142-4.512,2.274-9.027,3.396-13.542C275.096,93,274.369,92.365,273.57,91.769z"/>
	<path fill="#1D1D1B" d="M226.387,111.694c-0.332,0.821-0.655,1.642-0.987,2.467c2.425-4.179,4.837-8.342,7.158-12.513
		C230.495,104.995,228.444,108.343,226.387,111.694z"/>
	<path fill="#1D1D1B" d="M217.293,74.888c-0.062-0.021-0.136-0.042-0.205-0.062c-0.147,0.451-0.298,0.898-0.45,1.35
		c0.215-0.381,0.406-0.776,0.616-1.156C217.268,74.971,217.286,74.93,217.293,74.888z"/>
	<path fill="#1D1D1B" d="M205.482,94.49c-0.218,0.64-0.445,1.268-0.677,1.896c0.095-0.007,0.191-0.013,0.282-0.02
		c0.608-1.177,1.188-2.367,1.688-3.596c-0.515,1.405-0.515,1.409-0.369,1.559c0.21-0.426,0.445-0.817,0.657-1.238
		c0.75-2.304,1.502-4.607,2.23-6.923c-0.613,1.079-1.234,2.164-1.846,3.244C206.799,91.122,206.14,92.835,205.482,94.49z"/>
	<path fill="#1D1D1B" d="M208.527,75.243c-0.494,1.272-0.962,2.527-1.449,3.794c1.148-2.056,2.311-4.131,3.475-6.201
		c-0.061-0.016-0.115-0.032-0.174-0.046C209.761,73.611,209.141,74.439,208.527,75.243z"/>
	<path fill="#1D1D1B" d="M219.796,126.755l-2.293,4.984c-0.733-0.654-1.391-1.595-1.995-2.884c1.296,2.761,2.791,4.02,4.872,4.051
		c1.898,0.046,4.95-1.279,8.105-3.788c-1.645,1.306-3.262,2.285-4.703,2.915c0.014-0.042,0.037-0.078,0.053-0.125
		c-0.066-0.02-0.122-0.033-0.191-0.053l0.067-0.091l0.246-0.367c0.083-0.122,0.162-0.249,0.245-0.369l0.102-0.238
		c0.747-1.623,1.582-3.208,2.417-4.783c1.209-4.191,2.764-8.302,4.36-12.325l4.962-14.045c-4.208,7.328-8.549,14.641-12.86,21.987
		L219.796,126.755z"/>
	<path fill="#1D1D1B" d="M222.977,68.926c3.527-6.921,7.23-13.74,11.251-20.374c1.151-2.995,2.353-5.974,3.599-8.942
		c-0.106-0.391-0.205-0.795-0.316-1.168c-0.813,1.944-1.643,3.893-2.479,5.846c-3.949,8.217-7.963,16.452-11.995,24.438
		C223.017,68.791,222.993,68.863,222.977,68.926z"/>
	<path fill="#1D1D1B" d="M234.126,31.396l-0.735,1.522c0.311-0.431,0.632-0.83,0.947-1.225
		C234.265,31.596,234.2,31.484,234.126,31.396z"/>
	<path fill="#1D1D1B" d="M226.647,37.056c0.535-0.503,0.881-1.21,1.174-1.98c0.042-0.213,0.097-0.434,0.136-0.644l0.811-3.644
		l0.401-1.819l0.175-0.767c-0.442-0.105-0.886-0.224-1.363-0.26c-0.276-0.036-0.547-0.036-0.816-0.036
		c-0.104-0.001-0.196,0.032-0.295,0.032c-0.831,3.658-1.742,7.322-2.697,11.008c-1.617,5.31-3.257,10.629-4.918,15.906
		c0.2-0.288,0.406-0.567,0.606-0.854C221.941,48.276,224.145,42.602,226.647,37.056z"/>
	<path fill="#1D1D1B" d="M222.389,76.629c-0.761-0.272-1.746-0.619-2.872-1C220.643,76.013,221.628,76.357,222.389,76.629z"/>
	<path fill="#1D1D1B" d="M213.867,113.662c-0.062,0.884-0.12,1.762-0.146,2.641l1.816-5.236
		C214.988,111.94,214.423,112.798,213.867,113.662z"/>
	<path fill="#1D1D1B" d="M219.408,98.92c-0.632,0.809-1.186,1.743-1.746,2.647c-0.117,0.304-0.229,0.593-0.349,0.885
		c0.545-0.909,1.101-1.81,1.629-2.733C219.102,99.457,219.254,99.189,219.408,98.92z"/>
	<path fill="#1D1D1B" d="M211.254,92.554c0.71-1.433,1.426-2.866,2.129-4.298c0.235-0.818,0.471-1.639,0.708-2.461
		c-0.51,0.932-1.02,1.853-1.524,2.772C212.126,89.895,211.699,91.229,211.254,92.554z"/>
	<path fill="#1D1D1B" d="M217.393,121.947c-0.637,0.755-1.346,1.474-1.989,2.211l-0.698,0.751l-0.178,0.18
		c-0.076-0.052-0.127-0.091-0.173-0.121c0.002,0.015,0.007,0.03,0.007,0.05c0.276,0.229,0.759,0.611,0.025,0.086
		c0.134,0.615,0.261,1.238,0.427,1.8c0.678-1.176,1.354-2.367,2.034-3.543C217.03,122.893,217.21,122.417,217.393,121.947z"/>
	<path fill="#1D1D1B" d="M219.66,122.78c-0.381,0.634-0.755,1.272-1.136,1.905c-0.265,0.665-0.539,1.324-0.807,1.988l0.53-0.812
		L219.66,122.78z"/>
	<path fill="#1D1D1B" d="M223.44,77.006c-0.969,1.882-1.939,3.768-2.895,5.657c-1.368,2.715-2.752,5.42-4.125,8.127
		c-0.334,1.14-0.634,2.274-0.955,3.406c0.051-0.017,0.09-0.034,0.136-0.054c2.604-5.731,5.297-11.413,7.984-17.082
		C223.533,77.042,223.494,77.025,223.44,77.006z"/>
	<g>
		<g>
			<path fill="#1D1D1B" d="M52.364,228.473c0.712-0.603,1.461-0.88,2.315-0.883c0.58,0,1.058,0.152,1.497,0.458
				c0.419,0.297,0.737,0.754,0.947,1.43l1.485,4.509c0.063,0.4,0.208,0.795,0.457,1.104c0.196,0.252,0.454,0.466,0.778,0.509
				l0.012,0.007h0.135v-0.004h0.012c0.299-0.003,0.556-0.165,0.707-0.404c0.157-0.245,0.195-0.528,0.198-0.838
				c-0.003-0.349-0.069-0.698-0.198-1.067l-0.236,0.084l0.236-0.091l-1.837-5.122c-0.298-0.958-0.805-1.737-1.511-2.271
				c-0.694-0.516-1.501-0.794-2.369-0.79h-0.055c-1.106,0.004-2.15,0.412-3.07,1.171c-0.418,0.341-0.777,0.748-1.08,1.204
				c-0.043-0.04-0.088-0.079-0.135-0.117l-0.71-8.559c0-0.271-0.045-0.581-0.252-0.829c-0.173-0.211-0.433-0.338-0.716-0.338h-0.038
				c-0.008,0-0.017,0-0.025,0.001c-0.287,0.016-0.55,0.154-0.727,0.375c-0.211,0.229-0.3,0.537-0.3,0.854v0.021l0.08,0.439
				l-0.08,1.586v0.046c0,1.826,0.128,3.756,0.394,5.784l-3.305-0.533l0.331-3.947l0.075-0.337l0.003-0.005l0.009-0.092
				c0-0.295-0.071-0.583-0.273-0.807c-0.205-0.234-0.498-0.325-0.781-0.325c-0.002,0-0.007,0-0.021-0.004
				c-0.015-0.003-0.038-0.003-0.073,0.012c-0.28,0.008-0.569,0.104-0.771,0.338c-0.211,0.241-0.279,0.55-0.279,0.858l-0.249,4.047
				l-2.542-0.564l-0.301-0.032c-0.003-0.008-0.037-0.008-0.042-0.008c-0.22,0-0.45,0.036-0.644,0.178
				c-0.124,0.084-0.2,0.205-0.251,0.338c-0.028-0.283-0.081-0.534-0.229-0.755h-0.002c-0.173-0.27-0.464-0.463-0.8-0.463h-0.056
				c-0.312,0.011-0.605,0.172-0.771,0.451c-0.147,0.259-0.198,0.555-0.198,0.896c0,0,0,0.072,0.012,0.083l-0.21,8.146
				c0.004,0.425,0.034,0.76,0.195,1.043c0.128,0.25,0.378,0.439,0.684,0.458c0.02,0.007,0.034,0.007,0.043,0.007l0.02,0.004h0.034
				c0.351,0,0.677-0.176,0.866-0.462c0.183-0.3,0.238-0.643,0.238-1.03l0.196-7.737c0.159,0.396,0.6,0.646,1.087,0.788l2.551,0.626
				l-0.519,7.254c0.011,0.371,0.249,0.57,0.396,0.689c0.202,0.169,0.446,0.267,0.709,0.27c-0.002,0-0.003-0.001-0.005-0.001
				c0.002,0,0.004,0,0.006,0.001c0.008,0,0.016,0.004,0.024,0.004c-0.009,0-0.016-0.002-0.024-0.004
				c0.016,0.001,0.032,0.004,0.047,0.004h-0.014l0.01,0.003c0.013,0,0.022-0.003,0.034-0.007c0.453-0.015,0.775-0.352,0.904-0.75
				l0.045,0.004l0.014-0.249l0.031-0.189l-0.021-0.004l0.398-6.788l3.696,0.554c0.239,1.497,0.557,3.23,0.969,5.209
				c-0.004,0.392,0.08,0.788,0.311,1.094c0.19,0.271,0.498,0.489,0.864,0.489l0.014-0.007c0.316,0,0.609-0.17,0.77-0.438
				c0.152-0.261,0.194-0.554,0.194-0.886l0.004-0.472l-0.329-2.597c0.008-0.075,0.008-0.267,0.008-0.512
				C51.363,229.728,51.672,229.065,52.364,228.473z M69.556,176.289c1.949-0.396,3.751-0.208,5.461,0.545
				c1.683,0.748,3.096,2.118,4.242,4.214l7.508,13.13c0.453,1.22,1.096,2.245,1.932,2.947c0.791,0.66,1.633,1.04,2.504,0.87
				l0.038-0.006c0.648-0.138,1.194-0.621,1.415-1.25c0.245-0.651,0.224-1.404,0.046-2.301c-0.199-0.969-0.609-1.958-1.209-2.96
				l-9.002-14.835c-1.492-2.73-3.444-4.717-5.827-5.837c-2.36-1.118-4.863-1.421-7.426-0.896c-3.312,0.67-6.18,2.483-8.522,5.363
				c-1.733,2.117-2.88,4.617-3.444,7.476l-8.71-29.876c-0.175-0.851-0.473-1.56-1.058-2.029c-0.509-0.408-1.18-0.566-1.814-0.436
				c-0.712,0.137-1.305,0.609-1.668,1.257c-0.394,0.676-0.473,1.491-0.301,2.33l0.014,0.061l0.475,1.178l0.817,5.18
				c1.265,6.219,3.084,12.704,5.465,19.476c1.874,5.393,4.498,12.017,7.873,19.876c0.272,1.299,0.726,2.303,1.464,2.971
				c0.676,0.609,1.496,0.941,2.319,0.77c0.725-0.128,1.346-0.654,1.576-1.35c0.241-0.693,0.212-1.506,0.02-2.479l-0.297-1.476
				l-2.647-7.799c-0.064-0.333-0.181-0.931-0.342-1.704c-0.575-2.881,0.055-5.449,1.964-7.893
				C64.355,178.356,66.702,176.873,69.556,176.289z M38.276,221.636c-0.013,0-0.028-0.003-0.044-0.005
				c-0.385,0.005-0.655,0.271-0.791,0.551c-0.058,0.111-0.105,0.241-0.16,0.413l-0.008,0.032l-0.017,0.583
				c-0.006,0.445,0.107,0.972,0.64,1.136l0.053,0.016l0.196,0.007c0.413-0.007,0.708-0.291,0.849-0.618
				c0.114-0.24,0.18-0.519,0.196-0.809h0.007v-0.134l-0.004-0.015c0-0.316-0.065-0.645-0.314-0.875
				C38.73,221.773,38.526,221.647,38.276,221.636z M50.027,208.489l0.022-0.008c1.512-0.481,2.769-1.279,3.686-2.404
				c0.889-1.079,1.533-2.324,1.927-3.716c0.047-0.242,0.073-0.522,0.121-0.967l0.013-0.139l-0.047-0.146
				c-0.032-0.103-0.073-0.242-0.128-0.402c-0.239-0.766-0.668-1.431-1.271-1.955c-0.595-0.55-1.415-0.814-2.175-0.562
				c-0.963,0.333-1.411,1.249-1.699,2.404c-0.585,2.092-1.605,3.225-3.153,3.73c-1.14,0.36-2.703,0.349-4.684-0.122
				c-1.993-0.471-4.33-1.315-6.99-2.546c-1.201-0.536-2.095-1.171-2.727-1.891c-0.642-0.747-1.129-1.631-1.47-2.697
				c-0.592-1.898-0.406-3.625,0.594-5.384c0.997-1.729,2.595-2.952,4.938-3.699c2.181-0.688,4.562-0.783,7.169-0.283
				c1.032,0.194,1.891,0.216,2.621-0.013c0.357-0.112,0.704-0.292,0.946-0.646c0.249-0.347,0.262-0.823,0.139-1.175
				c-0.223-0.714-0.837-1.184-1.569-1.451l-0.243,0.676l0.173-0.697c-2.271-0.573-4.325-0.841-6.167-0.791
				c-1.832,0.051-3.625,0.35-5.383,0.905c-3.186,1.005-5.598,2.729-7.111,5.166c-1.521,2.427-1.872,5.092-1.009,7.776
				c0.437,1.383,1.302,2.756,2.554,4.133c1.265,1.403,2.834,2.582,4.702,3.543c3.629,1.827,6.851,3.006,9.692,3.539
				C45.946,209.132,48.128,209.088,50.027,208.489z M58.618,147.971c-0.025,0.004-0.079-0.006-0.154,0.016
				c-0.162,0.011-0.384,0.066-0.557,0.245c-0.151,0.149-0.211,0.354-0.211,0.537c0,0.025,0,0.062,0.005,0.104
				c0.06,0.608,0.58,0.972,1.214,1.179l1.345,0.42l0.596,7.37c0.028,0.353,0.087,0.653,0.243,0.907
				c0.141,0.242,0.417,0.408,0.716,0.414v-0.006h0.08c0.337-0.027,0.556-0.277,0.678-0.52c0.118-0.225,0.164-0.475,0.164-0.747
				l0.013-0.001l-0.026-0.275l-0.007-0.128h-0.006l-0.645-6.738l2.713,0.665c0.207,0.054,0.404,0.081,0.598,0.081
				c0.055,0,0.103-0.004,0.152-0.004c0.186-0.017,0.376-0.062,0.54-0.187c0.172-0.13,0.253-0.332,0.256-0.526l-0.003-0.04
				c-0.034-0.371-0.25-0.646-0.51-0.855c-0.291-0.221-0.649-0.364-1.079-0.472l-0.05,0.195l0.046-0.195l-2.818-0.642
				c-0.006-0.112-0.006-0.23-0.006-0.346c0-0.705,0.07-1.604,0.217-2.665c0.118-0.875,0.268-1.531,0.422-1.936
				c0.064-0.172,0.13-0.291,0.183-0.362l0.022,0.026l0.063-0.062c0.002,0.007,0.006,0.009,0.009,0.012
				c0.066,0.058,0.159,0.154,0.259,0.313c0.23,0.332,0.501,0.909,0.775,1.719l0.014,0.029l0.024,0.048
				c0.312,0.512,0.646,0.938,1.19,0.944v-0.013c0.557-0.069,0.691-0.528,0.678-0.869c0-0.059-0.005-0.11-0.005-0.143
				c-0.02-0.259-0.082-0.525-0.172-0.816c-0.093-0.285-0.219-0.617-0.382-0.998c-0.708-1.457-1.516-2.346-2.578-2.356
				c-0.029,0-0.079-0.004-0.151,0.014c-0.959,0.09-1.583,0.969-1.987,2.277c-0.286,0.929-0.424,2.072-0.424,3.44
				c0,0.436,0.01,0.895,0.038,1.38l-0.978-0.335C58.979,148.016,58.803,147.971,58.618,147.971z M33.267,235.903
				c0.165,0.086,0.334,0.095,0.487,0.099c0.003,0,0.038-0.004,0.038-0.004c0.156,0,0.304-0.028,0.444-0.091
				c0.066-0.038,0.126-0.081,0.175-0.135l0.177-0.466c0.014-0.343,0.301-1.671,0.872-3.72c0.589-2.189,0.89-3.588,0.899-4.34
				l-0.026-0.294v0.008c-0.013-0.184-0.083-0.339-0.263-0.461h0.001c-0.145-0.094-0.305-0.113-0.42-0.109
				c0.014-0.004-0.012-0.004-0.051-0.004c-0.338-0.014-0.805,0.166-0.854,0.666c-0.224,1.041-0.454,2.129-0.665,3.208
				c-0.186,0.925-0.351,1.783-0.496,2.562c-0.201-0.328-0.441-0.682-0.725-1.079c-0.859-1.178-1.518-2.091-1.962-2.716
				c-0.22-0.312-0.39-0.549-0.503-0.721c-0.061-0.079-0.103-0.143-0.132-0.184l-0.019-0.025c-0.119-0.305-0.403-0.492-0.713-0.5
				h-0.015c-0.013-0.002-0.033-0.002-0.067,0.008c-0.158,0.004-0.315,0.025-0.471,0.106c-0.208,0.099-0.352,0.302-0.355,0.557
				c0,0-0.01,0.055,0.029,0.126c-0.025,0.628-0.233,1.758-0.659,3.232c-0.111,0.381-0.216,0.723-0.309,1.009
				c-0.35-2.181-0.695-4.367-1.037-6.562c-0.049-0.463-0.325-0.975-0.881-1.009c-0.013-0.002-0.029-0.004-0.049-0.004
				c-0.249,0.004-0.473,0.13-0.588,0.366c-0.085,0.155-0.111,0.335-0.111,0.515c0,0,0,0.045,0.009,0.074l-0.009,0.304
				c0,1.411,0.131,3.045,0.399,4.903c0.27,1.864,0.646,3.311,1.164,4.352l0.015,0.036l0.119,0.117
				c0.07,0.058,0.14,0.104,0.202,0.142c0.159,0.082,0.323,0.123,0.489,0.123l0.015,0.006c0.351,0,0.652-0.161,0.825-0.438
				c0.39-0.554,0.732-1.372,1.062-2.474c0.245-0.806,0.462-1.664,0.653-2.572c0.742,0.946,1.293,1.675,1.655,2.205
				c0.902,1.286,1.32,2.259,1.308,2.607c0.002,0-0.004,0.024,0,0.054C32.94,235.61,33.069,235.793,33.267,235.903z M231.247,215.103
				c-0.118-0.298-0.242-0.555-0.388-0.775c-0.768-1.128-1.748-1.971-2.906-2.487c-1.117-0.509-2.367-0.755-3.698-0.755
				c-1.91,0-4.002,0.462-6.298,1.355c-1.885,0.719-3.596,1.62-5.118,2.683c-0.831,0.761-1.671,1.521-2.594,2.325
				c-0.874,0.994-1.106,2.494-1.125,4.673l-0.582,18.583c0.007,1.455,0.144,2.566,0.506,3.411c0.327,0.833,1.082,1.464,1.975,1.449
				h0.056c0.934,0,1.773-0.545,2.198-1.402c0.449-0.863,0.622-1.995,0.632-3.441l0.005-17.535c0.004-1.72,0.812-3.241,2.625-4.691
				c1.827-1.441,3.7-2.129,5.68-2.136c0.361,0,1.331,0.157,2.729,0.474c1.456,0.334,2.484,0.504,3.204,0.51
				c0.893-0.006,1.578-0.069,2.139-0.261c0.533-0.158,1.104-0.635,1.094-1.311v-0.088l-0.021-0.079
				c-0.027-0.108-0.043-0.184-0.048-0.229l-0.01-0.015v-0.133L231.247,215.103z M185.35,226.844
				c0.879,0.104,2.157,0.146,3.932,0.146c0.219,0.004,0.532,0.004,0.927,0c2.279,0.007,4.821-0.105,7.634-0.332
				c2.826-0.224,4.777-0.526,5.986-0.964l0.461-0.162v-1.163c-0.004-2.017-0.727-4.22-2.108-6.637
				c-1.78-3.14-4.189-4.893-7.065-4.883c-2.113-0.006-4.27,0.895-6.471,2.576c-3.276,2.456-5.703,6.224-7.295,11.24
				c-0.334,0.891-0.546,1.608-0.618,2.19c-0.06,0.522-0.09,1.254-0.09,2.22c-0.005,3.846,1.338,7.242,3.968,10.046
				c2.616,2.793,5.853,4.242,9.539,4.242h0.032c1.301,0.001,2.586-0.191,3.855-0.574c1.26-0.379,2.476-0.946,3.639-1.696
				c0.945-0.482,1.665-1.143,1.684-2.116l-0.002-0.296l-0.084-0.086v-0.156l-0.198-0.204c-0.307-0.316-0.749-0.464-1.165-0.459
				c-0.673,0.005-1.425,0.213-2.366,0.597c-0.775,0.318-1.839,0.495-3.177,0.495c-2.906-0.008-5.34-0.746-7.398-2.222
				c-2.602-1.886-3.889-4.624-3.9-8.494c-0.002-0.876,0.027-1.535,0.081-1.922C185.147,228.106,185.212,227.613,185.35,226.844z
				 M191.488,218.682c1.211-1.171,2.264-1.667,3.114-1.671h0.012l0.747,0.004c0.895,0.194,1.751,0.775,2.594,1.866
				c0.724,0.95,1.425,2.152,2.078,3.607l-12.03,0.834C189.281,221.231,190.455,219.685,191.488,218.682z M216.546,180.394
				c-0.086-2.886-0.999-5.329-2.729-7.191c-1.73-1.884-4.025-2.812-6.66-2.713c-1.446,0.043-2.94,0.458-4.473,1.199
				c-1.522,0.739-2.987,1.771-4.406,3.093l-1.848,1.005c-1.455,0.328-2.556,1.309-2.478,2.675l0.227,1.55l0.788,6.579
				c-0.348,0.537-0.459,1.215-0.431,1.97c0.016,0.476,0.066,0.863,0.219,1.226c0.058,0.174,0.198,0.375,0.393,0.521l1.331,10.412
				c0.212,1.564,0.786,2.869,2.191,2.885c0.016,0,0.03,0.006,0.046,0c0.554-0.016,1.112-0.348,1.373-0.84
				c0.278-0.498,0.346-1.066,0.329-1.738l-1.513-20.79c1.653-1.404,3.299-2.525,4.932-3.375c1.712-0.88,3.241-1.328,4.596-1.366
				c1.34-0.029,2.247,0.345,2.976,1.15c0.696,0.783,1.16,2.209,1.221,4.309l0.478,14.746c0.036,1.042,0.143,1.854,0.369,2.479
				c0.189,0.604,0.703,1.225,1.467,1.2c1.003-0.115,1.343-0.914,1.656-1.824c0.316-0.992,0.427-2.215,0.383-3.703L216.546,180.394z
				 M144.288,235.42l-0.129,1.721c-0.076,1.047-0.061,1.855,0.102,2.503c0.124,0.617,0.569,1.298,1.335,1.35
				c1.011-0.002,1.436-0.773,1.837-1.641c0.417-0.952,0.664-2.155,0.774-3.639l0.99-13.422c0.217-2.885-0.425-5.408-1.954-7.453
				c-1.522-2.047-3.698-3.208-6.334-3.396c-1.44-0.104-2.964,0.15-4.573,0.726c-1.593,0.566-3.157,1.445-4.703,2.604l-1.955,0.812
				c-1.481,0.171-2.668,1.022-2.743,2.388l0.061,1.562l0.097,20.838c0.044,1.579,0.479,2.938,1.871,3.1
				c0.02,0,0.039,0.002,0.06,0.005c0.541,0.045,1.129-0.225,1.443-0.686c0.325-0.464,0.462-1.023,0.512-1.693l0.691-20.825
				c1.798-1.232,3.55-2.173,5.269-2.84c1.791-0.698,3.368-0.977,4.718-0.878c1.331,0.113,2.191,0.588,2.83,1.468
				c0.609,0.85,0.918,2.308,0.762,4.399L144.288,235.42z M99.413,195.978c0.016,0,0.03-0.005,0.048-0.007
				c0.915-0.207,1.67-0.839,1.973-1.713c0.314-0.877,0.27-1.92-0.001-3.162h0.002l-4.677-23.476
				c-0.301-1.323-0.733-2.318-1.428-2.984c-0.643-0.617-1.502-0.926-2.339-0.729c-0.814,0.16-1.496,0.756-1.743,1.542
				c-0.262,0.778-0.211,1.683,0.026,2.758l4.804,24.052c0.316,1.362,0.664,2.322,1.256,2.98
				C97.849,195.827,98.645,196.169,99.413,195.978z M132.918,195.359c1.19,0.13,2.093,0.13,2.814-0.092
				c0.664-0.213,1.502-0.657,2.644-1.353c1.701-1.034,3.001-2.366,3.839-3.997c0.823-1.595,1.347-3.513,1.596-5.75
				c-0.364-7.027-0.706-13.93-1.018-20.822l-0.311-10.125l-0.016-0.073c-0.387-1.758-1.322-3.058-2.817-3.224
				c-0.652-0.085-1.357,0.15-1.776,0.662c-0.419,0.509-0.613,1.161-0.704,1.951l-0.006,0.857l1.98,18.312
				c-0.888-1.025-1.84-1.858-2.854-2.487c-1.636-1-3.454-1.619-5.431-1.84c-3.545-0.4-6.88,0.58-9.874,2.874
				c-3.005,2.29-4.765,5.313-5.163,8.933l-0.113,1.021c-0.401,3.541,0.173,6.43,1.851,8.536c2.268,2.823,6.564,4.853,12.881,6.338
				L132.918,195.359z M119.854,180.807c0.29-2.521,1.43-4.675,3.518-6.549c2.092-1.852,4.241-2.585,6.623-2.331
				c1.128,0.122,2.334,0.579,3.622,1.421c1.277,0.818,2.45,1.959,3.512,3.425c0.509,0.696,0.963,1.552,1.35,2.567
				c0.373,0.966,0.605,2.053,0.692,3.253l-0.235,2.095c-0.199,1.772-0.638,3.322-1.301,4.674c-0.676,1.304-1.328,1.729-2.146,1.729
				l-4.107-0.198c-4.362-0.49-7.499-1.808-9.45-3.864C120.259,185.273,119.588,183.276,119.854,180.807z M150.855,197.823
				c0.023,0.003,0.042,0.003,0.058,0.003c0.99-0.036,1.851-0.646,2.27-1.558c0.442-0.916,0.593-2.117,0.544-3.638l-0.595-18.484
				c-0.049-1.819,0.742-3.441,2.609-5.029c1.882-1.586,3.826-2.375,5.907-2.447c0.383-0.013,1.4,0.11,2.895,0.403
				c1.548,0.302,2.632,0.449,3.391,0.429c0.939-0.029,1.663-0.13,2.245-0.35c0.554-0.188,1.142-0.704,1.107-1.425l-0.004-0.097
				l-0.019-0.079c-0.035-0.111-0.054-0.185-0.064-0.237l-0.012-0.013l-0.005-0.138l-0.056-0.131
				c-0.136-0.31-0.274-0.574-0.436-0.798c-0.854-1.163-1.91-2.021-3.145-2.521c-1.206-0.496-2.521-0.716-3.929-0.67
				c-2.009,0.066-4.203,0.621-6.579,1.638c-1.975,0.825-3.746,1.83-5.312,3.004c-0.847,0.83-1.704,1.653-2.645,2.545
				c-0.889,1.079-1.084,2.658-1.029,4.963l0.028,19.589c0.055,1.536,0.237,2.706,0.641,3.577
				C149.104,197.235,149.912,197.883,150.855,197.823z M107.642,137.985c-0.372-0.691-1.12-1.122-1.896-1.105
				c-0.926-0.012-1.728,0.551-2.196,1.375c-0.516,0.866-0.709,2.01-0.712,3.449l4.182,47.519c-0.003,1.437,0.249,2.667,0.807,3.637
				c0.518,0.913,1.269,1.575,2.228,1.569h0.025c0.78-0.004,1.433-0.515,1.811-1.215c0.424-0.737,0.586-1.684,0.586-2.838
				l-0.177-1.941l-4.199-46.812l0.074-0.971C108.166,139.533,108.022,138.672,107.642,137.985z M180.316,201.324
				c1.331-0.039,2.646-0.275,3.931-0.713c1.27-0.431,2.487-1.055,3.649-1.854c0.965-0.526,1.689-1.227,1.673-2.227l-0.007-0.317
				l-0.088-0.077l-0.005-0.159l-0.217-0.205c-0.325-0.317-0.784-0.45-1.208-0.43c-0.69,0.03-1.454,0.274-2.397,0.684
				c-0.789,0.352-1.871,0.572-3.248,0.613c-2.974,0.099-5.497-0.588-7.648-2.025c-2.735-1.848-4.145-4.605-4.288-8.571
				c-0.027-0.9-0.02-1.574,0.025-1.979c-0.012-0.121,0.044-0.635,0.157-1.422c0.901,0.079,2.214,0.079,4.029,0.018l0.958-0.029
				c2.332-0.071,4.937-0.276,7.807-0.597c2.89-0.32,4.883-0.695,6.099-1.182l0.469-0.191l-0.039-1.185
				c-0.067-2.069-0.882-4.305-2.381-6.729c-1.929-3.17-4.455-4.879-7.402-4.774c-2.16,0.066-4.347,1.059-6.545,2.858
				c-3.273,2.625-5.629,6.57-7.096,11.757c-0.314,0.929-0.51,1.667-0.563,2.27c-0.044,0.538-0.046,1.285-0.016,2.276
				c0.117,3.941,1.604,7.378,4.399,10.155c2.772,2.791,6.134,4.16,9.914,4.037L180.316,201.324z M176.658,174.07
				c1.201-1.238,2.265-1.785,3.125-1.809l0.812-0.026c0.916,0.175,1.807,0.742,2.703,1.827c0.777,0.945,1.532,2.153,2.25,3.618
				l-12.305,1.26C174.489,176.756,175.639,175.127,176.658,174.07z M155.059,235.919c1.744,2.383,5.244,5.087,8.076,5.892
				c2.441,0.691,5.241,1.028,7.258,0.688c1.296-0.218,2.537-0.646,3.813-1.325c1.233-0.662,2.314-1.569,3.213-2.703
				c0.401-0.559,0.586-1.372,0.596-1.538c0.073-0.796-0.069-1.58-0.42-2.292c-0.347-0.729-0.997-1.296-1.795-1.347
				c-1.018-0.062-1.788,0.608-2.491,1.559c-1.348,1.704-2.054,2.2-3.815,2.605c-1.029,0.236-2.884,0.361-4.467-0.055
				c-1.458-0.387-3.707-0.821-6.337-4.733c-1.233-1.842-1.453-3.806-1.633-4.941c-0.152-0.968-0.056-2.316,0.039-3.423
				c0.183-1.982,1.02-3.507,2.611-4.747c1.587-1.215,3.534-1.73,5.986-1.521c2.277,0.202,4.51,1.023,6.727,2.49
				c0.882,0.568,1.659,0.921,2.43,0.992c0.369,0.029,0.764,0.003,1.116-0.232c0.36-0.231,0.554-0.656,0.577-1.027
				c0.234-1.07-0.941-1.999-0.941-1.999c-1.878-1.389-3.67-2.429-5.394-3.092c-1.707-0.655-3.483-1.07-5.319-1.229
				c-3.327-0.299-6.217,0.373-8.552,2.046c-2.332,1.654-3.368,4.025-3.917,6.783c-0.408,2.062-0.31,5.071-0.058,6.334
				C152.945,231.997,153.82,234.234,155.059,235.919z M74.507,234.051c1.708,2.335,4.846,4.618,7.618,5.406
				c2.382,0.676,4.498,0.645,6.068,0.541c1.01-0.07,3.281-0.568,4.045-1.079c0.809-0.541,2.495-1.551,3.438-3.03
				c0.474-0.811,1.35-2.227,0.885-3.091c-0.373-0.691-0.976-1.271-1.758-1.316c-0.996-0.059-1.745,0.595-2.436,1.531
				c-1.317,1.667-2.012,2.155-3.737,2.547c-1.002,0.226-2.818,0.351-4.364-0.055c-1.429-0.379-3.63-0.807-6.202-4.637
				c-1.21-1.799-1.422-3.722-1.6-4.838c-0.15-0.944-0.056-2.266,0.039-3.344c0.178-1.943,1.709-4.318,2.586-5.13
				c2.067-1.914,4.99-2.506,6.474-2.562c1.819-0.067,4.72,0.454,6.674,2.971c0.631,0.803,1.014,1.208,1.754,1.479
				c0.344,0.121,1.067,0.025,1.416-0.201c0.353-0.226,0.584-0.778,0.607-1.149c0.231-1.039-0.394-1.857-0.394-1.857
				c-0.753-1.376-2.125-2.824-3.719-3.666c-2.293-1.211-4.586-1.615-6.539-1.548c-3.267,0.112-6.615,0.951-9.601,3.525
				c-1.46,1.259-3.294,3.941-3.832,6.641c-0.403,2.018-0.307,4.964-0.06,6.196C72.441,230.218,73.302,232.402,74.507,234.051z
				 M82.873,146.903c-0.046-0.096-0.102-0.197-0.173-0.279c-0.307-0.385-0.69-0.668-1.128-0.825
				c-0.333-0.118-0.69-0.177-1.058-0.177c-0.096,0-0.196,0.001-0.307,0.014c-0.665,0.05-1.381,0.275-2.137,0.637
				c-0.632,0.305-1.2,0.658-1.698,1.08c-0.273,0.291-0.539,0.567-0.826,0.866c-0.256,0.344-0.332,0.747-0.332,1.241
				c0,0.154,0.009,0.325,0.026,0.517l0.311,6.264c0.039,0.508,0.118,0.902,0.278,1.215c0.152,0.305,0.45,0.542,0.815,0.542h0.053
				l0.055-0.004c0.39-0.033,0.722-0.284,0.866-0.649c0.11-0.256,0.151-0.559,0.151-0.888c0-0.128-0.011-0.253-0.017-0.379
				l-0.473-5.907c-0.002-0.043-0.007-0.085-0.007-0.123c0.004-0.463,0.201-0.891,0.701-1.369c0.554-0.501,1.111-0.763,1.73-0.813
				c0.006,0,0.052-0.004,0.052-0.004c0.134,0,0.429,0.026,0.832,0.088c0.413,0.062,0.73,0.089,0.976,0.089h0.15
				c0.324-0.026,0.576-0.072,0.79-0.165c0.214-0.085,0.451-0.299,0.458-0.62l-0.002-0.01v-0.077l-0.025-0.081h-0.003l-0.014-0.053
				v-0.006L82.873,146.903z M66.887,152.407c0,0.188,0.008,0.379,0.026,0.594c0.113,1.376,0.518,2.506,1.258,3.317
				c0.604,0.659,1.368,1.034,2.209,1.034h0.014c0.08,0,0.156,0,0.225-0.005l0.062-0.004c0.972-0.075,1.854-0.634,2.542-1.534
				c0.775-1.02,1.234-2.331,1.414-3.912c0.041-0.305,0.063-0.595,0.063-0.856c0-0.115-0.003-0.223-0.008-0.316
				c-0.083-1.14-0.555-2.074-1.396-2.656l0.003-0.004c-0.699-0.483-1.517-0.725-2.406-0.725c-0.134,0-0.275,0.004-0.416,0.021
				c-1.355,0.1-2.479,0.691-3.204,1.73c-0.155,0.124-0.24,0.357-0.24,0.577c0,0.015,0,0.055,0.007,0.1
				c0.009,0.151,0.082,0.359,0.28,0.502c0.058,0.049,0.12,0.078,0.181,0.103c-0.226,0.359-0.392,0.692-0.49,1.018
				C66.926,151.686,66.887,152.025,66.887,152.407z M68.542,151.593c0.042-0.092,0.159-0.278,0.349-0.523
				c0.139-0.188,0.127-0.346,0.139-0.4l0.008-0.039l-0.004-0.075c-0.01-0.175-0.066-0.386-0.242-0.552
				c-0.061-0.057-0.127-0.098-0.194-0.13c0.491-0.654,1.055-0.952,1.869-1.03c0.067-0.001,0.135-0.006,0.198-0.006
				c0.563,0,1.039,0.165,1.516,0.54c0.484,0.39,0.767,0.954,0.841,1.832l-0.008,0.933c-0.146,1.126-0.474,2.019-0.936,2.644
				c-0.487,0.652-0.946,0.92-1.418,0.959c-0.024,0.004-0.059,0.004-0.098,0.004c-0.365-0.004-0.701-0.145-1.102-0.556
				c-0.414-0.418-0.766-1.121-1.003-2.115c-0.038-0.127-0.073-0.3-0.091-0.529c-0.004-0.055-0.009-0.113-0.009-0.164
				C68.356,152.077,68.418,151.815,68.542,151.593z M91.137,157.502l0.088,0.012l0.536-0.121c0.933-0.211,1.527-1.05,1.73-2.024
				c0.206-0.963,0.2-1.978-0.034-3.004c-0.217-0.975-0.602-1.754-1.324-2.194c-0.554-0.331-1.146-0.509-1.746-0.373
				c-0.864,0.184-1.418,0.942-1.637,1.816c-0.093,0.338-0.146,0.78-0.201,1.395l-0.009,0.111l0.383,1.707
				C89.242,156.27,89.851,157.426,91.137,157.502z M258.786,82.198c2.32-1.671,5.082-3.746,7.878-6.168
				c6.748-5.925,13.802-13.553,13.903-21.763c0-2.657-0.849-5.342-2.655-7.765c-2.32-3.167-5.451-4.664-8.657-4.664
				c-7.089,0.133-14.008,6.334-19.53,12.228c-2.521,2.722-4.701,5.415-6.341,7.558c-0.067-6.672-0.376-14.239-1.737-20.775
				c-1.7-8.213-5.385-15.53-13.361-16.313c-0.376-0.036-0.752-0.036-1.121-0.036c-11.59,0.375-16.157,14.784-16.225,24.591V49.5
				c0.169,8.615,3.371,16.648,7.498,22.172c-7.636-2.487-19.971-5.991-29.383-6.029c-5.829,0-11.35,1.396-12.918,6.577
				c-0.476,1.732-0.715,3.438-0.715,5.108c0.136,12.465,12.987,20.396,25.358,22.204c1.327,0.17,2.623,0.276,3.888,0.276
				c4.191-0.035,8.11-0.957,11.416-2.186c-2.283,3.17-4.33,7.051-5.114,11.547c-0.478,2.829-0.713,5.756-0.713,8.616
				c0,4.634,0.611,8.995,2.146,12.432c1.433,3.376,4.157,6.105,7.977,6.105c4.429-0.143,10.224-3.446,15.098-9.236
				c4.875-5.788,8.829-14.03,9.678-24.048c1.531,1.102,3.649,2.566,6.113,4.073c2.226,5.734,3.938,12.459,4.567,16.489
				c1.998,12.44,1.287,30.065,1.848,41.481c0.186,3.64,0.247,7.106,0.254,10.423c0,8.311-0.42,15.99-0.42,22.919
				c0,0.942,0.012,1.885,0.027,2.82c0.166,7.972,1.446,14.456,1.439,24.437c0,0.78-0.007,1.581-0.021,2.423
				c-0.194,10.038-1.463,16.775-3.497,21.124c-3.08,6.413-7.449,8.143-14.646,8.905c-7.13,0.671-16.559-0.155-27.732,0.921
				c-2.748,0.266-5.705,0.367-8.764,0.362c-9.265,0.005-19.454-0.937-28.223-0.942c-15.394,0.006-27.617,1.123-42.796,1.138
				c-0.011-0.005-0.053-0.005-0.122-0.005c-10.816,0.005-36.326-2.828-41.274-3.111c-3.754-0.221-7.749-0.34-11.961-0.34
				c-9.912,0-21.006,0.636-32.957,2.051c-1.751,0.205-3.64,0.31-5.61,0.31c-13.763,0.045-30.725-5.456-34.817-18.42
				c-0.91-2.775-1.443-6.307-1.443-10.067c-0.014-10.683,4.256-22.759,14.109-26.665c1.029-0.419,1.521-1.59,1.105-2.618
				c-0.418-1.022-1.588-1.518-2.618-1.101C5.538,204.692,1.12,218.49,1.102,230.029c0.005,4.132,0.573,8.036,1.645,11.32
				c5.338,15.745,24.096,21.142,38.634,21.184c2.114-0.003,4.157-0.11,6.08-0.339c11.803-1.4,22.745-2.025,32.487-2.021
				c4.135-0.004,8.054,0.113,11.73,0.329c4.688,0.262,30.249,3.116,41.505,3.119h0.055c15.429-0.014,27.659-1.132,42.863-1.132
				c8.485-0.007,18.707,0.938,28.223,0.944c3.148,0,6.224-0.103,9.158-0.387c5.885-0.591,11.311-0.586,16.291-0.586
				c7.142,0,13.354,0,18.659-1.752c4.508-1.499,8.282-4.588,10.672-9.793c2.418-5.191,3.663-12.406,3.878-22.733
				c0.014-0.864,0.023-1.7,0.023-2.503c0-10.357-1.302-16.994-1.439-24.523c-0.023-0.898-0.028-1.812-0.028-2.733
				c0-6.763,0.415-14.479,0.415-22.919c0-3.371-0.068-6.906-0.249-10.622c-0.574-11.126,0.181-28.839-1.898-41.915
				c-0.551-3.336-1.661-8.091-3.206-12.854c4.733,2.4,10.023,4.357,14.798,4.408c4.224,0.064,8.355-1.776,10.531-6.234
				c1.057-2.081,1.536-4.126,1.536-6.1C283.055,90.643,268.708,83.422,258.786,82.198z M216.238,38.464
				c0.162-0.436,0.335-0.86,0.513-1.289c0.053-0.059,0.106-0.13,0.152-0.193C216.698,37.471,216.455,37.968,216.238,38.464z
				 M185.195,74.812c0.279-1.104,1.297-3.366,2.349-5.665c0.503-0.035,0.96-0.092,1.511-0.099c0.227,0,0.494,0.046,0.723,0.051
				c-1.705,2.276-3.398,4.563-5.17,6.799C184.804,75.537,184.995,75.173,185.195,74.812z M182.919,87.213
				c-0.42-0.463-0.801-0.946-1.168-1.435c1.27-1.449,2.485-2.93,3.645-4.446C184.621,83.229,183.768,85.227,182.919,87.213z
				 M186.856,85.565c2.349-5.455,4.812-10.831,7.287-16.186c0.863,0.099,1.771,0.288,2.66,0.419
				c-1.109,1.628-2.245,3.279-3.28,4.832c-2.003,3.742-4.52,7.796-7.124,11.999C186.559,86.273,186.697,85.917,186.856,85.565z
				 M187.258,90.916c1.229-2.098,2.486-4.176,3.813-6.206c3.026-4.847,6.159-9.603,9.294-14.345c0.122,0.023,0.249,0.059,0.374,0.08
				c-1.319,2.611-2.635,5.227-3.966,7.828c-2.393,4.631-4.733,9.338-7.446,13.834C188.631,91.716,187.908,91.354,187.258,90.916z
				 M189.886,92.424c1.24,0.662,2.542,1.257,3.892,1.763C192.423,93.681,191.126,93.086,189.886,92.424z M194.801,94.61
				c-0.177-0.061-0.339-0.153-0.523-0.213c0.484-0.64,0.953-1.272,1.393-1.903C195.39,93.174,195.094,93.89,194.801,94.61z
				 M200.492,81.063c-2.176,3.017-4.381,6.03-6.706,8.945c0.42-0.948,0.821-1.884,1.195-2.764c2.535-4.389,5.726-9.989,8.989-16.096
				c0.071,0.02,0.146,0.033,0.215,0.048C202.951,74.507,201.706,77.828,200.492,81.063z M278.396,96.866
				c0.046,0.068,0.097,0.137,0.141,0.204c-0.161,0.229-0.318,0.445-0.482,0.687C278.164,97.455,278.288,97.161,278.396,96.866z
				 M277.684,95.774c-0.576,1.715-1.102,3.415-1.577,5.074c-0.355,0.593-0.716,1.192-1.08,1.812
				c0.664-2.561,1.311-5.138,1.963-7.712C277.221,95.22,277.474,95.495,277.684,95.774z M257.485,78.553
				c-0.061,0.163-0.122,0.324-0.183,0.491c-1.052,0.753-2.021,1.427-2.858,1.981c3.356-6.663,6.699-13.396,9.685-20.394
				L257.485,78.553z M268.904,69.194c-0.78,0.807-1.576,1.599-2.397,2.376c1.202-2.051,2.409-4.155,3.627-6.331
				C269.736,66.563,269.306,67.87,268.904,69.194z M276.069,54.962c0.332-0.529,0.678-1.068,1.02-1.61
				c0.034,0.307,0.073,0.61,0.073,0.915c0.02,1.225-0.265,2.514-0.729,3.831c0.277-0.822,0.476-1.63,0.579-2.421
				c-0.452,0.614-0.886,1.229-1.146,1.799c-0.358,0.628-0.653,1.249-0.957,1.865C275.299,57.889,275.688,56.425,276.069,54.962z
				 M272.334,46.058c0.808,0.436,1.585,1.053,2.357,1.95c-0.47,1.986-0.92,3.983-1.432,5.954c-2.084,3.058-3.954,6.178-5.726,9.304
				c0.405-1.27,0.821-2.527,1.233-3.8C269.91,54.956,271.353,50.561,272.334,46.058z M266.182,45.831
				c0.524-0.178,1.029-0.296,1.527-0.393c-0.408,1.079-0.974,2.49-1.771,4.395l-0.647,0.272
				c-3.172,10.039-8.244,19.661-13.527,29.37c3.908-9.11,8.03-18.655,12.045-29.978C264.652,48.21,265.469,46.929,266.182,45.831z
				 M254.507,54.054c0.74-0.731,1.483-1.419,2.254-2.104c-0.891,1.125-1.753,2.269-2.603,3.424
				C254.285,54.936,254.394,54.489,254.507,54.054z M252.265,61.825c1.073-1.618,2.104-3.262,3.246-4.839l-0.279,0.573
				c-1.133,1.787-2.227,3.582-3.299,5.379C252.043,62.569,252.154,62.196,252.265,61.825z M254.451,64.203
				c0.469-0.806,0.928-1.576,1.392-2.363c-0.325,0.898-0.655,1.806-0.987,2.699c-2.437,5.783-4.757,11.654-7.084,17.495
				c-0.252-0.743-0.568-1.447-0.946-2.122C249.529,74.703,252.112,69.476,254.451,64.203z M243.923,66.652
				c-0.498,0.712-0.81,1.17-0.81,1.17S243.409,67.377,243.923,66.652z M241.939,70.374c0.685-1.263,1.358-2.532,2.037-3.793
				c1.179-1.66,3.492-4.806,6.468-8.226c-0.493,1.555-0.991,3.107-1.522,4.662c-2.459,3.864-4.798,7.863-7.121,11.884
				c-0.403-0.227-0.814-0.422-1.229-0.596C241.025,72.998,241.508,71.681,241.939,70.374z M245.411,72.957
				c-0.425,1.183-0.854,2.358-1.282,3.542c-0.01,0.017-0.019,0.036-0.028,0.051c-0.147-0.124-0.3-0.246-0.452-0.37
				C244.244,75.107,244.807,74.03,245.411,72.957z M239.55,51.366c0.145,2.028,0.249,4.029,0.304,6.046
				c-2.316,5.438-4.436,11.016-6.618,16.598c-0.899,0.34-1.727,0.867-2.475,1.547c1.898-5.366,3.799-10.736,5.697-16.098
				c0.874-2.366,1.771-4.731,2.679-7.087C239.275,52.035,239.413,51.701,239.55,51.366z M239.977,66.871
				c0-2.921-0.025-6.164-0.123-9.454C239.951,60.707,239.977,63.945,239.977,66.871z M224.543,83.733
				c0.543-1.136,1.089-2.276,1.631-3.414c-1.189,3.406-2.373,6.815-3.557,10.221c-0.318,0.213-0.588,0.4-0.964,0.629
				c0.735-1.999,1.479-3.99,2.2-5.996l-0.644,2.942L224.543,83.733z M222.492,99.329c1.027-1.822,2.051-3.651,3.057-5.485
				c-0.498,1.425-1.006,2.838-1.504,4.258c-0.362,0.686-0.729,1.378-1.091,2.062l-2.18,4.151
				C221.337,102.652,221.918,100.992,222.492,99.329z M226.387,111.694c2.058-3.351,4.108-6.699,6.171-10.046
				c-2.321,4.171-4.733,8.334-7.158,12.513C225.731,113.336,226.055,112.516,226.387,111.694z M237.51,38.442
				c0.111,0.373,0.21,0.777,0.316,1.168c-1.246,2.968-2.447,5.947-3.599,8.942c-4.02,6.634-7.724,13.453-11.251,20.374
				c0.017-0.064,0.04-0.135,0.059-0.2c4.032-7.986,8.046-16.221,11.995-24.438C235.867,42.336,236.696,40.387,237.51,38.442z
				 M234.126,31.396c0.074,0.089,0.139,0.2,0.212,0.297c-0.315,0.395-0.637,0.794-0.947,1.225L234.126,31.396z M224.172,38.946
				c0.955-3.686,1.866-7.35,2.697-11.008c0.099,0,0.191-0.034,0.295-0.032c0.269,0,0.54,0,0.816,0.036
				c0.478,0.036,0.921,0.155,1.363,0.26l-0.175,0.767l-0.401,1.819l-0.811,3.644c-0.039,0.211-0.094,0.431-0.136,0.644
				c-0.293,0.77-0.639,1.477-1.174,1.98c-2.503,5.546-4.706,11.22-6.787,16.942c-0.2,0.287-0.406,0.566-0.606,0.854
				C220.915,49.575,222.555,44.255,224.172,38.946z M222.389,76.629c-0.761-0.272-1.746-0.616-2.872-1
				C220.643,76.01,221.628,76.357,222.389,76.629z M217.088,74.826c0.069,0.02,0.143,0.042,0.205,0.062
				c-0.007,0.041-0.025,0.083-0.039,0.132c-0.21,0.379-0.401,0.775-0.616,1.156C216.79,75.724,216.94,75.277,217.088,74.826z
				 M207.064,93.091c-0.212,0.421-0.447,0.812-0.657,1.238c-0.146-0.15-0.146-0.154,0.369-1.559
				c-0.501,1.229-1.08,2.419-1.688,3.596c-0.091,0.006-0.188,0.012-0.282,0.02c0.232-0.628,0.459-1.256,0.677-1.896
				c0.657-1.656,1.316-3.369,1.967-5.078c0.611-1.08,1.232-2.165,1.846-3.244C208.566,88.484,207.814,90.788,207.064,93.091z
				 M207.078,79.038c0.487-1.268,0.955-2.522,1.449-3.794c0.613-0.804,1.233-1.632,1.852-2.453c0.059,0.014,0.113,0.03,0.174,0.046
				C209.39,74.907,208.227,76.981,207.078,79.038z M213.383,88.256c-0.703,1.432-1.419,2.865-2.129,4.298
				c0.445-1.326,0.872-2.659,1.312-3.987c0.505-0.919,1.015-1.84,1.524-2.772C213.854,86.617,213.618,87.438,213.383,88.256z
				 M215.602,94.142c-0.046,0.02-0.085,0.037-0.136,0.054c0.321-1.132,0.621-2.266,0.955-3.406c1.373-2.707,2.757-5.412,4.125-8.127
				c0.955-1.889,1.926-3.774,2.895-5.657c0.054,0.02,0.093,0.036,0.145,0.054C220.898,82.729,218.206,88.411,215.602,94.142z
				 M218.524,124.685c0.381-0.633,0.755-1.271,1.136-1.905l-1.412,3.081l-0.53,0.812
				C217.985,126.009,218.26,125.349,218.524,124.685z M217.313,102.453c0.12-0.292,0.231-0.582,0.349-0.885
				c0.561-0.905,1.114-1.838,1.746-2.647c-0.154,0.269-0.307,0.537-0.466,0.8C218.414,100.643,217.858,101.544,217.313,102.453z
				 M213.867,113.662c0.556-0.863,1.121-1.722,1.67-2.595l-1.816,5.236C213.747,115.424,213.805,114.546,213.867,113.662z
				 M214.813,126.904c-0.166-0.562-0.293-1.185-0.427-1.8c0.733,0.524,0.251,0.143-0.025-0.086c0-0.02-0.005-0.035-0.007-0.05
				c0.046,0.03,0.097,0.069,0.173,0.121l0.178-0.18l0.698-0.751c0.644-0.738,1.353-1.456,1.989-2.211
				c-0.183,0.47-0.362,0.946-0.545,1.414C216.167,124.537,215.491,125.728,214.813,126.904z M231.081,113.684
				c-1.597,4.023-3.151,8.134-4.36,12.325c-0.835,1.575-1.67,3.16-2.417,4.783l-0.102,0.238c-0.083,0.12-0.162,0.247-0.245,0.369
				l-0.246,0.367l-0.067,0.091c0.069,0.02,0.125,0.033,0.191,0.053c-0.016,0.047-0.039,0.083-0.053,0.125
				c1.441-0.63,3.059-1.609,4.703-2.915c-3.155,2.509-6.207,3.834-8.105,3.788c-2.081-0.031-3.576-1.29-4.872-4.051
				c0.604,1.288,1.262,2.229,1.995,2.884l2.293-4.984l3.387-5.13c4.312-7.346,8.652-14.659,12.86-21.987L231.081,113.684z
				 M237.843,117.142c1.238-2.539,2.268-5.327,2.98-8.349l0.007-0.013C240.114,111.802,239.09,114.602,237.843,117.142z
				 M243.24,93.133c-1.186,2.913-2.337,5.866-3.571,8.741c0.902-2.84,1.805-5.693,2.741-8.542c0.279-0.052,0.558-0.116,0.835-0.204
				L243.24,93.133z M244.949,86.28c-0.61,3.241-1.836,3.615-4.493,3.816c-1.605,0-3.583-0.443-5.458-1.055
				c-3.438-1.258-3.848-2.181-4.021-4.736c0-0.884,0.138-1.942,0.376-3.133c0.752-3.302,2.59-4.188,5.042-4.325
				c0.856,0,1.74,0.174,2.594,0.48c2.962,0.982,6.099,4.766,5.997,8.102C244.986,85.734,244.986,86.008,244.949,86.28z
				 M246.839,100.054c0.476,0.34,0.99,0.71,1.585,1.124c0.014-0.025,0.032-0.048,0.042-0.073c0.039,0.062,0.075,0.122,0.11,0.185
				C247.919,100.832,247.352,100.425,246.839,100.054z M252.784,100.652c-0.047-0.092-0.093-0.177-0.142-0.269
				c0.46-1.342,0.923-2.687,1.385-4.026C253.601,97.796,253.194,99.223,252.784,100.652z M246.332,99.685
				c-0.533-0.397-0.921-0.69-1.202-0.903c0.136,0.103,0.288,0.217,0.478,0.357c1.997-4.371,4.127-8.7,6.298-13.028
				c0.366,0.084,0.759,0.064,1.125-0.136c0.646-0.339,1.809-0.577,3.273-0.577c-0.602,0-1.111,0.064-1.596,0.133
				C251.921,90.267,249.135,94.991,246.332,99.685z M255.729,105.773c-0.005,0-0.007-0.007-0.012-0.007l0.111-0.214
				C255.799,105.626,255.765,105.697,255.729,105.773z M255.714,99.888c1.472-4.699,2.994-9.37,4.51-14.044
				c0.904,0.18,1.841,0.42,2.803,0.703l-1.08,1.938C259.882,92.299,257.801,96.091,255.714,99.888z M259.677,107.822
				c1.502-4.289,3.015-8.556,4.434-12.91c1.121-2.225,2.256-4.479,3.38-6.708c1.003,0.456,1.958,1.013,2.913,1.561
				c-1.905,3.866-3.82,7.725-5.724,11.577c-1.353,2.31-2.683,4.631-4.016,6.946C260.332,108.137,260.009,107.976,259.677,107.822z
				 M263.958,109.606c1.096-2.144,2.21-4.254,3.287-6.401c-0.625,2.599-1.384,5.042-1.762,6.857
				C264.971,109.908,264.478,109.785,263.958,109.606z M271.382,111.145c-0.056,0-0.113-0.01-0.169-0.01
				c0.081-0.085,0.166-0.185,0.235-0.252L271.382,111.145z M269.997,111.053c-1.144-0.104-2.353-0.372-3.594-0.71
				c1.031-3.3,2.076-6.591,3.146-9.862c0.867-1.761,1.292-1.974,1.475-1.341c0.788-2.46,1.658-4.914,2.546-7.37
				c0.799,0.596,1.525,1.231,2.201,1.887c-1.121,4.515-2.254,9.029-3.396,13.542C271.56,108.577,270.761,109.888,269.997,111.053z
				 M272.865,111.033c0.251-0.962,0.505-1.93,0.749-2.898c0.271-0.521,0.531-1.037,0.801-1.556l-1.084,3.622l-0.316,0.8
				C272.962,111.013,272.92,111.027,272.865,111.033z M276.143,109.915c-0.854,0.542-1.822,0.856-2.893,1.035
				c0.87-2.293,1.726-4.605,2.549-6.95c1.06-1.957,2.176-3.889,3.302-5.816c0.408,0.881,0.652,1.79,0.796,2.705
				C278.65,103.896,277.404,106.911,276.143,109.915z M105.208,238.931c2.023,0,4.261-0.525,6.729-1.533
				c2.204-0.908,4.621-2.253,7.253-4.027l0.536,4.361c0.001,0.842,0.074,1.55,0.278,2.13c0.166,0.558,0.676,1.148,1.387,1.133h0.021
				c0.696,0,1.197-0.584,1.363-1.142c0.208-0.584,0.273-1.305,0.277-2.241l-0.251-19.096c0.024-1.09-0.501-2.093-1.443-2.597
				c-0.889-0.492-2.047-0.69-3.488-0.694c-2.104-0.002-4.539,0.402-7.342,1.194c-2.784,0.783-5.175,1.674-7.175,2.671
				c-1.723,0.829-3.081,2.333-4.082,4.388c-0.993,2.055-1.49,4.241-1.491,6.528c0,2.368,0.612,4.462,1.856,6.201
				C100.896,238.018,102.857,238.947,105.208,238.931z M104.985,222.735c0.848-1.018,2.334-1.919,4.497-2.616
				c2.174-0.7,4.302-1.056,6.406-1.055c1.205-0.001,2.085,0.147,2.596,0.379c0.474,0.241,0.527,0.355,0.561,0.718l-0.004,6.479
				l-0.003,0.003c0.009,2.324-1.646,4.542-5.399,6.635c-3.148,1.752-5.857,2.585-8.087,2.585h-0.714
				c-1.811-1.33-2.681-3.151-2.697-5.743C102.148,227.44,103.069,225.011,104.985,222.735z M2.227,118.01
				c0,8.825,3.582,10.984,10.943,10.984c0,0,48.097,1.849,63.302,0.981c17.174-0.981,70.662-0.256,70.662-0.256
				s34.838-0.233,55.445,0c0.901,0.011,1.684,0.02,2.41,0.029c-1.144-3.846-1.529-7.849-1.557-11.948
				c0-3.253,0.281-6.537,0.815-9.739c0.087-0.488,0.193-0.969,0.3-1.445c-1.527-0.007-3.096-0.113-4.723-0.339
				c-7.356-1.077-14.559-3.846-20.51-8.485c-5.861-4.548-10.73-11.695-10.713-20.471c0-2.308,0.339-4.66,1.003-6.961
				c1.246-4.712,5.177-8.228,8.75-9.629c3.641-1.515,7.161-1.849,10.716-1.877c5.409,0.065,11.28,0.993,16.786,2.227
				c-0.978-3.569-1.582-7.386-1.721-11.391c-0.007-0.125-0.007-0.322-0.019-0.597c0.019-4.611,0.826-9.515,2.538-14.293
				c1.746-4.742,4.327-9.474,8.92-13.089c3.027-2.379,7.177-4.05,11.606-4.026c0.581,0,1.165,0.031,1.709,0.083
				c5.979,0.423,11.158,4.035,13.996,8.2c2.952,4.167,4.424,8.781,5.435,13.486c0.376,1.803,0.676,3.639,0.914,5.485
				c1.822-1.67,3.765-3.279,5.797-4.719c2.415-1.64,5.054-3.184,8.076-4.154c0.235-10.719,0.339-20.753,0.339-20.753
				c-0.491-8.826-2.53-12.923-9.668-14.111c0,0-49.883-0.578-60.672,0.054c-10.797,0.63-42.693-1.123-58.396-0.982
				c-15.703,0.142-60.855,0.426-73.609,0c-29.44-0.98-47.104,0.982-47.104,0.982C5.654,2.724,0.755,7.677,1.247,16.505
				c0,0-0.492,7.844-0.983,11.765c-0.729,5.843,0.261,14.811,0.491,20.597c0.31,7.776,0.563,22.669,0,31.383
				C-0.225,95.453,2.227,118.01,2.227,118.01z M145.05,58.233h4.249v-7.644c0-0.255,0.173-0.424,0.424-0.424l4.25-0.424
				c0.258,0,0.427,0.169,0.427,0.424v8.068h4.251c0.213,0,0.381,0.168,0.425,0.423c0,0,0.427,3.271,0.427,3.401
				c0,0.252-0.176,0.422-0.427,0.422H154.4v8.916c0,2.804,0.722,4.249,2.124,4.249c0.808,0,2.34-0.425,2.552-0.425
				c0.168,0,0.383,0.168,0.427,0.34c0,0,0.42,3.182,0.42,3.397c0,0.212-0.166,0.422-0.42,0.509c0,0-1.7,0.423-3.402,0.423
				c-5.27,0-6.801-3.776-6.801-8.493V62.48h-3.825c-0.173,0-0.378-0.169-0.424-0.422c0,0-0.425-3.228-0.425-3.401
				C144.625,58.401,144.793,58.233,145.05,58.233z M123.419,58.233h4.251c0.166,0,0.38,0.168,0.426,0.423l0.253,1.572
				c0,0,1.869-2.419,5.694-2.419c6.798,0,8.499,2.971,8.499,9.341v11.89c0,0.254-0.17,0.425-0.424,0.425h-4.249
				c-0.257,0-0.428-0.172-0.428-0.425V67.15c0-4.245-1.272-5.092-3.398-5.092c-3.826,0-5.525,1.695-5.525,5.092v11.89
				c0,0.254-0.169,0.425-0.422,0.425h-4.252c-0.256,0-0.425-0.172-0.425-0.425V61.631c0-1.7-0.423-2.802-0.423-2.975
				C122.996,58.401,123.165,58.233,123.419,58.233z M110.245,57.85c6.035,0,9.392,3.355,9.392,10.999v1.697
				c0,0.214-0.211,0.426-0.466,0.426h-14.238c0.341,2.718,1.488,4.672,5.737,4.672c3.399,0,7.013-0.849,7.225-0.849
				c0.256,0,0.425,0.167,0.425,0.423c0,0.127-0.425,3.397-0.425,3.397c-0.044,0.211-0.172,0.381-0.427,0.424
				c0,0-2.974,0.849-6.798,0.849c-9.137,0-11.048-4.968-11.048-11.04C99.622,62.779,101.578,57.85,110.245,57.85z M97.753,58.656
				c0,0.256-0.424,1.275-0.424,3.401v17.408c0,5.987-1.704,9.767-10.625,9.767c-4.166,0-7.225-1.275-7.225-1.275
				c-0.212-0.086-0.383-0.254-0.424-0.423c0,0-0.427-3.313-0.427-3.4c0-0.254,0.169-0.424,0.427-0.424
				c0.212,0,4.038,1.274,7.649,1.274c5.312,0,5.525-3.015,5.525-5.52v-1.699c0,0-1.912,2.122-5.525,2.122
				c-8.539,0-9.774-4.968-9.774-11.04c0-6.069,1.234-11.039,9.774-11.039c3.184,0,5.65,2.247,5.65,2.247s0.257-1.102,0.299-1.399
				c0.086-0.255,0.255-0.423,0.423-0.423h4.253C97.584,58.233,97.753,58.401,97.753,58.656z M87.427,12.919
				c3.739,0,7.225,1.272,7.225,1.272c0.212,0.085,0.379,0.254,0.421,0.426c0,0,0.428,3.226,0.428,3.396
				c0,0.253-0.171,0.426-0.428,0.426c-0.208,0-4.672-1.275-7.646-1.275c-7.652,0-8.709,6.58-8.709,11.039
				c0,4.46,1.057,11.041,8.709,11.041c2.974,0,7.012-0.85,7.225-0.85c0.212,0,0.379,0.172,0.421,0.426c0,0,0.428,3.225,0.428,3.398
				c0,0.21-0.171,0.38-0.428,0.423c-0.253,0.042-3.565,0.848-7.646,0.848c-12.789,0-14.023-9.173-14.023-15.287
				C73.403,22.089,74.638,12.919,87.427,12.919z M64.097,14.191c0-0.255,0.17-0.382,0.424-0.425c0,0,4.167-0.425,4.248-0.425
				c0.255,0,0.427,0.169,0.427,0.425v28.876c0,0.256-0.172,0.423-0.427,0.423h-4.248c-0.255,0-0.424-0.167-0.424-0.423V14.191z
				 M61.928,58.233h4.251c0.169,0,0.384,0.168,0.423,0.423l0.34,1.487c0.938-1.021,2.637-2.334,5.607-2.334
				c1.278,0,2.979,0.424,2.979,0.424c0.169,0.043,0.383,0.212,0.424,0.423c0,0,0.427,3.226,0.427,3.401
				c0,0.252-0.173,0.422-0.427,0.422c-0.212,0-2.677-0.422-3.403-0.422c-3.524,0-5.519,1.739-5.519,5.092v11.89
				c0,0.254-0.172,0.425-0.428,0.425h-4.246c-0.257,0-0.429-0.172-0.429-0.425V61.631c0-1.7-0.425-2.802-0.425-2.975
				C61.503,58.401,61.674,58.233,61.928,58.233z M41.958,14.191c0-0.255,0.17-0.425,0.425-0.425l4.248-0.425
				c0.255,0,0.428,0.169,0.428,0.425v25.055h13.599c0.252,0,0.423,0.168,0.423,0.423c0,0.168-0.423,3.397-0.423,3.397
				c-0.045,0.256-0.173,0.423-0.428,0.423H42.382c-0.255,0-0.425-0.167-0.425-0.423L41.958,14.191L41.958,14.191z M48.458,62.058
				c-2.976,0-7.224,1.695-7.648,1.695c-0.256,0-0.427-0.172-0.427-0.425c0-0.084,0.427-3.396,0.427-3.396
				c0.042-0.169,0.211-0.339,0.424-0.425c0.17-0.083,3.78-1.697,7.224-1.697c5.569,0,9.351,2.547,9.351,6.796v11.039
				c0,2.122,0.422,3.183,0.422,3.396c0,0.254-0.168,0.425-0.422,0.425h-4.251c-0.169,0-0.338-0.13-0.423-0.425l-0.213-1.273
				c-0.848,0.933-2.677,2.122-6.16,2.122c-2.594,0-7.652-1.272-7.652-6.793c0-4.374,3.359-6.794,8.923-6.794
				c1.232,0,4.676,0.424,4.676,0.424v-1.871C52.708,63.2,51.262,62.058,48.458,62.058z M29.886,12.919
				c3.742,0,7.224,1.272,7.224,1.272c0.214,0.085,0.384,0.254,0.428,0.426c0,0,0.425,3.226,0.425,3.396
				c0,0.253-0.17,0.426-0.425,0.426c-0.213,0-4.676-1.275-7.652-1.275c-7.647,0-8.713,6.58-8.713,11.039
				c0,4.46,1.066,11.041,8.713,11.041c2.976,0,7.013-0.85,7.224-0.85c0.214,0,0.384,0.172,0.428,0.426c0,0,0.425,3.225,0.425,3.398
				c0,0.21-0.17,0.38-0.425,0.423c-0.255,0.042-3.572,0.848-7.652,0.848c-12.789,0-14.021-9.173-14.021-15.287
				C15.865,22.089,17.097,12.919,29.886,12.919z M26.318,49.316c5.312,0,7.647,1.274,7.647,1.274
				c0.214,0.083,0.383,0.254,0.428,0.426c0,0,0.424,3.225,0.424,3.396c0,0.254-0.17,0.423-0.424,0.423
				c-0.213,0-3.36-1.271-8.075-1.271c-4.76,0-5.523,2.293-5.523,4.037c0,2.333,2.847,3.522,5.947,4.459
				c4.634,1.399,10.201,3.817,10.201,9.552c0,4.841-2.422,8.279-10.624,8.279c-5.609,0-9.347-1.699-9.347-1.699
				c-0.215-0.086-0.384-0.254-0.429-0.423c0,0-0.423-3.226-0.423-3.399c0-0.255,0.256-0.424,0.423-0.424
				c0.214,0,5.356,1.701,9.776,1.701c4.76,0,5.524-2.293,5.524-4.035c0-2.335-2.847-3.523-5.95-4.46
				c-4.629-1.399-10.197-3.822-10.197-9.551C15.695,52.758,18.118,49.316,26.318,49.316z M86.705,62.058
				c-3.91,0-4.676,2.97-4.676,6.791s0.766,6.796,4.676,6.796c4.335,0,5.525-2.975,5.525-6.796
				C92.141,64.73,91.039,62.058,86.705,62.058z M110.245,62.058c-4.038,0-5.014,1.994-5.312,4.668h9.519
				C114.283,64.348,113.221,62.058,110.245,62.058z M44.209,73.095c0,2.292,1.572,2.549,2.552,2.549
				c2.845,0,5.947-0.341,5.947-4.249v-0.85h-4.676C45.952,70.546,44.209,71.568,44.209,73.095z"/>
		</g>
	</g>
</g>
</svg>
