<?xml version="1.0" encoding="utf-8"?>
<!-- Generator: Adobe Illustrator 19.2.1, SVG Export Plug-In . SVG Version: 6.00 Build 0)  -->
<svg version="1.1" id="Layer_1" xmlns="http://www.w3.org/2000/svg" xmlns:xlink="http://www.w3.org/1999/xlink" x="0px" y="0px"
	 viewBox="0 0 38.7 27.9" style="enable-background:new 0 0 38.7 27.9;" xml:space="preserve">
<style type="text/css">
	.st0{fill:#FD5938;}
</style>
<g>
	<path class="st0" d="M32,15.1V14c1.6-0.3,2.8-1.6,2.8-3.3c0-1.8-1.5-3.3-3.3-3.3s-3.3,1.5-3.3,3.3c0,1.6,1.2,3,2.8,3.3v0.8
		c-0.4-0.1-0.9-0.1-1.3-0.1c-2.2,0-4.3,0.8-5.9,2.2v-1.1c1.4-0.2,2.5-1.4,2.5-2.8c0-1.5-1.3-2.8-2.8-2.8s-2.8,1.3-2.8,2.8
		c0,1.4,1,2.6,2.4,2.8v1.6c0,0.1,0,0.2,0.1,0.3c-1,1-1.7,2.3-2.1,3.8c-1.7-1-3.7-1.5-5.8-1.5c-1.2,0-2.4,0.2-3.5,0.5v-3.3
		c2.3-0.2,4.1-2.1,4.1-4.5c0-2.5-2-4.5-4.5-4.5s-4.5,2-4.5,4.5c0,2.4,1.8,4.3,4.1,4.5v3.5c-2.9,1.1-5.4,3.4-6.7,6.5
		c-0.1,0.2,0,0.5,0.2,0.6c0.1,0,0.1,0,0.2,0c0.2,0,0.4-0.1,0.4-0.3c1.1-2.7,3.2-4.7,5.8-5.8v0.8c0,0.3,0.1,0.5,0.4,0.5
		c0.3,0,0.4-0.2,0.4-0.5v-1.1c1.1-0.4,2.3-0.6,3.5-0.6c2.1,0,4.1,0.6,5.8,1.7l0,0c1,0.6,1.8,1.4,2.6,2.3c0.2,0.2,0.5,0.2,0.7,0.1
		c0.2-0.2,0.2-0.5,0.1-0.7c-0.7-0.9-1.6-1.7-2.5-2.3c0.9-3.6,4.2-6.2,7.9-6.2c0.4,0,0.9,0,1.3,0.1v4.4c0,0.3,0.3,0.5,0.5,0.5
		c0.3,0,0.5-0.2,0.5-0.5v-4.1c3.4,1,5.8,4.1,5.8,7.8c0,0.3,0,0.6,0,0.9s0.2,0.5,0.4,0.5l0,0c0.2,0,0.4-0.2,0.5-0.4
		c0-0.3,0-0.6,0-0.9C38.7,19.7,35.9,16.2,32,15.1z M29.1,10.8c0-1.3,1.1-2.4,2.4-2.4s2.4,1.1,2.4,2.4s-1.1,2.4-2.4,2.4
		C30.2,13.2,29.1,12.1,29.1,10.8z M7.6,12.8c0-2,1.6-3.6,3.6-3.6s3.6,1.6,3.6,3.6s-1.6,3.6-3.6,3.6S7.6,14.7,7.6,12.8z M21.5,13.1
		c0-1,0.8-1.9,1.9-1.9c1,0,1.9,0.8,1.9,1.9S24.4,15,23.4,15C22.3,15,21.5,14.2,21.5,13.1z"/>
	<path class="st0" d="M7.4,4.5c0-0.6-0.5-1.6-1.3-1.6C6,2,5.2,1.2,4.2,1.2c-0.3,0-0.6,0.1-0.9,0.2C3,1.2,2.6,1.2,2.2,1.2
		C1,1.2,0,2.5,0,3.7s1,2.5,2.2,2.5H6C6.9,6.2,7.4,5.2,7.4,4.5z M0.9,3.7c0-0.7,0.6-1.6,1.3-1.6c0.3,0,0.6,0.1,0.8,0.3
		c0.2,0.1,0.4,0.1,0.6,0C3.8,2.2,4,2.1,4.2,2.1c0.6,0,1,0.4,1,1c0,0.1,0,0.2,0,0.2c0,0.2,0,0.4,0.2,0.5C5.5,4,5.7,4,5.8,3.9
		c0.1,0,0.1,0,0.2,0s0.4,0.4,0.4,0.7c0,0.3-0.3,0.7-0.4,0.7H2.2C1.5,5.3,0.9,4.4,0.9,3.7z"/>
	<path class="st0" d="M21.7,7.2h5.6c1.7,0,3.1-2,3.1-3.6C30.4,2,29,0,27.3,0c-0.6,0-1.1,0.2-1.6,0.4c-0.4-0.2-0.8-0.3-1.3-0.3
		c-1.4,0-2.6,1.1-2.6,2.5c-1.1-0.1-1.9,1.3-1.9,2.3C19.9,5.8,20.6,7.2,21.7,7.2z M21.7,3.5c0.1,0,0.3,0,0.4,0.1
		c0.2,0.1,0.4,0.1,0.5,0s0.2-0.3,0.2-0.5c0-0.1-0.1-0.3-0.1-0.4c0-0.9,0.8-1.7,1.7-1.7c0.4,0,0.7,0.1,1,0.3c0.2,0.1,0.4,0.1,0.6,0
		c0.4-0.3,0.8-0.4,1.3-0.4c1.2,0,2.2,1.4,2.2,2.6s-1,2.6-2.2,2.6h-5.6c-0.4,0-0.8-0.7-0.8-1.3S21.3,3.5,21.7,3.5z"/>
</g>
</svg>
