<?xml version="1.0" encoding="utf-8"?>
<!-- Generator: Adobe Illustrator 19.2.1, SVG Export Plug-In . SVG Version: 6.00 Build 0)  -->
<svg version="1.1" id="Layer_1" xmlns="http://www.w3.org/2000/svg" xmlns:xlink="http://www.w3.org/1999/xlink" x="0px" y="0px"
	 viewBox="0 0 23.6 33" style="enable-background:new 0 0 23.6 33;" xml:space="preserve">
<style type="text/css">
	.st0{fill:#FD5938;}
</style>
<path class="st0" d="M21.3,23.9c-2-1.8-2.7-9-2.7-11.4c0-1.2-1.4-2.1-4.4-2.7c-0.5-0.1-1-0.2-1.6-0.2l0,0v-3l0,0
	c0.9,0.1,1.8,0.4,2.7,1l4.1,2.1c0.1,0,0.1,0.1,0.2,0.1H23c0.1,0,0.3-0.1,0.4-0.1c0.1-0.1,0.1-0.2,0.1-0.4V0.5C23.5,0.2,23.3,0,23,0
	H0.5C0.3,0,0,0.2,0,0.5v8.8c0,0.3,0.2,0.5,0.5,0.5h3.2c0.1,0,0.1,0,0.2,0l4.8-2.1c0,0,0.1,0,0.1-0.1c0.8-0.7,1.8-1.1,2.8-1.1l0,0v3
	c-0.7,0-1.5,0.1-2.2,0.2c-3,0.6-4.4,1.5-4.4,2.7c0,2.3-0.7,9.6-2.7,11.4C0.8,25.1-0.2,26,0,27c0.2,0.7,1,1.2,2.8,1.6
	c1.7,0.4,3.7,0.6,5.4,0.8c0.2,2,1.9,3.6,3.9,3.6c2.1,0,3.8-1.6,3.9-3.7c1.5-0.1,3.2-0.4,4.8-0.7c1.8-0.4,2.6-0.8,2.8-1.6
	C23.8,26.1,22.8,25.2,21.3,23.9z M8.2,6.8l-4.6,2H1V1h21.5v7.7h-2.8l-4-2C13.5,5,10.4,5,8.2,6.8z M12.1,32c-1.5,0-2.7-1.1-2.9-2.5
	c1.5,0.1,2.5,0.1,2.6,0.1s1.4,0,3.2-0.2C14.9,30.9,13.6,32,12.1,32z M20.6,27.6c-3.6,0.8-8.7,1-8.8,1s-5.2-0.1-8.8-1
	c-1.8-0.4-2-0.8-2-0.8c-0.1-0.4,1.1-1.4,2-2.2c2.9-2.5,3-12.1,3-12.2c0-0.5,1-1.2,3.6-1.7c0.7-0.1,1.4-0.2,2.2-0.2
	c0.7,0,1.4,0.1,2.2,0.2c2.7,0.6,3.6,1.3,3.6,1.7c0,0.1,0.2,9.7,3,12.2c0.9,0.8,2.1,1.8,2,2.2C22.6,26.9,22.4,27.2,20.6,27.6z"/>
</svg>
