<?xml version="1.0" encoding="utf-8"?>
<!-- Generator: Adobe Illustrator 19.2.1, SVG Export Plug-In . SVG Version: 6.00 Build 0)  -->
<svg version="1.1" id="Layer_1" xmlns="http://www.w3.org/2000/svg" xmlns:xlink="http://www.w3.org/1999/xlink" x="0px" y="0px"
	 viewBox="0 0 622.4 344" style="enable-background:new 0 0 622.4 344;" xml:space="preserve">
<title>Royal Agricultural University - Cirencester</title>
<path d="M411.3,336.7h4.3v-11.6c0-6.6,2.5-10.5,9.5-10.5V310c-4.6-0.2-7.5,1.9-9.6,6.1h-0.1v-5.5h-4.1L411.3,336.7L411.3,336.7z
	 M388.3,321.1c0.3-4,3-7.4,7.4-7.4c4.3,0,7.4,3.3,7.5,7.4H388.3z M403.2,328.4c-0.8,3.4-3.2,5.1-6.8,5.1c-5.7,0-8.3-4.1-8.1-8.6H408
	c0.3-6.3-2.6-15-11.8-15c-7.2,0-12.3,5.8-12.3,13.6c0.3,8,4.2,13.7,12.6,13.7c5.9,0,10-3.1,11.2-8.9H403.2L403.2,328.4z
	 M376.3,302.7H372v7.8h-4.4v3.8h4.4V331c0,4.8,1.7,5.7,6.2,5.7h3.3v-3.8h-1.9c-2.7,0-3.2-0.4-3.2-2.3v-16.2h5.2v-3.8h-5.2
	L376.3,302.7L376.3,302.7z M344.4,328.5c0.3,6.5,5.2,8.8,11,8.8c5.3,0,11.1-2,11.1-8.2c0-5-4.3-6.5-8.5-7.4c-4-1-8.5-1.5-8.5-4.5
	c0-2.6,3-3.3,5.5-3.3c2.8,0,5.8,1.1,6.1,4.4h4.3c-0.4-6.4-4.9-8.2-10.7-8.2c-4.5,0-9.8,2.1-9.8,7.4c0,5,4.3,6.4,8.5,7.4
	s8.5,1.5,8.5,4.8s-3.7,3.9-6.3,3.9c-3.6,0-6.9-1.3-7.1-5L344.4,328.5L344.4,328.5z M323.1,321.1c0.3-4,3-7.4,7.4-7.4
	c4.3,0,7.4,3.3,7.5,7.4H323.1z M338,328.4c-0.8,3.4-3.2,5.1-6.8,5.1c-5.7,0-8.3-4.1-8.1-8.6h19.5c0.3-6.3-2.6-15-11.8-15
	c-7.2,0-12.3,5.8-12.3,13.6c0.3,8,4.2,13.7,12.6,13.7c5.9,0,10-3.1,11.2-8.9H338z M316,318.9c-0.6-6.2-5.3-9-11.3-9
	c-8.3,0-12.4,6.2-12.4,14c0,7.7,4.3,13.3,12.2,13.3c6.6,0,10.5-3.8,11.5-10.2h-4.4c-0.6,4-3,6.4-7.2,6.4c-5.4,0-7.6-4.7-7.6-9.6
	c0-5.3,1.9-10.3,8.1-10.3c3.6,0,5.8,1.9,6.5,5.2H316L316,318.9z M266.7,336.7h4.3v-14.8c0-4.7,2.5-8.2,7.7-8.2c3.3,0,5.3,2,5.3,5.2
	v17.7h4.3v-17.2c0-5.6-2.1-9.6-9-9.6c-3.8,0-6.7,1.5-8.5,4.7h-0.1v-4.2h-4.1L266.7,336.7L266.7,336.7z M243.7,321.1
	c0.3-4,3-7.4,7.4-7.4c4.3,0,7.4,3.3,7.5,7.4H243.7z M258.6,328.4c-0.8,3.4-3.2,5.1-6.8,5.1c-5.7,0-8.3-4.1-8.1-8.6h19.5
	c0.3-6.3-2.6-15-11.8-15c-7.2,0-12.3,5.8-12.3,13.6c0.3,8,4.2,13.7,12.6,13.7c5.9,0,10-3.1,11.2-8.9H258.6L258.6,328.4z
	 M224.6,336.7h4.3v-11.6c0-6.6,2.5-10.5,9.5-10.5V310c-4.6-0.2-7.5,1.9-9.6,6.1h-0.1v-5.5h-4.1V336.7L224.6,336.7z M219.1,300.6
	h-4.3v5.2h4.3V300.6z M214.8,336.7h4.3v-26.1h-4.3V336.7z M209.9,311.4c-1.1-7.6-7.4-11.7-14.9-11.7c-11.1,0-17.1,8.5-17.1,19.1
	c0,10.5,5.4,18.8,16.6,18.8c9.1,0,14.7-5.4,15.6-14.4h-4.8c-0.5,6-4.1,10.4-10.4,10.4c-8.6,0-12.3-6.9-12.3-15.1
	c0-7.5,3.7-14.6,12.2-14.6c5,0,9.1,2.6,10.2,7.6L209.9,311.4L209.9,311.4z"/>
<path d="M400.4,271.8l-2.1,5.7c-2,4.6-3.3,7.7-8.6,7.7c-1.4,0-2.7-0.2-4.2-0.5v5.1c1,0.4,2.2,0.4,4.6,0.5c7.5,0,9.6-2.4,13.1-10.7
	l21.5-57.2h-6.1l-15.3,42.3L387,222.5h-6.5L400.4,271.8z M371.3,207.5h-6.1v14.9h-8.6v5.1h8.6v33.9c-0.1,8.4,2.7,11.1,10.7,11.1
	c1.8,0,3.6-0.2,5.4-0.2v-5.2c-1.7,0.2-3.5,0.3-5.2,0.3c-4.4-0.3-4.9-2.6-4.9-6.6v-33.5h10.1v-5.1h-10.1L371.3,207.5L371.3,207.5z
	 M347.8,213.1h6.1v-9.7h-6.1V213.1z M347.8,272h6.1v-49.5h-6.1V272z M341.1,236.9c-0.4-10.7-8.2-16-18.2-16
	c-8.7,0-18.7,3.9-18.7,13.9c0,8.4,6,11.1,13.8,13.3l7.7,1.7c5.5,1.4,10.8,3.3,10.8,9c0,7-7.8,9.4-13.5,9.4c-8,0-14.1-4.3-14.6-12.4
	h-6.1c1,12.1,8.8,17.5,20.4,17.5c9.2,0,19.9-4.2,19.9-14.9c0-8.6-7.2-12.7-14.1-13.7l-8-1.8c-4.2-1.1-10.3-3-10.3-8.3
	c0-6.5,6.4-8.5,11.7-8.5c6.9,0,12.7,3.4,13,10.8L341.1,236.9L341.1,236.9z M279,272h6.1v-26.4c0-10.3,7.4-18.4,18.5-17.8v-6.1
	c-8.9-0.4-15.7,4.4-18.8,12.3h-0.2v-11.6H279V272z M236.5,243.7c1-9,6.5-17.7,16.3-17.7c9.8,0,15.5,8.5,15.8,17.7H236.5z
	 M274.7,248.8c0.5-13.9-5.9-27.9-21.8-27.9c-15.8,0-22.3,13.2-22.3,26.2c0,14.1,6.7,26.2,22.3,26.2c12.5,0,19.1-6.6,21.6-17.8h-6.1
	c-1.9,7.4-6.8,12.7-15.6,12.7c-11.6,0-16.2-10.6-16.3-19.5L274.7,248.8L274.7,248.8z M205.9,272h6.5l18.6-49.5h-6.3L209.3,266h-0.2
	l-15.6-43.5h-6.8L205.9,272z M176.6,213.1h6.1v-9.7h-6.1V213.1z M176.6,272h6.1v-49.5h-6.1V272z M128.7,272h6.1v-28.9
	c0.2-9.7,6-17,15.6-17c9.8,0,12.6,6.5,12.6,15V272h6.1v-31.9c0-11.8-4.3-19.1-18.2-19.1c-7,0-13.6,4.1-15.9,10h-0.2v-8.5h-6.1
	C128.7,222.4,128.7,272,128.7,272z M67.3,247.3c0,14.1,7.5,26.1,26.6,26.1c19.1,0,26.7-12,26.7-26.1v-43.9h-6.6v42.5
	c0.1,16-7.4,22-20.2,22c-12.6,0-20.2-6.1-20.1-22v-42.5h-6.6v43.9H67.3z M413.1,175.1h6.1v-68.6h-6.1V175.1z M372.4,140.7
	c0.2-8,5.8-11.5,13.3-11.5c7.1,0,13,2,13,10.2c0,5.5-2.8,6.2-7.7,6.8c-13.1,1.5-26.6,2-26.6,16c0,10,7.4,14.5,16.6,14.5
	c9.5,0,13.8-3.7,18.1-10.1h0.2c0,5.2,1,8.6,7.1,8.6c1.6,0,2.6-0.1,4-0.4v-5.1c-0.5,0.2-1.3,0.4-1.9,0.4c-2.4,0-3.6-1.4-3.6-3.7
	v-26.3c0-13.3-9.5-16-18.3-16c-11.3,0-19.5,5-20.1,16.6H372.4L372.4,140.7z M398.7,155.9c0.1,9.7-8,15.6-17.3,15.6
	c-5.7,0-11-3.8-11-9.8c0-9.7,12.8-9.6,23-11.4c1.6-0.3,4.4-0.8,5.1-2.2h0.2V155.9z M340.6,175.1h6.1v-26.4
	c0-10.3,7.4-18.4,18.5-17.8v-6.1c-8.9-0.4-15.7,4.4-18.8,12.3h-0.3v-11.6h-5.6L340.6,175.1L340.6,175.1z M332.9,125.6h-6.1v26
	c0,10.1-4.5,19.9-14.9,19.9c-9.6,0-13-4.7-13.3-13.6v-32.3h-6.1v32.1c0,11.5,4.9,18.9,17.4,18.9c7.4,0,13.9-3.8,17.1-10.3h0.2v8.9
	h5.6L332.9,125.6L332.9,125.6z M277.8,110.7h-6.1v14.9h-8.6v5.1h8.6v33.9c-0.1,8.4,2.7,11.1,10.7,11.1c1.8,0,3.6-0.2,5.4-0.2v-5.2
	c-1.7,0.2-3.5,0.3-5.2,0.3c-4.4-0.3-4.9-2.6-4.9-6.6v-33.5h10.1v-5.1h-10.1L277.8,110.7L277.8,110.7z M254.4,175.1h6.1v-68.6h-6.1
	V175.1z M246.8,125.6h-6.1v26c0,10.1-4.5,19.9-14.9,19.9c-9.6,0-13-4.7-13.3-13.6v-32.3h-6.1v32.1c0,11.5,4.9,18.9,17.4,18.9
	c7.4,0,13.9-3.8,17.1-10.3h0.2v8.9h5.6V125.6z M201.6,141.1c-1.4-11.3-9.5-17-20.1-17c-15.2,0-23.4,12-23.4,26.2
	c0,14.2,8.2,26.2,23.4,26.2c11,0,18.9-7.3,20.5-19.2h-6.1c-0.8,8.2-6.9,14.1-14.4,14.1c-11.6,0-17.4-10.5-17.4-21.1
	s5.8-21.1,17.4-21.1c7.8,0,12.4,4.5,14,11.9L201.6,141.1L201.6,141.1z M146.7,116.2h6.1v-9.7h-6.1V116.2z M146.7,175.1h6.1v-49.5
	h-6.1V175.1z M120.2,175.1h6.1v-26.4c0-10.3,7.4-18.4,18.5-17.8v-6.1c-8.9-0.4-15.7,4.4-18.8,12.3h-0.2v-11.6h-5.6V175.1z
	 M112.5,125.6h-6.1v8.5h-0.2c-2.4-5.5-8.5-10-15.8-10c-14.3,0-22.3,11.3-22.3,25c0,14.1,6.6,25.4,22.3,25.4c7.1,0,13-4.2,15.8-10.2
	h0.2v6.8c0,12.1-4.8,18.8-16,18.8c-6.8,0-13.2-2.6-14.5-9.9h-6.1c0.9,10.5,10.6,15,20.6,15c16.2,0,21.9-9,22-23.8L112.5,125.6
	L112.5,125.6z M90.6,169.5c-11.1,0-16.3-9.7-16.3-19.7c0-10.3,4.8-20.6,16.3-20.6c11.4,0,16,10.8,16,20.6
	C106.5,159.8,101,169.5,90.6,169.5 M38.6,113.1l13.3,35.1h-27C24.9,148.2,38.6,113.1,38.6,113.1z M7.6,175.1h7l8.2-21.3H54l8.3,21.3
	h7.2l-26.9-68.6h-7.3L7.6,175.1z M413.1,81.2h6.1V12.6h-6.1V81.2z M372.4,46.8c0.2-8,5.8-11.5,13.3-11.5c7.1,0,13,2,13,10.2
	c0,5.5-2.8,6.2-7.7,6.8c-13.1,1.5-26.6,2-26.6,16c0,10,7.4,14.5,16.6,14.5c9.5,0,13.8-3.7,18.1-10.1h0.2c0,5.2,1,8.6,7.1,8.6
	c1.6,0,2.6-0.1,4-0.4v-5.1c-0.5,0.2-1.3,0.4-1.9,0.4c-2.4,0-3.6-1.4-3.6-3.7V46.2c0-13.3-9.5-16-18.3-16c-11.3,0-19.5,5-20.1,16.6
	H372.4L372.4,46.8z M398.7,62c0.1,9.7-8,15.6-17.3,15.6c-5.7,0-11-3.8-11-9.8c0-9.7,12.8-9.6,23-11.4c1.6-0.3,4.4-0.8,5.1-2.2h0.2
	C398.7,54.2,398.7,62,398.7,62z M340.6,81l-2.1,5.7c-2,4.6-3.3,7.7-8.6,7.7c-1.4,0-2.7-0.2-4.2-0.5v5.1c1,0.4,2.2,0.4,4.6,0.5
	c7.5,0,9.6-2.4,13.1-10.7l21.5-57.2h-6.1l-15.3,42.3l-16.3-42.3h-6.5L340.6,81L340.6,81z M297.7,35.3c11.6,0,17.4,10.5,17.4,21.1
	s-5.8,21.1-17.4,21.1c-11.6,0-17.4-10.5-17.4-21.1S286.1,35.3,297.7,35.3 M297.7,30.2c-15.2,0-23.4,12-23.4,26.2s8.2,26.2,23.4,26.2
	c15.2,0,23.4-12,23.4-26.2S312.9,30.2,297.7,30.2 M224.2,18.2h24.4c9.8,0,14.8,5.3,14.8,13.6s-6.9,13.3-14.8,13.3h-24.4
	C224.2,45.2,224.2,18.2,224.2,18.2z M217.7,81.2h6.6V50.8h24.8c12.4-0.5,13.2,10.2,13.7,19.8c0.2,2.9,0.2,7.9,1.8,10.6h7.2
	c-2.9-3.5-2.9-12.9-3.2-17.6c-0.5-8.1-3.1-14.3-12-15.5V48c8.8-1.7,13.3-8.8,13.3-17.5c0-12.4-9.5-17.9-20.8-17.9h-31.4L217.7,81.2
	L217.7,81.2z"/>
<path d="M593,274.5l-28.8-96.6H561l-37.5,113.4L493,240.7c16-3.7,33.1-16.2,33.1-33.3c0-17.7-14.7-31.4-40.8-31.4h-35.7v1.1
	c10.4,0.6,8.4,17.5,8.9,26.5v73.5c-0.2,9.3,1.4,23.6-8.9,26.1v1.2h28.7v-1.5c-11.2-2.5-9.9-16.8-9.9-25.8v-93.5
	c4.4-0.8,13.1-1.5,17.6-1.5c18.4,0.1,29.3,10.7,29.1,25.4c-0.3,18.3-16.6,27.9-32.3,30.2l33.9,66.7h12.4l33.5-112.1l23,90
	c3.9,14.3,3.6,18.4-3.6,20.8v1.2h27.7V303C603.7,300.7,603.2,302.3,593,274.5 M505.4,323.1c0,0-3.5,1-5.9,3.2
	c-2.2,2-3.2,4.5-5.4,6.8c-1.8,1.8-4.2,3.7-10.2,3.7h-33v-13.6H505.4z M561.6,323.1c0,0-3.7,1.4-5.9,3.2c-2.3,1.8-3.2,4.5-5.4,6.8
	c-1.8,1.8-4.2,3.7-10.2,3.7h-42.9c1.5-0.8,3.2-2.4,4.1-3.9c2-3.2,3.9-4.6,5-5.5c2.7-2,10.1-4.3,10.1-4.3L561.6,323.1L561.6,323.1z
	 M553.2,336.7c1.5-0.8,3.2-2.4,4.1-3.9c2-3.2,3.9-4.6,5-5.5c2.7-2,10.1-4.3,10.1-4.3h35.2v13.6H553.2L553.2,336.7z M474.4,155.9
	c0.9,0,1.5-0.3,2.3-0.7c0.8-0.4,1.6-0.8,3.1-1.1c0.8-0.1,1.4-0.3,1.8-0.4c1.3-0.3,1.9-0.4,4.4-0.5c1.7,0,3.2,0.1,4.4,0.5l0.2,0.1
	c0.5,0.1,0.9,0.3,1.2,0.4c-0.2-1.1-0.4-2.4-0.7-4c-2.9-0.2-5.5-0.2-6.7-0.2c-2.5,0.2-7.8,1-9.4,1.5c-1.5,0.5-2.5,1.4-3.1,2.1
	c-0.2,0.2-1,0.6-0.8,1.3C472.2,155.5,473.3,155.9,474.4,155.9 M575.2,155.2c-0.2-0.2-0.6-1.1-0.8-1.3c-0.7-0.8-1.7-1.5-3.1-2.1
	c-1.5-0.6-6.9-1.4-9.4-1.5c-1.2-0.1-3.8,0-6.7,0.2c-0.3,1.5-0.9,3-1.1,4.1c0.3-0.1,1.2-0.4,1.5-0.5l0.2-0.1c1.3-0.4,2.6-0.6,4.4-0.5
	c2.4,0.1,3.2,0.2,4.4,0.5c0.5,0.1,1.1,0.2,1.8,0.4c1.5,0.3,2.4,0.7,3.1,1.1c0.8,0.4,1.4,0.7,2.3,0.7
	C573.4,156,574.4,155.7,575.2,155.2 M565.2,138.9c1.5,0.1,2.8,0.3,4.1,0.6c1.5,0.3,3,0.8,4.4,1.4c-3.5-4-8-6.9-13-7.8
	C562.3,134.8,563.9,136.9,565.2,138.9 M472.8,140.9c1.5-0.7,2.9-1.2,4.6-1.5c1.3-0.3,2.5-0.4,4-0.5c1.5-2,2.9-4.2,4.5-6
	C480.8,133.9,476.2,137,472.8,140.9 M579.6,149.1c-1,1.5-1.5,3-1.9,4.6c-0.2,0.7-0.8,1.4-1.1,1.6c-1,1.2-2.6,1.8-4.4,1.8
	c-1.2,0-1.9-0.4-2.8-0.8c-0.8-0.3-1.5-0.7-2.8-1c-0.7-0.1-1.2-0.2-1.5-0.3l-1.4,6.1l-0.4,1.7l-0.8-1.6c-0.2-0.5-0.9-1.7-1.6-2.1
	c-0.8-0.3-1.6-0.3-2.6-0.2h-0.9c-0.4,0-0.8,0.1-1.1,0.1c-0.6,0.1-1.2,0.3-1.8-0.1c-0.6-0.3-1.9-1-1.5-3.1c0.1-0.6-0.1-0.9,0.1-1.2
	c0.1-0.9,0.7-2.3,1.1-4.4c-3.2,0.2-6.4,0.6-8,1c-2.7,0.7-17.4,3.9-22.7,3.7c-5.3,0.2-20-3.1-22.7-3.7c-1.6-0.4-4.8-0.7-8-1
	c1,5.8,0.8,6.7,0.8,6.7c-0.2,0.8-1.2,0.9-1.7,1.3c-0.8,0.4-1.5-0.1-2.6-0.1c-1.2,0-2.6-0.1-3.7,0.4c-1.2,0.5-1.9,2.2-1.9,2.2l-1.4-6
	c-0.6,0.1-1.2,0.3-1.7,0.5c-1,0.3-1.7,0.6-2.3,0.9c-1.1,0.5-1.9,0.8-3.3,0.8c-2.1,0-4-0.9-4.8-2.2c-0.2-0.3-0.5-0.6-0.5-1l-0.1-0.5
	c-0.3-1.3-0.6-2.7-1.5-4.3c-1.1-1.6-1.8-3.4-0.4-4.6c0.7-0.6,1.5-1.2,2.1-1.6c3.8-5.5,9.6-9.9,16-10.8l1,0.4
	c1.2-1.3,2.3-2.4,3.7-3.4c4.2-3.1,9.6-5.4,14.8-4.5l2.2,0.8c-5.3-0.9-10.6,1.5-14.8,4.4c-3.2,2.3-5.6,5.6-7.9,8.9
	c2.2,0,4.6,0.1,7.3,0.3c3.3,0.2,8.7,1.3,14.5,2.3c6.9,1.3,13.8,2.5,17.4,2.5c3.5,0,10.5-1.3,17.4-2.5c5.8-1.1,11.2-2,14.5-2.3
	c2.6-0.2,5-0.3,7.2-0.3c-2.3-3.3-4.8-6.6-7.9-8.9c-4.2-3.1-9.5-5.3-14.8-4.4l2.2-0.8c5.3-0.9,10.6,1.5,14.8,4.5
	c1.4,1,2.5,2.1,3.7,3.4l1-0.4c6.3,0.9,12,5,15.8,10.4c0.9,0.6,1.6,1.3,2.5,2C581.3,146.2,580.9,147.1,579.6,149.1"/>
<path d="M474.4,155.9c0.9,0,1.5-0.3,2.3-0.7c0.8-0.4,1.6-0.8,3.1-1.1c0.8-0.1,1.4-0.3,1.8-0.4c1.3-0.3,1.9-0.4,4.4-0.5
	c1.7,0,3.2,0.1,4.4,0.5l0.2,0.1c0.5,0.1,0.9,0.3,1.2,0.4c-0.2-1.1-0.4-2.4-0.7-4c-2.9-0.2-5.5-0.2-6.7-0.2c-2.5,0.2-7.8,1-9.4,1.5
	c-1.5,0.5-2.5,1.4-3.1,2.1c-0.2,0.2-1,0.6-0.8,1.3C472.2,155.5,473.3,155.9,474.4,155.9L474.4,155.9z M575.2,155.2
	c-0.2-0.2-0.6-1.1-0.8-1.3c-0.7-0.8-1.7-1.5-3.1-2.1c-1.5-0.6-6.9-1.4-9.4-1.5c-1.2-0.1-3.8,0-6.7,0.2c-0.3,1.5-0.9,3-1.1,4.1
	c0.3-0.1,1.2-0.4,1.5-0.5l0.2-0.1c1.3-0.4,2.6-0.6,4.4-0.5c2.4,0.1,3.2,0.2,4.4,0.5c0.5,0.1,1.1,0.2,1.8,0.4
	c1.5,0.3,2.4,0.7,3.1,1.1c0.8,0.4,1.4,0.7,2.3,0.7C573.4,156,574.4,155.7,575.2,155.2L575.2,155.2z M565.2,138.9
	c1.5,0.1,2.8,0.3,4.1,0.6c1.5,0.3,3,0.8,4.4,1.4c-3.5-4-8-6.9-13-7.8C562.3,134.8,563.9,136.9,565.2,138.9L565.2,138.9z
	 M472.8,140.9c1.5-0.7,2.9-1.2,4.6-1.5c1.3-0.3,2.5-0.4,4-0.5c1.5-2,2.9-4.2,4.5-6C480.8,133.9,476.2,137,472.8,140.9z M579.6,149.1
	c-1,1.5-1.5,3-1.9,4.6c-0.2,0.7-0.8,1.4-1.1,1.6c-1,1.2-2.6,1.8-4.4,1.8c-1.2,0-1.9-0.4-2.8-0.8c-0.8-0.3-1.5-0.7-2.8-1
	c-0.7-0.1-1.2-0.2-1.5-0.3l-1.4,6.1l-0.4,1.7l-0.8-1.6c-0.2-0.5-0.9-1.7-1.6-2.1c-0.8-0.3-1.6-0.3-2.6-0.2h-0.9
	c-0.4,0-0.8,0.1-1.1,0.1c-0.6,0.1-1.2,0.3-1.8-0.1c-0.6-0.3-1.9-1-1.5-3.1c0.1-0.6-0.1-0.9,0.1-1.2c0.1-0.9,0.7-2.3,1.1-4.4
	c-3.2,0.2-6.4,0.6-8,1c-2.7,0.7-17.4,3.9-22.7,3.7c-5.3,0.2-20-3.1-22.7-3.7c-1.6-0.4-4.8-0.7-8-1c1,5.8,0.8,6.7,0.8,6.7
	c-0.2,0.8-1.2,0.9-1.7,1.3c-0.8,0.4-1.5-0.1-2.6-0.1c-1.2,0-2.6-0.1-3.7,0.4c-1.2,0.5-1.9,2.2-1.9,2.2l-1.4-6
	c-0.6,0.1-1.2,0.3-1.7,0.5c-1,0.3-1.7,0.6-2.3,0.9c-1.1,0.5-1.9,0.8-3.3,0.8c-2.1,0-4-0.9-4.8-2.2c-0.2-0.3-0.5-0.6-0.5-1l-0.1-0.5
	c-0.3-1.3-0.6-2.7-1.5-4.3c-1.1-1.6-1.8-3.4-0.4-4.6c0.7-0.6,1.5-1.2,2.1-1.6c3.8-5.5,9.6-9.9,16-10.8l1,0.4
	c1.2-1.3,2.3-2.4,3.7-3.4c4.2-3.1,9.6-5.4,14.8-4.5l2.2,0.8c-5.3-0.9-10.6,1.5-14.8,4.4c-3.2,2.3-5.6,5.6-7.9,8.9
	c2.2,0,4.6,0.1,7.3,0.3c3.3,0.2,8.7,1.3,14.5,2.3c6.9,1.3,13.8,2.5,17.4,2.5c3.5,0,10.5-1.3,17.4-2.5c5.8-1.1,11.2-2,14.5-2.3
	c2.6-0.2,5-0.3,7.2-0.3c-2.3-3.3-4.8-6.6-7.9-8.9c-4.2-3.1-9.5-5.3-14.8-4.4l2.2-0.8c5.3-0.9,10.6,1.5,14.8,4.5
	c1.4,1,2.5,2.1,3.7,3.4l1-0.4c6.3,0.9,12,5,15.8,10.4c0.9,0.6,1.6,1.3,2.5,2C581.3,146.2,580.9,147.1,579.6,149.1L579.6,149.1z"/>
<path d="M509.9,50.2c1.2-0.2,5.7-1.1,6.8-1.4c1.1-0.4,1.5-0.7,1.7-1.2c0.3-0.5,1.1-3.3,1.7-3.9c0.7-0.6,1.1-1,1.8-1.2
	c0.9-0.3,3.2-1.1,3.8-1.1s0.9,0.4,0.4,0.5c-0.4,0.2-2.6,0.5-3.2,1.1c-0.6,0.5-1.5,0.7-2.1,1.9c-0.3,0.5-0.8,1.8-1.1,2.4
	s-0.9,1.6-1.5,1.8c-0.6,0.3-3,0.8-4.2,1.1s-3,0.5-3.8,0.4C508.5,50.6,508.7,50.4,509.9,50.2"/>
<path d="M509.9,50.2c1.2-0.2,5.7-1.1,6.8-1.4c1.1-0.4,1.5-0.7,1.7-1.2c0.3-0.5,1.1-3.3,1.7-3.9c0.7-0.6,1.1-1,1.8-1.2
	c0.9-0.3,3.2-1.1,3.8-1.1s0.9,0.4,0.4,0.5c-0.4,0.2-2.6,0.5-3.2,1.1c-0.6,0.5-1.5,0.7-2.1,1.9c-0.3,0.5-0.8,1.8-1.1,2.4
	s-0.9,1.6-1.5,1.8c-0.6,0.3-3,0.8-4.2,1.1s-3,0.5-3.8,0.4C508.5,50.6,508.7,50.4,509.9,50.2L509.9,50.2z"/>
<path d="M509.2,76.2c0.2-0.2,0.6-0.8,1.8-1.4c0.6-0.3,1.7,0.2,2.9-0.5c0,0-1.3,1.5-2,1.7c-0.8,0.3-1,1.5-1.7,1.7h-0.1
	c0.3,0.1,1,0.1,2,0.9c0.5,0.4,0.7,1.5,1.8,2.2c0,0-1.9-0.4-2.5-0.9c-0.6-0.6-1.7-0.1-2.4-0.6l-0.1-0.1c0.1,0.2,0.4,0.9,0.3,2.2
	c-0.1,0.7-1.1,1.4-1.1,2.7c0,0-0.7-1.8-0.5-2.6c0.2-0.8-0.8-1.5-0.7-2.4v-0.1c-0.2,0.2-0.6,0.8-1.8,1.4c-0.6,0.3-1.7-0.2-2.9,0.5
	c0,0,1.3-1.5,2-1.7c0.8-0.3,1-1.5,1.7-1.7h0.1c-0.3-0.1-1-0.1-2-0.9c-0.5-0.4-0.7-1.5-1.8-2.2c0,0,1.9,0.4,2.5,0.9
	c0.6,0.6,1.7,0.1,2.4,0.6l0.1,0.1c-0.1-0.2-0.4-0.9-0.3-2.2c0.1-0.7,1.1-1.4,1.1-2.7c0,0,0.7,1.8,0.5,2.6
	C508.5,74.6,509.3,75.4,509.2,76.2L509.2,76.2z"/>
<path d="M509.2,76.2c0.2-0.2,0.6-0.8,1.8-1.4c0.6-0.3,1.7,0.2,2.9-0.5c0,0-1.3,1.5-2,1.7c-0.8,0.3-1,1.5-1.7,1.7h-0.1
	c0.3,0.1,1,0.1,2,0.9c0.5,0.4,0.7,1.5,1.8,2.2c0,0-1.9-0.4-2.5-0.9c-0.6-0.6-1.7-0.1-2.4-0.6l-0.1-0.1c0.1,0.2,0.4,0.9,0.3,2.2
	c-0.1,0.7-1.1,1.4-1.1,2.7c0,0-0.7-1.8-0.5-2.6c0.2-0.8-0.8-1.5-0.7-2.4v-0.1c-0.2,0.2-0.6,0.8-1.8,1.4c-0.6,0.3-1.7-0.2-2.9,0.5
	c0,0,1.3-1.5,2-1.7c0.8-0.3,1-1.5,1.7-1.7h0.1c-0.3-0.1-1-0.1-2-0.9c-0.5-0.4-0.7-1.5-1.8-2.2c0,0,1.9,0.4,2.5,0.9
	c0.6,0.6,1.7,0.1,2.4,0.6l0.1,0.1c-0.1-0.2-0.4-0.9-0.3-2.2c0.1-0.7,1.1-1.4,1.1-2.7c0,0,0.7,1.8,0.5,2.6
	C508.5,74.6,509.3,75.4,509.2,76.2L509.2,76.2z"/>
<path d="M524.1,89.6c-0.3-0.2-0.5-0.5-0.7-0.8c-0.3,0.4-0.6,0.7-0.9,0.9c-0.4,0.3-0.6,0.5-0.6,0.8V95c0.1,0.9,1.1,1.5,1.5,1.6
	c0.4-0.2,1.4-0.8,1.5-1.5v-0.8c0-1.2,0.1-3.1,0-3.6C524.9,90.3,524.5,89.9,524.1,89.6"/>
<path d="M524.1,89.6c-0.3-0.2-0.5-0.5-0.7-0.8c-0.3,0.4-0.6,0.7-0.9,0.9c-0.4,0.3-0.6,0.5-0.6,0.8V95c0.1,0.9,1.1,1.5,1.5,1.6
	c0.4-0.2,1.4-0.8,1.5-1.5v-0.8c0-1.2,0.1-3.1,0-3.6C524.9,90.3,524.5,89.9,524.1,89.6L524.1,89.6z"/>
<path d="M519.6,90.3c-0.1-0.3-0.5-0.5-0.9-0.7c-0.2-0.1-0.5-0.3-0.7-0.5c-0.1,0.4-0.4,0.6-0.6,0.9c-0.2,0.3-0.4,0.5-0.4,0.7l0.1,0.6
	c0.2,0.9,0.6,2.3,0.7,2.8c0.2,0.6,1.1,0.9,1.5,1c0.3-0.3,0.9-0.9,0.9-1.5l-0.1-0.6C520.1,92.1,519.7,90.6,519.6,90.3"/>
<path d="M519.6,90.3c-0.1-0.3-0.5-0.5-0.9-0.7c-0.2-0.1-0.5-0.3-0.7-0.5c-0.1,0.4-0.4,0.6-0.6,0.9c-0.2,0.3-0.4,0.5-0.4,0.7l0.1,0.6
	c0.2,0.9,0.6,2.3,0.7,2.8c0.2,0.6,1.1,0.9,1.5,1c0.3-0.3,0.9-0.9,0.9-1.5l-0.1-0.6C520.1,92.1,519.7,90.6,519.6,90.3z"/>
<path d="M515.3,91.8l-0.4-0.5c-0.5-0.7-1.4-1.9-1.5-2.2c-0.2-0.3-0.6-0.3-1.1-0.3c-0.3,0-0.6-0.1-0.9-0.2c0,0.4-0.1,0.7-0.2,1
	c-0.1,0.3-0.2,0.6-0.1,0.8l0.4,0.5c0.5,0.8,1.4,1.9,1.7,2.3c0.4,0.5,1.3,0.4,1.7,0.3C515.2,93.2,515.5,92.4,515.3,91.8"/>
<path d="M515.3,91.8l-0.4-0.5c-0.5-0.7-1.4-1.9-1.5-2.2c-0.2-0.3-0.6-0.3-1.1-0.3c-0.3,0-0.6-0.1-0.9-0.2c0,0.4-0.1,0.7-0.2,1
	c-0.1,0.3-0.2,0.6-0.1,0.8l0.4,0.5c0.5,0.8,1.4,1.9,1.7,2.3c0.4,0.5,1.3,0.4,1.7,0.3C515.2,93.2,515.5,92.4,515.3,91.8z"/>
<path d="M535.2,88.6c-0.3,0.1-0.6,0.1-0.9,0.2c-0.4,0-0.8,0.1-1.1,0.3c-0.3,0.3-1.1,1.5-1.5,2.2l-0.4,0.5c-0.2,0.6,0.1,1.4,0.3,1.7
	c0.4,0.1,1.4,0.1,1.7-0.3c0.3-0.4,1.2-1.6,1.7-2.3l0.4-0.5c0.1-0.2,0-0.4-0.1-0.8C535.3,89.4,535.2,89,535.2,88.6"/>
<path d="M535.2,88.6c-0.3,0.1-0.6,0.1-0.9,0.2c-0.4,0-0.8,0.1-1.1,0.3c-0.3,0.3-1.1,1.5-1.5,2.2l-0.4,0.5c-0.2,0.6,0.1,1.4,0.3,1.7
	c0.4,0.1,1.4,0.1,1.7-0.3c0.3-0.4,1.2-1.6,1.7-2.3l0.4-0.5c0.1-0.2,0-0.4-0.1-0.8C535.3,89.4,535.2,89,535.2,88.6z"/>
<path d="M515.5,83.7c-0.4-0.7-1.5-0.5-2.1-1.1c0.1,0.9-0.9,1.6-0.6,2.2c0.3,0.6,1.2,2.6,1.5,3.2c0.5,0.8,1.9,0.8,1.9,0.8
	s0.9-1.1,0.7-1.9C516.9,86.5,515.8,84.2,515.5,83.7"/>
<path d="M515.5,83.7c-0.4-0.7-1.5-0.5-2.1-1.1c0.1,0.9-0.9,1.6-0.6,2.2c0.3,0.6,1.2,2.6,1.5,3.2c0.5,0.8,1.9,0.8,1.9,0.8
	s0.9-1.1,0.7-1.9C516.9,86.5,515.8,84.2,515.5,83.7z"/>
<path d="M533.4,85.2l0.3-0.6c0.1-0.2-0.1-0.4-0.2-0.8c-0.1-0.3-0.3-0.6-0.4-1c-0.3,0.1-0.5,0.2-0.8,0.3c-0.4,0.1-0.8,0.2-1,0.5
	c-0.2,0.3-0.8,1.6-1.2,2.5l-0.3,0.6c-0.1,0.6,0.4,1.4,0.6,1.6c0.4,0,1.4-0.1,1.6-0.7C532.4,87.5,533,86.1,533.4,85.2"/>
<path d="M533.4,85.2l0.3-0.6c0.1-0.2-0.1-0.4-0.2-0.8c-0.1-0.3-0.3-0.6-0.4-1c-0.3,0.1-0.5,0.2-0.8,0.3c-0.4,0.1-0.8,0.2-1,0.5
	c-0.2,0.3-0.8,1.6-1.2,2.5l-0.3,0.6c-0.1,0.6,0.4,1.4,0.6,1.6c0.4,0,1.4-0.1,1.6-0.7C532.4,87.5,533,86.1,533.4,85.2L533.4,85.2z"/>
<path d="M518.6,81.8c-0.2,0.9-1.2,1.4-1.1,1.9c0.1,0.6,0.6,2.8,0.8,3.5c0.3,0.9,1.7,1.2,1.7,1.2s1.2-0.9,1.2-1.7
	c-0.1-0.4-0.5-2.8-0.7-3.4C520.3,82.6,519.1,82.5,518.6,81.8"/>
<path d="M518.6,81.8c-0.2,0.9-1.2,1.4-1.1,1.9c0.1,0.6,0.6,2.8,0.8,3.5c0.3,0.9,1.7,1.2,1.7,1.2s1.2-0.9,1.2-1.7
	c-0.1-0.4-0.5-2.8-0.7-3.4C520.3,82.6,519.1,82.5,518.6,81.8z"/>
<path d="M526.7,88.1c0.4-0.1,1.3-0.5,1.5-1c0.2-0.5,0.5-1.9,0.6-2.8l0.1-0.6c0-0.2-0.2-0.4-0.4-0.7c-0.2-0.2-0.5-0.5-0.6-0.9
	c-0.2,0.2-0.5,0.4-0.7,0.5c-0.4,0.2-0.7,0.4-0.8,0.7c-0.1,0.4-0.4,1.8-0.6,2.7l-0.1,0.6C525.8,87.3,526.4,87.9,526.7,88.1"/>
<path d="M526.7,88.1c0.4-0.1,1.3-0.5,1.5-1c0.2-0.5,0.5-1.9,0.6-2.8l0.1-0.6c0-0.2-0.2-0.4-0.4-0.7c-0.2-0.2-0.5-0.5-0.6-0.9
	c-0.2,0.2-0.5,0.4-0.7,0.5c-0.4,0.2-0.7,0.4-0.8,0.7c-0.1,0.4-0.4,1.8-0.6,2.7l-0.1,0.6C525.8,87.3,526.4,87.9,526.7,88.1z"/>
<path d="M528.6,89.1c-0.2,0.2-0.5,0.3-0.7,0.5c-0.4,0.2-0.8,0.4-0.9,0.7l-0.7,2.6l-0.1,0.6c0,0.6,0.6,1.3,0.9,1.5
	c0.4-0.1,1.3-0.4,1.5-1c0.2-0.5,0.5-1.9,0.7-2.8l0.1-0.6c0-0.2-0.2-0.4-0.4-0.7C529,89.8,528.8,89.5,528.6,89.1"/>
<path d="M528.6,89.1c-0.2,0.2-0.5,0.3-0.7,0.5c-0.4,0.2-0.8,0.4-0.9,0.7l-0.7,2.6l-0.1,0.6c0,0.6,0.6,1.3,0.9,1.5
	c0.4-0.1,1.3-0.4,1.5-1c0.2-0.5,0.5-1.9,0.7-2.8l0.1-0.6c0-0.2-0.2-0.4-0.4-0.7C529,89.8,528.8,89.5,528.6,89.1L528.6,89.1z"/>
<path d="M523.4,85.5c0.4-0.2,1.1-0.7,1.3-1.3V81c0-0.3-0.3-0.6-0.7-0.9l-0.6-0.6c-0.2,0.3-0.5,0.5-0.8,0.7c-0.3,0.2-0.5,0.4-0.5,0.6
	v3.5C522.2,84.8,523,85.3,523.4,85.5"/>
<path d="M523.4,85.5c0.4-0.2,1.1-0.7,1.3-1.3V81c0-0.3-0.3-0.6-0.7-0.9l-0.6-0.6c-0.2,0.3-0.5,0.5-0.8,0.7c-0.3,0.2-0.5,0.4-0.5,0.6
	v3.5C522.2,84.8,523,85.3,523.4,85.5z"/>
<path d="M562.6,58.6c0,0-0.1-0.3-0.3,0.1c-0.2,0.4-0.8,0.6-0.2,0.6c2.3,0,1.4-0.4,1.5-0.7c0.2-0.3-0.7-0.3-0.7-0.3L562.6,58.6
	L562.6,58.6z"/>
<path d="M562.6,58.6c0,0-0.1-0.3-0.3,0.1c-0.2,0.4-0.8,0.6-0.2,0.6c2.3,0,1.4-0.4,1.5-0.7c0.2-0.3-0.7-0.3-0.7-0.3L562.6,58.6
	L562.6,58.6z"/>
<path d="M485.2,59c-0.4,0.1-1.2,0.5-1.5,0.2c-0.5-0.2-0.6-0.9-0.4-1c0.3-0.1,0.7-0.2,1.2,0.1C484.9,58.7,485.2,59,485.2,59"/>
<path d="M485.2,59c-0.4,0.1-1.2,0.5-1.5,0.2c-0.5-0.2-0.6-0.9-0.4-1c0.3-0.1,0.7-0.2,1.2,0.1C484.9,58.7,485.2,59,485.2,59z"/>
<path d="M531.8,12.1l1,0.3l0.6,0.4l-0.4,0.4l-1,0.6l-0.4,0.6l-1,0.6l-0.8-0.5l-0.2-1.2c0,0-0.3-0.9,0.4-1.5
	C530.8,11.2,531.8,12.1,531.8,12.1 M530.5,64c0.6-0.4,2.7-1.5,3.9-2c1.3-0.5,3.4-0.3,4,0.1c0.7,0.3,1.6,2.3,1.3,2.3
	s-1.4,0.1-1.8,0.3c-0.5,0.3-0.7,0.4-0.8,0.9c-0.1,0.5,0.6,0.7,0.6,0.7h-9.9C527.8,66.3,529.9,64.4,530.5,64 M561.8,103.6
	c0.4-0.8,0.4-1.2,1.2-0.9c0.8,0.3,0.4,0.6,1.2,1.2c0.8,0.6,1.2,0.7,1.3,1.3c0.1,0.6-0.4,2.3-0.1,3.3c0.3,1.1,1.1,1.9,1.6,2.4
	c0.5,0.5,0.2,1.4,0.2,2.7s0.5,2,0,2.5c-0.5,0.5-0.3,0.7-1.1,0.9c-0.9,0.2-2.5,0.4-3.5,0.6s-2.3,0.9-3.3,1c-1.1,0.1-1.5,0.4-2.2,0.5
	c-0.8,0.1-0.7,0.3-1.7,0c-0.7-0.2-0.7-0.4-1.4-0.8s-0.2-0.6,0.9-1.1c1.1-0.5,2.4-1.2,3.4-1.6c1.1-0.4,0.4-0.2,2.4-0.6
	c2.2-0.5,2.8-1.4,2.5-2.2c-0.4-1-1.2-3.7-1.5-4.5c-0.3-0.9-0.4-2.4-0.4-3.1C561.2,104.5,561.4,104.4,561.8,103.6 M544.5,66.6
	c-0.1-0.5,0-0.9,0.7-0.8c0.7,0.1,1.5-0.2,3.1,0.1c1.5,0.3,2.5,0.5,3.5,0.7c1,0.2,2,0.3,2.2,1.1c0.2,0.9,1.1,1.9,1.1,2.7
	c0.1,0.8,0.7,2.3,0.4,2.9c-0.3,0.6-1.1,1.1-1.2,1.8c-0.2,0.8-0.7,3.6-1,4.3c-0.3,0.7-0.3,1-1,1.2c-0.7,0.3-0.8-0.6-0.9-1.5
	c-0.1-0.9-0.3-3.6-0.5-4.5c-0.3-1.3,0.2-4.1,0.2-4.4s-0.7-0.6-1.4-0.9c-0.6-0.4-2.1-0.7-2.9-1c-0.8-0.3-1.4-0.1-1.8-0.4
	C544.7,67.7,544.6,67,544.5,66.6 M486.1,105.2c0,0.7-0.2,2.2-0.4,3.1c-0.3,0.9-0.8,3.5-1.1,4.4c-0.5,1.3-1.2,2,2.4,2.8
	c1.9,0.4,1.4-0.1,2.3,0.3c1.1,0.4,2.3,1,3.4,1.5c1.1,0.5,1.5,0.7,0.9,1.2c-0.7,0.4-1,0.6-1.5,0.8c-1.1,0.3-1.2,0.1-1.9,0
	c-0.8-0.1-1.1-0.4-2-0.5c-1.1-0.1-2.4-0.8-3.3-1c-1-0.2-2.6-0.4-3.5-0.6c-0.9-0.2-0.6-0.4-1.1-0.9c-0.5-0.5,0-1.2,0-2.5
	s-0.4-2.2,0.2-2.7c0.5-0.5,1.3-1.5,1.6-2.4c0.4-1.1-0.2-2.7-0.1-3.3c0.1-0.6,0.5-0.7,1.3-1.3c0.8-0.6,0.4-0.9,1.2-1.2
	c0.8-0.3,0.8,0.1,1.2,0.9C485.9,104.4,486.1,104.5,486.1,105.2 M502.3,68.2c-0.5,0.3-1.3-0.1-2,0.1c-0.8,0.3-2.4,0.7-3,1.1
	c-0.6,0.4-0.9,0.7-0.9,1.1s0.3,3,0,4.3c-0.2,1-0.5,3.7-0.6,4.5c-0.1,0.9-0.2,1.7-0.9,1.5c-0.7-0.3-0.7-0.5-1-1.2
	c-0.3-0.7-0.8-3.5-1-4.3s-1-1.3-1.2-1.8c-0.3-0.6,0.4-2.1,0.4-2.9c0.1-0.8,1-1.8,1.1-2.7c0.2-0.9,1.3-1,2.2-1.1
	c1-0.2,1.9-0.4,3.5-0.7c1.5-0.3,2.3,0,3-0.1c0.7-0.1,0.8,0.2,0.7,0.8C502.7,67,502.8,67.9,502.3,68.2 M495.9,81.2
	c0.4-0.4,0.4-0.6,0.7-1.3c0.3-0.7,0.5-2.4,0.6-3.9c0.1-1.5,0.2-4.5,0-5c-0.2-0.5-0.3-0.5,0.7-0.9l0.7-0.3l-0.1,12.5
	C497.3,81.7,496.4,81.4,495.9,81.2 M473,52.2c0.5,0.6,1.4,1.7,1.9,2.8c0.5,1.1,1,2.2,1.2,3.3c0.3,1.2-0.4,3-0.7,4
	c-0.4,1-1.5,2.2-2.2,2.8c-0.8,0.5-2.3,1-3.6,0.6c-1.3-0.4-2.5-0.9-3.1-1.6c-0.5-0.7-2.4-2.3-1.9-3.8c0.5-0.2,1.3-0.2,1.6,0
	c0.8,0.3,2.9,1.3,2.9,1.3s-0.2,0,0.3,0.6c0.3,0.3,1,0.4,1.2,0.4c0.7,0,1.2,0.2,1.7-0.4c0.6-0.5,0.9-2.1,1-3.4c0.1-1-0.4-3.1-0.4-3.7
	s-0.7-2-0.7-2.5C472.3,52,472.5,51.6,473,52.2 M471.2,58.1c-0.5,0-1,0.2-1.5,0.4c-0.6,0.2-0.2,0.7,0.3,0.8s1.3,0.1,1.6,0.1
	c0.4,0,0.6,0.4,0.7,0.9c0.1,0.5-0.8,0.6-1.3,0.7c-0.5,0-1.4-0.3-1.8-0.4c-0.5-0.1-1.4-0.4-1.9-0.8c-0.6-0.5-0.5-0.4,0-0.7
	c0.4-0.3,1-0.6,1.5-0.9c0.6-0.3,1.9-0.9,2.6-1.1c0.7-0.2,0.7,0.1,0.8,0.6C472.2,58.3,471.6,58.1,471.2,58.1 M464.8,58.1
	c0.1-0.5,0.3-1.4,0.8-2.1c0.5-0.7,1.5-1.6,1.8-1.9c0.4-0.4,1.7-0.7,2.3-0.9s1.5,0.4,1.9,0.7c0.4,0.3,0.6,1.1,0.6,1.6s-0.1,0.8-0.7,1
	c-0.6,0.2-2.3,0.7-3,1c-0.7,0.3-2.3,1.3-2.9,1.8c-0.7,0.6-1,0.7-1.1,0.5C464.3,59.3,464.7,58.3,464.8,58.1 M485.2,61
	c-0.4,0.1-0.8-0.1-1.5,0.1c-1,0.2-0.2,0.7-0.2,0.7s0.7,0.1,1.5,0c0.4,0,0.5,0.1,0.6,0.3c0.1,0.5-0.4,0.8-0.9,0.8
	c-0.5,0.1-1.1,0-1.7,0c-0.7,0-3.1,0.1-3.7,0c-0.6-0.1-1.1-0.2-1.6-0.6c-0.7-0.5-0.7-0.4-0.7,0s0.4,0.7,0.7,1
	c0.4,0.3,1.5,0.5,2.1,0.5c0.6,0,1,0.2,1.7,0.1c0.8-0.1,0.5,0.2,0.5,0.2s-0.4,0.2-0.1,1.1c0.2,0.6,1.1,0.9,1.1,0.9l-0.7,1.7l-1.8-0.5
	c0,0,0.4-1.2,0-2c-0.4-0.9-2-0.6-2.8-0.4c-0.8,0.3-1.2,1.7-0.9,2.2c0.4,0.5,1.1,0.9,1.1,0.9l-0.5,1.9l-1.7-0.9c0,0,0.4-1.5,0-2.1
	c-0.4-0.7-1.6-0.7-2.4-0.4c-0.8,0.4-1.2,1.7-0.8,2.5c0.4,0.8,1.1,0.5,1.1,0.9s-0.6,2.1-0.6,2.1l-1.7-0.4c0,0,0.1-0.7,0.2-1.2
	c0.1-0.5,0.1-1.1-0.2-1.5c-0.4-0.5-0.8-0.7-1.8-0.7l-0.4-1.5c0,0,1.2,0.2,2.2,0.1c1.3-0.2,3-1.2,3.8-2.1c0.8-0.9,1.5-2.7,1.5-3.8
	c0.1-0.9,0.2-2.7-0.1-3.3c-0.3-0.6-0.6-1.9-0.6-1.9l0.5,0.2c0,0,0.3,0.8,0.6,0.9c0.2,0.1,0.3,0.4,0.7,0.2c0.3-0.3,0.1-0.8,0.1-0.8
	s0.5,0.1,1.2,0.1c0.8-0.5,1.1-0.8-0.3-0.7c-0.7-0.2-1.2-0.3-1.7-0.5c-0.6-0.2-1.3-0.1-1.3-0.1s-1-1.4-1.5-1.7
	c-0.4-0.4,0-0.5,0.4-0.8c0.4-0.3,2.1-0.3,2.9-0.1c0.9,0.2,1.6,0.8,2.1,1.6c0.3,0.5,0.4,0.7,0.8,1c0.4,0.3,1.8,1.3,2.5,1.6
	c0.6,0.4,1.6,1.6,2.2,2c0.5,0.4,0.5,0.7,0.6,1.3C486.1,60.1,485.6,60.9,485.2,61 M522.2,8.9c0.3,0.3,0.4,0.4,0.7,0.4
	s0.6-0.3,0.7-0.5s1.1-0.3,1-0.1c0,0.3,0,0.4-0.2,0.7c-0.1,0.3-0.7,1.2-1.2,1.2c-1.5,0-1.8-1-1.9-1.2C521.1,9.2,521.9,8.6,522.2,8.9
	 M515.3,12c0.4-0.1,1.5-0.4,1.2,0.2c-0.4,0.5-0.8,0.7-1.3,0.9c-0.5,0.3-0.7,0.1-0.6-0.2C514.8,12.6,514.9,12.1,515.3,12 M529.4,6.7
	c0,0.5-0.7,1.8-0.7,2.4s-0.5,2.6-0.4,3.6c0.1,1.2,0.4,2.7,1,3.2c0.6,0.5,1.1,0.4,1.7,0.4c0.3,0,1-0.1,1.2-0.4
	c0.5-0.6,0.3-0.6,0.3-0.6s2.1-1,2.8-1.3c0.4-0.1,1.2-0.2,1.6,0c0.5,1.4-1.4,2.9-1.8,3.6s-1.9,1.5-3.2,1.7c-1.2,0.4-2.8-0.1-3.7-0.4
	c-0.9-0.4-1.8-1.9-2.2-2.9c-0.3-1-0.6-2.9-0.4-4.1c0.3-1.1,0.7-2.2,1.2-3.2c0.5-1.1,1.5-2,1.8-2.7C529.2,5.8,529.4,6.2,529.4,6.7
	 M537.1,13.3c-0.1,0.2-0.4,0.1-1-0.4s-2.1-1.5-2.8-1.7c-0.7-0.3-2.3-0.8-2.9-1c-0.6-0.2-0.7-0.4-0.7-1c0-0.5,0.2-1.3,0.5-1.5
	c0.4-0.3,1.3-0.8,1.8-0.6c0.6,0.2,1.8,0.5,2.2,0.9s1.4,1.2,1.7,1.8c0.4,0.7,0.7,1.5,0.8,1.9C536.9,12.1,537.3,13,537.1,13.3
	 M534.2,29.4c0-1.1,1.5-1.9,2.6-1.7c1.3,0.3,1.8,1.4,1.8,2.3s-0.9,1.8-0.9,1.8c-0.4,0.3-1.5,1-1.6,1.7c-0.2,0.8,0.8,1.7,0.5,2.5
	c-0.3,0.8-1.5,1.1-1.6,1.5c-0.2,0.5,0.9,1.7,0.4,2.1c-0.5,0.4-1.6,0.6-2.2,0.4c-0.6-0.2-2-0.6-3.8-0.8c-1.7-0.2-5.5-0.3-6.7-0.3
	c-1.2,0-4.4,0.3-5.9,0.6c-1.5,0.4-1.9,0.6-3.1,0.8c-1.1,0.2-1.6-0.4-1.8-0.9c-0.3-0.4,0.7-1.5,0.5-2.2c-0.2-0.9-1.4-1.1-1.5-1.5
	c-0.2-0.4,0.8-1.8,0.2-2.3c-0.4-0.3-0.4-0.8-0.9-1s-1.4,0.1-1.8-1.2c-0.5-1-0.2-2.3,1.1-2.8c1-0.4,2.3-0.3,2.8,1.2
	c0.3,0.7,0.1,2.3,0.3,2.6c0.2,0.4,1.7,1.6,1.7,1.6s0.7,0.4,1.2,0.2c0.5-0.2,1.5-0.2,1.5-0.2l0.8-3.3c0,0-0.4-0.4-1-0.9
	c-0.5-0.4-0.7-1.5-0.7-2.1c0-0.7,1.2-1.8,2.3-2.1c1.1-0.3,1.7,0.4,2.3,0.9c0.5,0.5,0.7,2.4,0.2,2.8c-0.5,0.4-1.1,1-1.1,1.4
	c0,0.4,0.6,2.3,1,2.8s1.4,0,2.4-0.1c1.1-0.1,2.8-0.3,2.8-0.3s1.1-2.1,0.9-2.8c-0.2-0.7-0.5-1-0.8-1.5c-0.3-0.5,0.1-1.9,0.4-2.4
	c0.4-0.4,1.4-0.5,2.2-0.6c0.9-0.1,1.6,0.8,1.9,1.3c0.4,0.5,0.1,2.1-0.3,2.5c-0.4,0.4-1.6,1.1-1.6,1.7c0,0.7,1.1,2.1,1.5,2.2
	c0.4,0.1,3.1,0.3,3.6,0.1c0.5-0.2,1.1-2.2,1.1-2.2C533.9,31.3,534.2,30.5,534.2,29.4 M487.7,72.5c0.8,0.4,1.5,0.6,2.4,1.1
	c1,0.4,1.9,1.8,2.6,5.1c0.7,3.2,2.5,3.4,3,3.7c0.5,0.3,3,1.7,3.9,2.4c0.9,0.6,1.1,1.5,0.7,2.7c-0.3,0.9-0.8,2.7-1.2,3.6
	s-1.1,4-1.5,4.5s-0.5,1.1-1.1,0.9s-0.8-0.6-1.1-1.1c-0.3-0.5,0.1-1.5-0.4-2.1c-0.2-0.4,0.7-1.3,0.8-2.1c0.1-0.9,0.4-1.6,0.7-2.5
	c0.3-0.9-1.3-1.1-2-1.3c-0.8-0.2-3-0.4-3.8-0.5c-0.8-0.2-3.5-0.4-4.5-0.2s-0.1,1.1,0.4,1.2c0.5,0.2,1.2,0.2,2.1,0.2s0.9,0.2,0.7,0.6
	c-0.2,0.4-1.2,3.2-1.7,4.6c-0.5,1.5-2.2,4.7-3.3,6.1c-1.1,1.4-2.7,3.4-3.3,3.9c-0.6,0.5-0.6,1.1-0.7,1.7c-0.1,0.7,0.2,3.1,0.1,3.7
	c-0.1,0.6-0.5,1.1-1.2,1.5s-0.9,0.2-1.1-0.4c-0.3-0.6,0-1.5-0.4-2.9c-0.4-1.5-0.5-3-1-3.9c-0.4-1-0.6,1.9-0.5,3
	c0.1,1.1,0.6,3.5,0.4,5.1c-0.2,1.6-0.9,3.8-1.4,4.2s-5.4,4.1-6.8,5c-1.4,1-1.3,2.7-1.1,3.5c0.2,0.8,1.7,4.5,2,4.9
	c0.3,0.4,0,1.3-0.3,1.6c-0.4,0.4-1.1-0.2-1.6-0.3c-0.6-0.1-1.2-0.9-1.4-1.5c-0.3-0.7-0.7-3-0.8-4c-0.1-1.1-0.5-1.9-1.1-2.5
	c-0.5-0.6-0.2-1.7,0.2-2.1c0.4-0.4,0.5-0.9,0.9-1.5c0.4-0.6,0.5-2.3,0.7-3.4c0.2-1.1,0.1-2.8-0.1-3.5c-0.2-0.7,0-3.1,0-3.9
	s0.6-2,0.7-2.9c0.1-0.9,0.2-2.3-0.5-1.6c-0.6,0.7-1.5,4.8-1.5,6.5c0,1.6,0.3,3.2,0.2,4.4c-0.2,1.3-0.4,2.3-0.7,3.1
	c-0.4,0.8-0.6,0.8-0.6,0.8s-0.7-0.5-1.1-1.3c-1.9-16.5,11-21.7,11.8-38.9c1.1-0.8,0.9-0.6,1.9-1.5c1.1-0.9,6.6-3,8.4-3.6
	C486.5,72,486.9,72.1,487.7,72.5 M537.7,60.9c-2.3-0.3-4,0.2-5.3,1c-4.1,2.3-6.9,5.2-7.9,6.1c-1.1,0.9-3.9,4-3.9,4s-0.6-2-0.9-3.5
	c-0.2-1.3-1.3-5.4-1.8-7.8c1.5,1.5,3,3.1,3.3,3.3c0.6,0.5,1.5-0.1,1-0.6c-0.5-0.5-7.9-8.7-8.7-9.2c-0.8-0.5-1.8-1.3-2.5-1.3
	c-0.7,0-3.9-0.4-4.5-0.4c-0.6-0.1-1-0.4-0.6-0.8c0.4-0.4,3.2-2.6,3.6-3.1c0.4-0.4,0.5-0.7,1-1.4c0.4-0.7,2.1-4.2,2.4-4.6
	c0.3-0.5,0.5-0.7,1.2-0.9c0.7-0.2,3.7-0.8,5.5-1c1.8-0.2,6.7-0.2,7.4-0.2c0.9,0,1.5,0.3,1.3,0.8c-0.2,0.5-0.5,1.8-1.2,2.4
	s-2.5,1.2-3.3,1.2s-1,0.6-0.4,1.1c0.5,0.4,1.2,0.9,1.6,1.1c0.4,0.3,0.7,0.4,0.4,0.7c-0.4,0.4-1.8,1.6-2.5,2.3
	c-0.7,0.7-1.8,2.1-2.1,2.6c-0.3,0.5-0.3,1,0.5,1.1c0.8,0.1,2.3-0.4,2.9-0.4c0.6-0.1,0.8-0.4,1.3-0.4s0.9,0,0.7,0.5
	c-0.2,0.5-0.4,1.1-0.7,1.5c-0.3,0.4-0.1,1.1,0.7,0.9c0.8-0.2,3-0.5,3.5-0.5s0.8,0.2,0.7,0.6c-0.1,0.4-1.3,3.6-1.7,4.1
	c-0.4,0.5-0.4,1.2,0.4,1.1c0.7-0.2,2.4-0.9,3-1.3c0.6-0.4,1.7-1.7,2.1-2.1c0.4-0.4,0.5-0.5,1-0.3c0.4,0.3,1.4,0.5,1.7,0.8
	c0.4,0.3,0.5,0,0.5-0.4s0-4.5-0.1-5s0.3-0.3,0.7,0.2c0.4,0.4,1.1,1.6,1.4,2.4c0.3,0.8,0.4,2.4,0.4,3c0.1,0.4,0.3,0.8,0.6,0.8
	c0.4,2,1.7,6.1,1.4,6.2C541.1,64.5,539.9,61.1,537.7,60.9 M488.5,48c0.2,1.1,0.9,1.7,2,3.1c1.2,1.3,2.1,1.7,2.9,2.1
	c0.8,0.4,0.7,0.9-0.1,0.7c-0.8-0.2-1.5-0.1-2.6-0.2c-1.2-0.1-1.5-0.4-1.8-0.9c-0.4-0.4-2.5-3.9-3-4.5c-0.4-0.7-1.1-1-1.8-1.1
	s-3.4-0.4-4-0.4s-0.6-0.3-0.4-0.6c0.3-0.4,1.4-1.3,1.7-1.6c0.4-0.4-0.1-0.8-0.7-1.1c-0.6-0.4-2.2-1.4-2.8-1.8
	c-0.6-0.5-0.1-0.5,0.5-0.5c0.6,0,3.6,0.1,4.2,0.5c0.6,0.4,1.1-0.1,1.5-0.5c0.4-0.4,0.4-1,0.5-1.4c0.2-0.4,0.5-0.3,0.5,0.4
	c0,0.6,0.3,1.5,0.8,2.5c0.5,1,1.1,1.8,2.7,2.5C488.3,46.2,488.3,46.9,488.5,48 M496.6,40.4c0.8,0.2,2.5,1.2,2.9,1.7
	c0.4,0.5,0.4,0.9,1.1,1.1c0.7,0.3,1.8,1.1,2.5,1.4c0.7,0.4,0.5,0.7,0.2,0.7c-0.4,0-1.1,0.2-1.8,0.2c-0.9,0-1.1-0.1-1.1-0.1
	s-0.4,2.4-0.8,3.2c-0.4,0.9-1.5,1.7-2.1,2.4c-0.7,0.7-0.4-1-0.4-1.5s-0.2-1.5-0.4-2.4c-0.3-0.9-0.5-0.5-1.1-0.4
	c-0.6,0.2-1.1,0.2-1.8,0c-0.9-0.2-0.7-0.4-0.4-0.7c0.3-0.4,0.5-0.4,1.3-1.1c0.8-0.7,1.1-1.1,1.3-2.3c0.2-1.3,0.2-1.2-0.3-1.8
	S495.8,40.2,496.6,40.4 M523.4,110c1.3,0,3-0.2,4.4-0.4c0.8,4.9,4,10.1,4,11.3c0,0.1-0.1,0.6-0.3,1.1c-0.4,1.1-1.6,1-1.7,1.2
	c-0.2,0.3,0.3,1.5-0.4,2.6c-0.7,1.2-2.1,1.6-2.4,1.5c-0.2,0.3-0.3,1-0.4,1.4c-0.7,1.3-2.2,1.8-2.9,1.8c-0.8,0-2.4-0.5-3-1.7
	c-0.2-0.4-0.2-1.1-0.4-1.4c-0.3,0.1-1.8-0.5-2.4-1.5c-0.7-1.2-0.2-2.3-0.4-2.6c-0.1-0.2-1.2-0.2-1.5-1c-0.4-0.7-0.4-0.6-0.5-1.3
	c-0.2-1.2,2.8-6.3,3.7-11.5C520.1,109.6,522,110,523.4,110 M546.9,89.4c0.1,0.1,0.2,0.4,0.4,0.7l-0.1,8.9l-4.1-5.2l-4.1,5.1
	l-3.8-4.9c0,0-1.9,1.6-6.2,6c0,0-1.3,4.8-1.5,7.3c-1.3,0.2-3,0.4-4.2,0.4c-1.4,0-3.3-0.4-4.4-0.7c-0.3-2.6-1.6-6.6-2.1-7.1l-5-6
	l-4.4,4.7l-3.7-4.7l-4,5v-6.2c0,0,2.2-6.9,1.9-7.8c-0.3-1-1.9-2.2-1.9-2.2V69.4c0,0,3.6-0.3,4.2-0.4c0.6-0.1,2.8,1.5,4.4,1.3
	c1.6-0.2,1.4-2.3,1.4-2.3h8.6c0.4,1.6,1.2,4.4,1.3,4.8c0.2,0.7,1.2,0.5,1.6-0.1c0.6-0.8,2.8-2.9,4.7-4.7h12.9
	c0.5,0.7,1.1,1.4,1.5,1.6c0.6,0.5,1.2,0.2,1.5-0.2c0.4-0.4,1.6-0.4,1.9-0.8c0.4-0.4,0.8-0.4,1.1,0c0.4,0.4,0.6,0.3,1.3,0.3
	c0.3,0,0.8,0.1,1.3,0.2l-0.1,14.3l-0.3,0.2C545.2,84.8,546.1,88.3,546.9,89.4 M548.6,82.5V69.8l0.9,0.3c1,0.4,0.9,0.4,0.7,0.9
	c-0.2,0.5-0.1,3.6,0,5c0.1,1.5,0.4,3.2,0.6,3.9c0.3,0.7,0.4,0.9,0.7,1.3C550.9,81.4,549.8,81.8,548.6,82.5 M565.1,39.4
	c0.1,0.5,0.9,0.3,1.5,0c0.8-0.3,1.6-0.5,2.4-1c0.8-0.5,1.1-0.2,0.9,0.2c-0.2,0.4-0.6,1.2-1.3,1.7c-0.6,0.5-2,1.5-2.7,1.8
	c-0.8,0.4-0.2,0.9,0.4,0.8c0.5-0.1,1.5,0.1,2.1,0.1c0.7,0,0.4,0.6-0.5,0.9c-0.9,0.2-3.2,1.2-4.2,1.7s-3.5,1.8-4.2,2.4
	c-0.8,0.6-0.9,1.4-1.1,1.7c-0.2,0.4-1.1,0-1.6-0.2c-0.6-0.2-0.5-0.7-0.5-1.1s0.6-2.5,0.6-2.5s0.2,0.1,0.6-0.4c0.5-0.4,1.2-1,1.7-1.4
	c0.5-0.4,2.1-2,3-3.7s1.2-2.2,1.5-3c0.4-0.8,0.6-0.5,0.8,0.1C564.9,38.2,565,38.9,565.1,39.4 M552.6,39.3c-0.5,0.4-0.8,0.5-1.3,1.1
	c-0.5,0.5-0.3,0.7,0.1,1.2c0.4,0.5,1.3,1.7,1.8,2.4c0.6,0.6-0.1,0.5-0.5,0.5s-0.8-0.1-1.4,0c-0.6,0.1-0.7,0.4-1,1.1
	c-0.3,0.7-0.5,1.8-0.7,2.4s-0.6,0.4-0.7-0.1s-1.4-2.4-1.7-3.2c-0.4-0.7-0.4-0.6-1.1-0.6c-0.6,0-1.1,0.1-2.2,0.2
	c-1.1,0.1-0.5-0.5,0.2-1c0.7-0.4,1.6-0.8,2.4-1.2c0.8-0.4,0.8-1.1,1.2-1.7s1.2-1,1.9-1.5c0.8-0.5,1.5-0.2,2.8-0.2
	C552.9,39,553.1,39,552.6,39.3 M575.2,57.8c0.1-0.5,0.1-0.8,0.8-0.6c0.7,0.2,2.1,0.5,2.8,0.8c0.6,0.3,1,0.8,1.4,1.1
	c0.4,0.3,0.5,0.3,0,0.7c-0.6,0.5-1.5,0.7-1.9,0.8s-1.4,0.4-1.8,0.4s-1.4-0.2-1.3-0.7c0.1-0.5,0.3-0.8,0.7-0.9c0.4,0,1.2,0,1.6-0.1
	s0.8-0.7,0.3-0.8c-0.6-0.2-1.1-0.4-1.5-0.4S575.1,58.3,575.2,57.8 M575,52.5c0,0.5-0.7,1.9-0.7,2.5s-0.5,2.7-0.4,3.7
	c0.1,1.3,0.4,2.8,1.1,3.4c0.7,0.5,1.1,0.4,1.8,0.4c0.3,0,1-0.1,1.3-0.4c0.5-0.6,0.3-0.6,0.3-0.6s2.2-1,3-1.3c0.4-0.2,1.2-0.2,1.7,0
	c0.5,1.5-1.5,3-1.9,3.8c-0.6,0.7-1.9,1.3-3.2,1.6c-1.3,0.4-2.9-0.2-3.7-0.6c-0.9-0.5-2-1.7-2.3-2.7c-0.4-1-1.1-2.8-0.8-4
	s0.7-2.2,1.3-3.3c0.6-1.1,1.5-2.1,2-2.8C574.7,51.7,575,52.1,575,52.5 M583,59.6c-0.1,0.2-0.4,0.1-1.1-0.5c-0.6-0.5-2.2-1.5-2.9-1.7
	c-0.7-0.3-2.8-0.9-3.4-1.1c-0.6-0.2-0.3-0.4-0.3-0.9s0.2-1.4,0.5-1.5c0.4-0.3,1.2-0.6,1.8-0.4c0.6,0.2,1.7,0.6,2.1,1s1.5,1,1.9,1.6
	c0.5,0.7,0.8,1.5,0.9,1.9C582.6,58.3,583.2,59.3,583,59.6 M561.3,59.5c0.1-0.5,0.1-0.9,0.6-1.3c0.5-0.4,1.5-1.5,2.2-2
	c0.6-0.4,2.1-1.5,2.5-1.6c0.4-0.3,0.4-0.4,0.8-1c1-1.5,1.5-1.4,2.4-1.5c0.9-0.2,2.3-0.3,2.7,0s0.9,0.4,0.4,0.8
	c-0.4,0.4-1.3,1.5-1.3,1.5s-0.8-0.1-1.4,0.1c-0.6,0.2-0.6,0.3-1.3,0.6c-1.2-0.4-1.3-0.2-0.7,0.7c0.3,0.3,0.9,0.3,0.9,0.3
	s0.3,0.7,0.6,0.6c0.7-0.2,0.7-1.2,0.7-1.2l0.8-0.1l-0.7,2c-0.3,0.6-0.4,1.7-0.1,3.3c0.2,1.1,0.9,2.9,1.5,3.8c0.8,1,2.5,1.9,3.8,2.1
	c1.1,0.1,2.2-0.1,2.2-0.1l-0.2,1.7c-1-0.3-1.7,0.2-2.1,0.8c-0.4,0.5-0.1,0.9-0.1,1.4c0.1,0.5,0.1,1.1,0.1,1.1L574,72
	c0,0-0.6-1.7-0.6-2.1c0-0.4,0.7-0.1,1.1-0.9s0-2.1-0.8-2.5c-0.8-0.4-2.1-0.4-2.4,0.4c-0.4,1.1,0.2,2,0.2,2l-1.9,0.9l-0.8-2
	c0,0,0.9-0.4,1.3-0.9c0.4-0.5,0.1-1.7-0.7-2.1c-0.8-0.4-2-0.4-2.6,0.6c-0.5,0.8-0.2,1.8-0.2,1.8l-1.8,0.5l-0.7-1.7
	c0,0,0.9-0.4,1.1-0.9c0.5-0.8-0.1-1.1-0.1-1.1s-0.2-0.3,0.6-0.2c0.8,0.1,1.2-0.1,1.7-0.1c0.6,0,1.4-0.1,2-0.5c0.4-0.3,0.7-0.7,0.7-1
	c0-0.4,0-0.4-0.7,0c-0.6,0.4-1.1,0.5-1.6,0.6c-0.6,0.1-3,0-3.7,0h-1.7c-0.5-0.1-1-0.4-0.9-0.8c0-0.2,0.2-0.4,0.6-0.3
	c0.8,0.1,1.5,0,1.5,0s0.8-0.5-0.2-0.7c-0.6-0.1-1,0-1.5-0.1C561.7,60.9,561.2,60.1,561.3,59.5 M562.6,72.6c1.8,0.6,7.4,2.7,8.4,3.6
	c1.1,0.9,2,0.7,1.9,1.5c-0.4,14.7,14.5,25.2,11.8,38.9c-0.3,1.2-1,1.3-1,1.3s-0.4,0-0.7-0.8c-0.4-0.8-0.6-1.7-0.7-3.1
	c-0.2-1.3,0.2-2.8,0.2-4.4c0-1.6-0.9-5.8-1.5-6.5c-0.6-0.7-0.5,0.8-0.5,1.6c0.1,0.9,0.7,2.1,0.7,2.9s0.2,3.2,0,3.9s-0.3,2.4-0.1,3.5
	c0.2,1.1,0.4,2.8,0.7,3.4c0.4,0.6,0.5,1.1,0.9,1.5s0.7,1.5,0.2,2.1s-1,1.5-1.1,2.5c-0.1,1.1-0.2,3.4-0.4,4.1
	c-0.3,0.7-1.1,1.5-1.7,1.5c-0.6,0.1-1.3-0.3-1.6-0.6c-0.4-0.4-0.5-0.6-0.2-1.1c0.3-0.4,0.8-4,1-4.7c0.2-0.8,0.8-2.4-0.6-3.4
	c-1.4-1-6-4.7-6.5-5.2c-0.5-0.4-1.2-2.5-1.4-4.2c-0.2-1.6,0.4-4.1,0.4-5.1c0.1-1.1-0.1-4-0.5-3c-0.4,1-0.6,2.4-1,3.9
	c-0.4,1.5-0.1,2.3-0.4,2.9c-0.3,0.6-0.4,0.9-1.1,0.4c-0.7-0.4-1.1-0.9-1.2-1.5s0.2-3,0.1-3.7c-0.1-0.7-0.1-1.2-0.7-1.7
	c-0.6-0.5-2.2-2.5-3.3-3.9s-2.8-4.5-3.3-6.1c-0.5-1.5-1.5-4.3-1.7-4.6s-0.3-0.6,0.7-0.6c1,0,1.6,0,2.1-0.2s1.5-1.1,0.4-1.2
	c-1.1-0.2-3.8,0-4.5,0.2c-0.8,0.2-3,0.4-3.8,0.5c-0.8,0.2-2.3,0.4-2,1.3c0.3,0.9,0.6,1.6,0.7,2.5c0.1,0.9,0.6,1.8,0.4,2.1
	c-0.5,0.7,0.3,1.6,0,2.1c-0.3,0.5-0.5,0.4-1.1,0.6s-0.5-0.6-1-1.2c-0.4-0.6-1-3.2-1.4-4.1c-0.4-0.9-1.1-2.3-1.1-3.3
	s-0.5-2.1,0.4-2.7c0.9-0.6,3.3-2.1,3.9-2.4c0.5-0.3,2.3-0.4,3-3.7c0.7-3.2,1.7-4.6,2.6-5.1c1-0.4,1.6-0.6,2.4-1.1
	C560.4,72.1,560.8,72,562.6,72.6 M586,109.6c-0.1-3.2-2.1-7.8-2.9-9.2c-0.8-1.4-4.6-8.8-5.6-10.5c-1-1.7-2.8-8-3-8.5
	c-0.2-0.5-0.5-2.2-0.4-3.4c0.7,0,1.4-0.3,1.7-0.6c0.4-0.4-0.1-1.6,0.1-1.9c0.2-0.4,0.6-0.2,1-0.6c0.4-0.4,0.2-1.8,0.5-2.4
	c0.8,0.2,1.5-0.3,1.8-0.8c0.8-1.5-0.5-2.9-0.5-2.9l0.6-2.4c0,0,3.4-1.4,4.3-4.4c0.9-3-0.9-5.7-1.5-6.8c-0.7-1.1-2.8-2.2-3.6-2.4
	c-0.9-0.2-1.5-0.3-2.4-0.2c-0.2-0.8-0.6-1.7-1.2-1.5c-0.5,0.3-0.8,0.4-1.3,0.8c-0.4-0.6-3.2-0.9-4.6-0.7c-1.5,0.3-2.1,1.5-2.6,2.6
	c-0.9,0.8-2.1,1.4-2.8,1.7s-1.9,2-2.5,2.6c-0.4,0.4-0.6,1.2-0.5,1.7c0.1,0.4,0.8,1.1,0.6,1.5c-0.2,0.4-0.5,0.9-0.1,1.2
	c0.4,0.4,0.9,0.7,0.5,1.2c-1,1.3,0.5,1.8,0.3,2.4c-0.3,0.5-1.1,0.6-1.5,1.2s0,1.3-0.1,1.7c-0.1,0.4-0.7,0.4-0.9,0.8
	s-0.1,1.4-0.1,1.4s-1,0.1-2.4,0.9c0-1.1-1.8-4.4-2.2-5.2c-0.4-0.8-0.8-1-1.5-1.1c-0.8-0.1-2.8-0.5-3.9-0.8s-4.3-0.4-4.6-0.1
	c-0.4,0.3-1.1,0.3-1.1,0.3s-0.9-0.2-1.5-0.3c0-1.4-0.9-5-1.5-6.6c0.6-0.9,1.6-3.1,1.7-4.1c0.1-1.1,1.3-0.7,1.6-0.4
	c0.4,0.3,2.3,1.9,3.1,2.7c0.8,0.8,2.8,3.9,3,4.5c0.2,0.7,1.1,3.1,1.7,0.8c0.7-2.3,1.2-3.4,1.8-3.3c0.7,0.1,3.9,0.1,5.2-0.6
	c1.3-0.7,1.4-0.3,1.1-1.5c-0.3-1.3-1.4-2.6-1.7-3c-0.4-0.4-0.4-1.1,0-1.5c0.4-0.5,2.1-2.9,3-3.4c0.9-0.5,5.6-2.5,6.4-3
	c0.8-0.5,2.7-1.6,3.1-2.1c0.4-0.5,0.3-1-0.4-1s-1,0-1.4-0.1c-0.4-0.1-0.7-0.4-0.2-0.8c0.5-0.4,2.5-1.8,3.2-4.6
	c0.1-0.9-0.4-1.1-1.1-0.5c-0.7,0.5-3.2,1.8-4.1,2.2c-1,0.4-1.1,0.3-1.1-0.6c-0.1-0.9-0.4-2.4-0.6-2.9c-0.3-0.5-0.9-0.4-1.1,0.4
	c-0.3,0.8-2.3,4-3,5.3c-0.7,1.3-2.6,2.8-3,3.2c-0.4,0.4-0.7,0.8-0.8-0.3c-0.1-1.1-1.1-4.2-1.7-4.6c-0.7-0.5-1.5-2-5.1-1.6
	c-2.4,0.3-3.6,2.8-4.1,3.4s-1.7,0.9-2.4,1.5c-0.7,0.6-2.1,1.5-2.5,2s-0.6,1.1,0.3,1.3c0.9,0.2,3.2,0.1,4-0.1
	c0.8-0.2,1.1-0.1,1.2,0.4c0.1,0.5,1,1.7,1.2,2.1c0.3,0.4,0.1,0.4-0.4,0.8c-0.5,0.4-1.6,0.8-3.5,0.4c-1.8-0.4-5-1.7-6.6-3.3
	c-1.5-1.6-2.5-4.8-2.5-4.8s1.3-0.4,1.5-1.3c0.3-0.9-0.5-1.5-0.5-1.8s1.2-0.6,1.5-1.7c0.3-1.1-0.7-1.7-0.6-2.2c0.1-0.5,1.6-1.1,2-1.6
	c0.4-0.6,1.1-2.2,0.4-3.7s-2.3-1.9-3.1-1.8c-0.8,0.1-2.8,1.1-2.8,2.4c0,1.5,0.4,2,0.6,2.4c0.2,0.4-0.3,1.1-0.6,1.4
	c-0.3,0.2-0.7-0.1-0.8-0.8c0.3-1.5,0.3-4.1,0.5-5.5c0.2-1.5-0.7-2.2,0.1-4.4c0.7-2.1,1.5-2.9,1.5-2.9s2.4-1.2,3.3-4.1
	c0.9-3-0.7-5.4-1.4-6.4c-0.7-1.1-2.8-2.2-3.6-2.4c-0.9-0.2-1.5-0.3-2.4-0.2c-0.2-0.8-0.6-1.7-1.2-1.5c-0.5,0.3-0.8,0.4-1.3,0.8
	c-0.4-0.6-3.6-0.6-5-0.3s-2.8,1.7-3.4,3c-0.8,1.2-2.1,1.4-2.9,1.7c-0.7,0.4-2.1,1.5-2.7,2c-0.4,0.4-0.6,1.2-0.5,1.7
	c0,0.2,0.1,0.5,0.5,0.7c0.2,0.1,3.7-0.9,3.3,0.9c-0.2,0.5-3.3,0.3-3.2,0.2c-0.1,0.3-0.2,0.5,0,0.9c0.3,0.6,0.3,1,3,1.3
	c2.9,0.7,2.4,2.1,1,3.8c-1.4,1.5-2.7,1.8-3.9,3.6c-0.7,1.2-1.5,2.3-1.3,4.4c-0.2-0.3-0.3-0.5-0.6-0.9c-0.4-0.6-1-0.8-1.6-0.9
	s-1.6,0.1-2.2,0.6c-0.7,0.5-1.5,1.7-1.3,2.7c0.2,0.9,1,2.2,1.5,2.4c0.6,0.2,1.2,0.3,1.2,0.3l0.6,0.8l-0.6,0.9
	c-0.2,0.3,0,1.5,0.6,1.6c0.5,0.2,0.8,0.2,1,0.8s0.1,0.9-0.1,1.2c-0.3,0.3-0.6,1.3-0.1,1.7c0.5,0.5,0.5,0.3,0.7,0.5
	c0.2,0.3,0.2,0.5,0,0.7s-1,1.5-1.2,2.1c-0.2,0.7-0.8,2-1.1,2.5c-0.3,0.6-0.7,1-1.5,1.2c-0.7,0.3-3.6,0.9-4.6,1.1
	c-1.1,0.2-2.8,0.1-2.8,0.1s0.9-1,1.1-1.9c0,0,1-0.2,1.5-0.3c0.7-0.1,1.9-0.1,2.3,0c0.2,0,0.6-0.6,0.1-1.2c-0.4-0.7-2.5-2.7-4.9-3.5
	c-1.1-1.8-3.6-3-6-2.8c-2.4,0.2-5.7,3.2-6.1,4.4c-1-0.1-2.8-3-3.2-7.3c-0.2-0.8-0.8-0.7-1,0c-0.2,0.7-1.6,3.7-1.7,4
	c-0.1,0.3-5.5-0.4-7,0c-1.5,0.4-0.3,1,0,1.3c0.3,0.3,3.4,2.9,3.8,3.1c-0.3,0.6-1.3,1.5-1.5,2c-0.4,0.4-0.3,1.3,0.7,1.4
	c1.1,0.1,4.9,0.8,5.6,0.9c0.4,0.8,4.9,7.5,4.9,7.5s-1.1,2-2,2.5c-1,0.5,6.8,1.1,6.8,1.1s1.1,2.5,1.7,3.4c2.3-2.1,6.4-5.6,7.9-6.2
	c1.5-0.6,1.4-0.1,1.3,0.4c-0.1,0.5-0.4,1.5-0.6,2.2c-0.2,0.7,0.1,1.2,0.8,0.9c0.7-0.4,2.8-2,3.2-2.4c0.4-0.4,0.6-0.3,1,0.2
	c0.4,0.4,0.9,1,1.2,1.5c0.4,0.5,0.4,0.4,0.8,0.1c0.4-0.4,1.9-2.6,2.1-3c0.2-0.4,0.4-0.7,0.6-0.4c0.1,0.2,1.7,1.8,3.5,3.6
	c-0.2,1.5,0.2,4.6,0.4,6.2H510c0-0.2,0-0.4-0.4-0.5c-0.7-0.1-3.6-1.1-4.2-1c-0.6,0.1-1.5,0.3-1.5,0.3s-0.6,0-1.1-0.3
	c-0.4-0.3-3.6-0.2-4.6,0.1c-1.1,0.3-3.2,0.7-3.9,0.8c-0.8,0.1-1.2,0.3-1.5,1.1c-0.4,0.8-2.2,4.1-2.2,5.2c-1.5-0.8-2.4-0.9-2.4-0.9
	s0.1-1.1-0.1-1.4c-0.2-0.4-0.8-0.4-0.9-0.8c-0.1-0.4,0.3-1.1-0.1-1.7c-0.4-0.6-1.6-1.3-1.8-1.7c0,0,1.3-0.8,0.7-1.7
	c-0.3-0.6,0.2-0.9,0.5-1.2c0.4-0.4,0.1-0.9-0.1-1.2c-0.2-0.4,0.5-1.1,0.6-1.5c0.1-0.6-0.1-1.4-0.5-1.7c-0.6-0.6-1.8-2.1-2.5-2.6
	c-0.7-0.4-1.9-1.1-2.8-1.7c-0.5-1.2-1.2-2.4-2.6-2.6c-1.5-0.3-4.3,0.1-4.6,0.7c-0.5-0.5-0.8-0.6-1.3-0.8c-0.5-0.3-1,0.7-1.2,1.5
	c-0.9-0.1-1.5,0-2.4,0.2c-0.9,0.2-2.9,1.4-3.6,2.4c-0.7,1.1-2.2,3.5-1.4,6.4c0.9,3,4.1,4.6,4.1,4.6l0.6,2.4c0,0-1.3,0.9-0.6,2.5
	c0.4,0.9,1.5,1.7,2.2,1.5c0.4,0.6-0.1,1.7,0.3,2.1c0.4,0.4,0.8,0.3,1,0.6c0.2,0.4-0.4,1.6,0.1,1.9c0.4,0.4,1.1,0.6,1.7,0.6
	c0.2,1.2-0.2,2.9-0.4,3.4c-0.2,0.5-2,6.7-3,8.5c-1,1.7-4.8,9.2-5.6,10.5s-2.8,6.1-2.9,9.2c-0.1,3.2-0.2,5.6,0.4,7.9
	c0.2,0.7,1.7,1.4,1.7,1.4s-0.4,1.5-0.4,2.2s1.1,3.5,1.5,4.4c0.4,0.9,0.7,4,1,4.5c0.3,0.5,0.8,0.6,1.1,0.7c0.4,0.1,1.3,2.7,1.2,3.3
	c-0.1,0.6,0.3,1.1,0.9,1.2c0.6,0.1,2,0.2,2.8,0.3c0.8,0.1,1.5-0.5,1.1-1.2c-0.4-0.7-2-3.9-2-3.9s0.2-0.7,0.1-1.2s0.3-0.8-0.2-1.6
	c-0.4-0.9-0.8-3.6-1.2-4.2c-0.4-0.6-0.3-1.6,0.5-1.9c0.8-0.4,4-3.1,4.8-3.6c0.9-0.5,1.7-1.1,2.1-1.5c0.4-0.4,1.2-1.6,1.3-2
	s0.4-2.6,0.4-2.6c0.7,0.4,0.5,1.5,0.6,2.1c0.3,1.1,0,2.3,0,2.9s-0.3,2,1.1,2c1.4,0,8.3,0.9,8.8,1.3c0.5,0.4,1.6,1,2.1,0.6
	s0.7-0.4,0.8,0s0.9,1.8,1.1,2.5c0.2,0.7,0.4,1.1,1.3,0.9c0.9-0.3,2.9-0.6,3.4-0.8c0.5-0.2,1.1-0.5,0.6-1.1c-0.5-0.5-1.1-2.1-1.1-2.1
	l-1.3-0.4c0,0,0.1-0.6,0-1.1c-0.1-0.5-0.5-1.5-1.2-1.7c-0.7-0.4-4-2.1-4.5-2.2s-2.4-0.8-3-0.8s-1.4-0.4-1-1c0.4-0.6,1.3-3.5,1.5-4.8
	c0.3-1.4,0.3-3.8-0.2-4.4c-0.4-0.7-2-1.7-2-1.7s2-2.9,2.8-4.5c0.8-1.7,3.4-7.1,3.4-8.8c1.3,0,2.5,0.4,2.9,0.4
	c0.4,0.1,0.8,0.8,0.6,1.3c-0.2,0.5-0.4,1.6-0.7,2.2c-0.3,0.6,0.1,1.3,0.4,1.6c0.3,0.4-0.3,1.3-0.6,1.6c-0.3,0.4-1,3.1-1,3.1
	s-0.2,0.7,0.4,1.1c0.5,0.4,1.3,1.8,1.7,2.4c0.4,0.5,1.1,0.4,1.2-0.2c0.2-0.6,1-2.6,1.1-3.1c0.1-0.4,0-0.7-0.2-1.1s0.5-1.2,0.8-1.6
	c0.2-0.3,0.3-0.6,0.5-1c0,16.2,6.4,31.7,24.5,45l0.7,0.5l0.7-0.5c18.1-13.3,24.5-28.8,24.5-44.9v-1.3c0.2,0.6,0.5,1.5,0.9,2
	c0.2,0.4,1,1.2,0.8,1.6c-0.2,0.4-0.3,0.7-0.2,1.1s0.9,2.5,1.1,3.1c0.2,0.6,0.8,0.7,1.2,0.2c0.4-0.5,1.2-1.9,1.7-2.4
	c0.5-0.4,0.4-1.1,0.4-1.1s-0.7-2.6-1-3.1c-0.3-0.4-0.8-1.3-0.6-1.6c0.3-0.4,0.7-1.1,0.4-1.6c-0.3-0.6-0.5-1.7-0.7-2.2
	c-0.2-0.5,0.2-1.2,0.6-1.3c0.4-0.1,1.6-0.4,2.9-0.4c0,1.7,2.6,7.1,3.4,8.8c0.8,1.7,2.8,4.5,2.8,4.5s-1.6,1.1-2,1.7
	c-0.4,0.7-0.4,3.1-0.2,4.4c0.3,1.4,1.1,4.3,1.5,4.8c0.4,0.6-0.4,1-1,1s-2.4,0.7-3,0.8s-3.9,1.8-4.5,2.2s-1.1,1.3-1.2,1.7
	c-0.1,0.5,0,1.1,0,1.1l-1.3,0.4c0,0-0.6,1.6-1.1,2.1s0.1,0.9,0.6,1.1s2.5,0.5,3.4,0.8c0.9,0.3,1.1-0.2,1.3-0.9
	c0.2-0.7,1-2.2,1.1-2.5c0.1-0.4,0.3-0.4,0.8,0s1.6-0.2,2.1-0.6s7.4-1.3,8.8-1.3s1.1-1.5,1.1-2s-0.3-1.7,0-2.9
	c0.1-0.6-0.1-1.7,0.6-2.1c0,0,0.3,2.2,0.4,2.6c0.1,0.4,0.9,1.6,1.3,2c0.4,0.4,1.3,1,2.1,1.5c0.9,0.5,4.1,3.2,4.8,3.6
	c0.8,0.4,1,1.4,0.5,1.9c-0.4,0.6-0.8,3.3-1.2,4.2c-0.4,0.9-0.1,1.1-0.2,1.6c-0.1,0.5,0.1,1.2,0.1,1.2s-1.7,3.2-2,3.9
	c-0.4,0.7,0.4,1.3,1.1,1.2c0.8-0.1,2.2-0.2,2.8-0.3c0.6-0.1,1-0.6,0.9-1.2c-0.1-0.6,0.9-3.2,1.2-3.3c0.4-0.1,0.9-0.2,1.1-0.7
	c0.3-0.5,0.5-3.7,1-4.5c0.4-0.9,1.5-3.6,1.5-4.4s-0.4-2.2-0.4-2.2s1.5-0.7,1.7-1.4C586.2,115.2,586.1,112.7,586,109.6"/>
<path d="M531.8,12.1l1,0.3l0.6,0.4l-0.4,0.4l-1,0.6l-0.4,0.6l-1,0.6l-0.8-0.5l-0.2-1.2c0,0-0.3-0.9,0.4-1.5
	C530.8,11.2,531.8,12.1,531.8,12.1L531.8,12.1z M530.5,64c0.6-0.4,2.7-1.5,3.9-2c1.3-0.5,3.4-0.3,4,0.1c0.7,0.3,1.6,2.3,1.3,2.3
	s-1.4,0.1-1.8,0.3c-0.5,0.3-0.7,0.4-0.8,0.9c-0.1,0.5,0.6,0.7,0.6,0.7h-9.9C527.8,66.3,529.9,64.4,530.5,64L530.5,64z M561.8,103.6
	c0.4-0.8,0.4-1.2,1.2-0.9c0.8,0.3,0.4,0.6,1.2,1.2c0.8,0.6,1.2,0.7,1.3,1.3c0.1,0.6-0.4,2.3-0.1,3.3c0.3,1.1,1.1,1.9,1.6,2.4
	c0.5,0.5,0.2,1.4,0.2,2.7s0.5,2,0,2.5c-0.5,0.5-0.3,0.7-1.1,0.9c-0.9,0.2-2.5,0.4-3.5,0.6s-2.3,0.9-3.3,1c-1.1,0.1-1.5,0.4-2.2,0.5
	c-0.8,0.1-0.7,0.3-1.7,0c-0.7-0.2-0.7-0.4-1.4-0.8s-0.2-0.6,0.9-1.1c1.1-0.5,2.4-1.2,3.4-1.6c1.1-0.4,0.4-0.2,2.4-0.6
	c2.2-0.5,2.8-1.4,2.5-2.2c-0.4-1-1.2-3.7-1.5-4.5c-0.3-0.9-0.4-2.4-0.4-3.1C561.2,104.5,561.4,104.4,561.8,103.6L561.8,103.6z
	 M544.5,66.6c-0.1-0.5,0-0.9,0.7-0.8c0.7,0.1,1.5-0.2,3.1,0.1c1.5,0.3,2.5,0.5,3.5,0.7c1,0.2,2,0.3,2.2,1.1c0.2,0.9,1.1,1.9,1.1,2.7
	c0.1,0.8,0.7,2.3,0.4,2.9c-0.3,0.6-1.1,1.1-1.2,1.8c-0.2,0.8-0.7,3.6-1,4.3c-0.3,0.7-0.3,1-1,1.2c-0.7,0.3-0.8-0.6-0.9-1.5
	c-0.1-0.9-0.3-3.6-0.5-4.5c-0.3-1.3,0.2-4.1,0.2-4.4s-0.7-0.6-1.4-0.9c-0.6-0.4-2.1-0.7-2.9-1c-0.8-0.3-1.4-0.1-1.8-0.4
	C544.7,67.7,544.6,67,544.5,66.6L544.5,66.6z M486.1,105.2c0,0.7-0.2,2.2-0.4,3.1c-0.3,0.9-0.8,3.5-1.1,4.4c-0.5,1.3-1.2,2,2.4,2.8
	c1.9,0.4,1.4-0.1,2.3,0.3c1.1,0.4,2.3,1,3.4,1.5c1.1,0.5,1.5,0.7,0.9,1.2c-0.7,0.4-1,0.6-1.5,0.8c-1.1,0.3-1.2,0.1-1.9,0
	c-0.8-0.1-1.1-0.4-2-0.5c-1.1-0.1-2.4-0.8-3.3-1c-1-0.2-2.6-0.4-3.5-0.6c-0.9-0.2-0.6-0.4-1.1-0.9c-0.5-0.5,0-1.2,0-2.5
	s-0.4-2.2,0.2-2.7c0.5-0.5,1.3-1.5,1.6-2.4c0.4-1.1-0.2-2.7-0.1-3.3c0.1-0.6,0.5-0.7,1.3-1.3c0.8-0.6,0.4-0.9,1.2-1.2
	c0.8-0.3,0.8,0.1,1.2,0.9C485.9,104.4,486.1,104.5,486.1,105.2z M502.3,68.2c-0.5,0.3-1.3-0.1-2,0.1c-0.8,0.3-2.4,0.7-3,1.1
	c-0.6,0.4-0.9,0.7-0.9,1.1s0.3,3,0,4.3c-0.2,1-0.5,3.7-0.6,4.5c-0.1,0.9-0.2,1.7-0.9,1.5c-0.7-0.3-0.7-0.5-1-1.2
	c-0.3-0.7-0.8-3.5-1-4.3c-0.2-0.8-1-1.3-1.2-1.8c-0.3-0.6,0.4-2.1,0.4-2.9c0.1-0.8,1-1.8,1.1-2.7c0.2-0.9,1.3-1,2.2-1.1
	c1-0.2,1.9-0.4,3.5-0.7s2.3,0,3-0.1c0.7-0.1,0.8,0.2,0.7,0.8C502.7,67,502.8,67.9,502.3,68.2z M495.9,81.2c0.4-0.4,0.4-0.6,0.7-1.3
	c0.3-0.7,0.5-2.4,0.6-3.9s0.2-4.5,0-5c-0.2-0.5-0.3-0.5,0.7-0.9l0.7-0.3l-0.1,12.5C497.3,81.7,496.4,81.4,495.9,81.2L495.9,81.2z
	 M473,52.2c0.5,0.6,1.4,1.7,1.9,2.8c0.5,1.1,1,2.2,1.2,3.3c0.3,1.2-0.4,3-0.7,4c-0.4,1-1.5,2.2-2.2,2.8c-0.8,0.5-2.3,1-3.6,0.6
	c-1.3-0.4-2.5-0.9-3.1-1.6c-0.5-0.7-2.4-2.3-1.9-3.8c0.5-0.2,1.3-0.2,1.6,0c0.8,0.3,2.9,1.3,2.9,1.3s-0.2,0,0.3,0.6
	c0.3,0.3,1,0.4,1.2,0.4c0.7,0,1.2,0.2,1.7-0.4c0.6-0.5,0.9-2.1,1-3.4c0.1-1-0.4-3.1-0.4-3.7s-0.7-2-0.7-2.5
	C472.3,52,472.5,51.6,473,52.2L473,52.2z M471.2,58.1c-0.5,0-1,0.2-1.5,0.4c-0.6,0.2-0.2,0.7,0.3,0.8s1.3,0.1,1.6,0.1
	c0.4,0,0.6,0.4,0.7,0.9c0.1,0.5-0.8,0.6-1.3,0.7c-0.5,0-1.4-0.3-1.8-0.4c-0.5-0.1-1.4-0.4-1.9-0.8c-0.6-0.5-0.5-0.4,0-0.7
	c0.4-0.3,1-0.6,1.5-0.9c0.6-0.3,1.9-0.9,2.6-1.1c0.7-0.2,0.7,0.1,0.8,0.6C472.2,58.3,471.6,58.1,471.2,58.1L471.2,58.1z M464.8,58.1
	c0.1-0.5,0.3-1.4,0.8-2.1c0.5-0.7,1.5-1.6,1.8-1.9c0.4-0.4,1.7-0.7,2.3-0.9s1.5,0.4,1.9,0.7c0.4,0.3,0.6,1.1,0.6,1.6s-0.1,0.8-0.7,1
	c-0.6,0.2-2.3,0.7-3,1c-0.7,0.3-2.3,1.3-2.9,1.8c-0.7,0.6-1,0.7-1.1,0.5C464.3,59.3,464.7,58.3,464.8,58.1L464.8,58.1z M485.2,61
	c-0.4,0.1-0.8-0.1-1.5,0.1c-1,0.2-0.2,0.7-0.2,0.7s0.7,0.1,1.5,0c0.4,0,0.5,0.1,0.6,0.3c0.1,0.5-0.4,0.8-0.9,0.8
	c-0.5,0.1-1.1,0-1.7,0s-3.1,0.1-3.7,0c-0.6-0.1-1.1-0.2-1.6-0.6c-0.7-0.5-0.7-0.4-0.7,0s0.4,0.7,0.7,1c0.4,0.3,1.5,0.5,2.1,0.5
	c0.6,0,1,0.2,1.7,0.1c0.8-0.1,0.5,0.2,0.5,0.2s-0.4,0.2-0.1,1.1c0.2,0.6,1.1,0.9,1.1,0.9l-0.7,1.7l-1.8-0.5c0,0,0.4-1.2,0-2
	c-0.4-0.9-2-0.6-2.8-0.4c-0.8,0.3-1.2,1.7-0.9,2.2c0.4,0.5,1.1,0.9,1.1,0.9l-0.5,1.9l-1.7-0.9c0,0,0.4-1.5,0-2.1
	c-0.4-0.7-1.6-0.7-2.4-0.4c-0.8,0.4-1.2,1.7-0.8,2.5c0.4,0.8,1.1,0.5,1.1,0.9s-0.6,2.1-0.6,2.1l-1.7-0.4c0,0,0.1-0.7,0.2-1.2
	c0.1-0.5,0.1-1.1-0.2-1.5c-0.4-0.5-0.8-0.7-1.8-0.7l-0.4-1.5c0,0,1.2,0.2,2.2,0.1c1.3-0.2,3-1.2,3.8-2.1c0.8-0.9,1.5-2.7,1.5-3.8
	c0.1-0.9,0.2-2.7-0.1-3.3c-0.3-0.6-0.6-1.9-0.6-1.9l0.5,0.2c0,0,0.3,0.8,0.6,0.9c0.2,0.1,0.3,0.4,0.7,0.2c0.3-0.3,0.1-0.8,0.1-0.8
	s0.5,0.1,1.2,0.1c0.8-0.5,1.1-0.8-0.3-0.7c-0.7-0.2-1.2-0.3-1.7-0.5c-0.6-0.2-1.3-0.1-1.3-0.1s-1-1.4-1.5-1.7
	c-0.4-0.4,0-0.5,0.4-0.8c0.4-0.3,2.1-0.3,2.9-0.1c0.9,0.2,1.6,0.8,2.1,1.6c0.3,0.5,0.4,0.7,0.8,1c0.4,0.3,1.8,1.3,2.5,1.6
	c0.6,0.4,1.6,1.6,2.2,2c0.5,0.4,0.5,0.7,0.6,1.3C486.1,60.1,485.6,60.9,485.2,61L485.2,61z M522.2,8.9c0.3,0.3,0.4,0.4,0.7,0.4
	s0.6-0.3,0.7-0.5c0.1-0.2,1.1-0.3,1-0.1c0,0.3,0,0.4-0.2,0.7c-0.1,0.3-0.7,1.2-1.2,1.2c-1.5,0-1.8-1-1.9-1.2S521.9,8.6,522.2,8.9z
	 M515.3,12c0.4-0.1,1.5-0.4,1.2,0.2c-0.4,0.5-0.8,0.7-1.3,0.9c-0.5,0.3-0.7,0.1-0.6-0.2C514.8,12.6,514.9,12.1,515.3,12L515.3,12z
	 M529.4,6.7c0,0.5-0.7,1.8-0.7,2.4s-0.5,2.6-0.4,3.6c0.1,1.2,0.4,2.7,1,3.2s1.1,0.4,1.7,0.4c0.3,0,1-0.1,1.2-0.4
	c0.5-0.6,0.3-0.6,0.3-0.6s2.1-1,2.8-1.3c0.4-0.1,1.2-0.2,1.6,0c0.5,1.4-1.4,2.9-1.8,3.6s-1.9,1.5-3.2,1.7c-1.2,0.4-2.8-0.1-3.7-0.4
	c-0.9-0.4-1.8-1.9-2.2-2.9c-0.3-1-0.6-2.9-0.4-4.1c0.3-1.1,0.7-2.2,1.2-3.2c0.5-1.1,1.5-2,1.8-2.7C529.2,5.8,529.4,6.2,529.4,6.7z
	 M537.1,13.3c-0.1,0.2-0.4,0.1-1-0.4s-2.1-1.5-2.8-1.7c-0.7-0.3-2.3-0.8-2.9-1c-0.6-0.2-0.7-0.4-0.7-1c0-0.5,0.2-1.3,0.5-1.5
	c0.4-0.3,1.3-0.8,1.8-0.6c0.6,0.2,1.8,0.5,2.2,0.9s1.4,1.2,1.7,1.8c0.4,0.7,0.7,1.5,0.8,1.9C536.9,12.1,537.3,13,537.1,13.3
	L537.1,13.3z M534.2,29.4c0-1.1,1.5-1.9,2.6-1.7c1.3,0.3,1.8,1.4,1.8,2.3s-0.9,1.8-0.9,1.8c-0.4,0.3-1.5,1-1.6,1.7
	c-0.2,0.8,0.8,1.7,0.5,2.5c-0.3,0.8-1.5,1.1-1.6,1.5c-0.2,0.5,0.9,1.7,0.4,2.1c-0.5,0.4-1.6,0.6-2.2,0.4c-0.6-0.2-2-0.6-3.8-0.8
	c-1.7-0.2-5.5-0.3-6.7-0.3c-1.2,0-4.4,0.3-5.9,0.6c-1.5,0.4-1.9,0.6-3.1,0.8c-1.1,0.2-1.6-0.4-1.8-0.9c-0.3-0.4,0.7-1.5,0.5-2.2
	c-0.2-0.9-1.4-1.1-1.5-1.5c-0.2-0.4,0.8-1.8,0.2-2.3c-0.4-0.3-0.4-0.8-0.9-1s-1.4,0.1-1.8-1.2c-0.5-1-0.2-2.3,1.1-2.8
	c1-0.4,2.3-0.3,2.8,1.2c0.3,0.7,0.1,2.3,0.3,2.6c0.2,0.4,1.7,1.6,1.7,1.6s0.7,0.4,1.2,0.2c0.5-0.2,1.5-0.2,1.5-0.2l0.8-3.3
	c0,0-0.4-0.4-1-0.9c-0.5-0.4-0.7-1.5-0.7-2.1c0-0.7,1.2-1.8,2.3-2.1c1.1-0.3,1.7,0.4,2.3,0.9c0.5,0.5,0.7,2.4,0.2,2.8
	c-0.5,0.4-1.1,1-1.1,1.4c0,0.4,0.6,2.3,1,2.8s1.4,0,2.4-0.1c1.1-0.1,2.8-0.3,2.8-0.3s1.1-2.1,0.9-2.8c-0.2-0.7-0.5-1-0.8-1.5
	c-0.3-0.5,0.1-1.9,0.4-2.4c0.4-0.4,1.4-0.5,2.2-0.6c0.9-0.1,1.6,0.8,1.9,1.3c0.4,0.5,0.1,2.1-0.3,2.5c-0.4,0.4-1.6,1.1-1.6,1.7
	c0,0.7,1.1,2.1,1.5,2.2c0.4,0.1,3.1,0.3,3.6,0.1c0.5-0.2,1.1-2.2,1.1-2.2C533.9,31.3,534.2,30.5,534.2,29.4z M487.7,72.5
	c0.8,0.4,1.5,0.6,2.4,1.1c1,0.4,1.9,1.8,2.6,5.1c0.7,3.2,2.5,3.4,3,3.7c0.5,0.3,3,1.7,3.9,2.4c0.9,0.6,1.1,1.5,0.7,2.7
	c-0.3,0.9-0.8,2.7-1.2,3.6s-1.1,4-1.5,4.5s-0.5,1.1-1.1,0.9s-0.8-0.6-1.1-1.1s0.1-1.5-0.4-2.1c-0.2-0.4,0.7-1.3,0.8-2.1
	c0.1-0.9,0.4-1.6,0.7-2.5c0.3-0.9-1.3-1.1-2-1.3c-0.8-0.2-3-0.4-3.8-0.5c-0.8-0.2-3.5-0.4-4.5-0.2s-0.1,1.1,0.4,1.2
	c0.5,0.2,1.2,0.2,2.1,0.2s0.9,0.2,0.7,0.6c-0.2,0.4-1.2,3.2-1.7,4.6c-0.5,1.5-2.2,4.7-3.3,6.1c-1.1,1.4-2.7,3.4-3.3,3.9
	c-0.6,0.5-0.6,1.1-0.7,1.7c-0.1,0.7,0.2,3.1,0.1,3.7c-0.1,0.6-0.5,1.1-1.2,1.5s-0.9,0.2-1.1-0.4c-0.3-0.6,0-1.5-0.4-2.9
	c-0.4-1.5-0.5-3-1-3.9c-0.4-1-0.6,1.9-0.5,3c0.1,1.1,0.6,3.5,0.4,5.1c-0.2,1.6-0.9,3.8-1.4,4.2s-5.4,4.1-6.8,5
	c-1.4,1-1.3,2.7-1.1,3.5c0.2,0.8,1.7,4.5,2,4.9c0.3,0.4,0,1.3-0.3,1.6c-0.4,0.4-1.1-0.2-1.6-0.3c-0.6-0.1-1.2-0.9-1.4-1.5
	c-0.3-0.7-0.7-3-0.8-4c-0.1-1.1-0.5-1.9-1.1-2.5c-0.5-0.6-0.2-1.7,0.2-2.1c0.4-0.4,0.5-0.9,0.9-1.5c0.4-0.6,0.5-2.3,0.7-3.4
	c0.2-1.1,0.1-2.8-0.1-3.5c-0.2-0.7,0-3.1,0-3.9s0.6-2,0.7-2.9c0.1-0.9,0.2-2.3-0.5-1.6c-0.6,0.7-1.5,4.8-1.5,6.5
	c0,1.6,0.3,3.2,0.2,4.4c-0.2,1.3-0.4,2.3-0.7,3.1c-0.4,0.8-0.6,0.8-0.6,0.8s-0.7-0.5-1.1-1.3c-1.9-16.5,11-21.7,11.8-38.9
	c1.1-0.8,0.9-0.6,1.9-1.5c1.1-0.9,6.6-3,8.4-3.6C486.5,72,486.9,72.1,487.7,72.5L487.7,72.5z M537.7,60.9c-2.3-0.3-4,0.2-5.3,1
	c-4.1,2.3-6.9,5.2-7.9,6.1c-1.1,0.9-3.9,4-3.9,4s-0.6-2-0.9-3.5c-0.2-1.3-1.3-5.4-1.8-7.8c1.5,1.5,3,3.1,3.3,3.3
	c0.6,0.5,1.5-0.1,1-0.6c-0.5-0.5-7.9-8.7-8.7-9.2c-0.8-0.5-1.8-1.3-2.5-1.3c-0.7,0-3.9-0.4-4.5-0.4c-0.6-0.1-1-0.4-0.6-0.8
	c0.4-0.4,3.2-2.6,3.6-3.1c0.4-0.4,0.5-0.7,1-1.4c0.4-0.7,2.1-4.2,2.4-4.6c0.3-0.5,0.5-0.7,1.2-0.9c0.7-0.2,3.7-0.8,5.5-1
	c1.8-0.2,6.7-0.2,7.4-0.2c0.9,0,1.5,0.3,1.3,0.8c-0.2,0.5-0.5,1.8-1.2,2.4c-0.7,0.6-2.5,1.2-3.3,1.2s-1,0.6-0.4,1.1
	c0.5,0.4,1.2,0.9,1.6,1.1c0.4,0.3,0.7,0.4,0.4,0.7c-0.4,0.4-1.8,1.6-2.5,2.3c-0.7,0.7-1.8,2.1-2.1,2.6c-0.3,0.5-0.3,1,0.5,1.1
	c0.8,0.1,2.3-0.4,2.9-0.4c0.6-0.1,0.8-0.4,1.3-0.4s0.9,0,0.7,0.5c-0.2,0.5-0.4,1.1-0.7,1.5c-0.3,0.4-0.1,1.1,0.7,0.9
	c0.8-0.2,3-0.5,3.5-0.5s0.8,0.2,0.7,0.6c-0.1,0.4-1.3,3.6-1.7,4.1c-0.4,0.5-0.4,1.2,0.4,1.1c0.7-0.2,2.4-0.9,3-1.3
	c0.6-0.4,1.7-1.7,2.1-2.1s0.5-0.5,1-0.3c0.4,0.3,1.4,0.5,1.7,0.8c0.4,0.3,0.5,0,0.5-0.4s0-4.5-0.1-5s0.3-0.3,0.7,0.2
	c0.4,0.4,1.1,1.6,1.4,2.4c0.3,0.8,0.4,2.4,0.4,3c0.1,0.4,0.3,0.8,0.6,0.8c0.4,2,1.7,6.1,1.4,6.2C541.1,64.5,539.9,61.1,537.7,60.9
	L537.7,60.9z M488.5,48c0.2,1.1,0.9,1.7,2,3.1c1.2,1.3,2.1,1.7,2.9,2.1s0.7,0.9-0.1,0.7c-0.8-0.2-1.5-0.1-2.6-0.2
	c-1.2-0.1-1.5-0.4-1.8-0.9c-0.4-0.4-2.5-3.9-3-4.5c-0.4-0.7-1.1-1-1.8-1.1s-3.4-0.4-4-0.4s-0.6-0.3-0.4-0.6c0.3-0.4,1.4-1.3,1.7-1.6
	c0.4-0.4-0.1-0.8-0.7-1.1c-0.6-0.4-2.2-1.4-2.8-1.8c-0.6-0.5-0.1-0.5,0.5-0.5c0.6,0,3.6,0.1,4.2,0.5c0.6,0.4,1.1-0.1,1.5-0.5
	c0.4-0.4,0.4-1,0.5-1.4c0.2-0.4,0.5-0.3,0.5,0.4c0,0.6,0.3,1.5,0.8,2.5c0.5,1,1.1,1.8,2.7,2.5C488.3,46.2,488.3,46.9,488.5,48
	L488.5,48z M496.6,40.4c0.8,0.2,2.5,1.2,2.9,1.7c0.4,0.5,0.4,0.9,1.1,1.1c0.7,0.3,1.8,1.1,2.5,1.4c0.7,0.4,0.5,0.7,0.2,0.7
	c-0.4,0-1.1,0.2-1.8,0.2c-0.9,0-1.1-0.1-1.1-0.1s-0.4,2.4-0.8,3.2c-0.4,0.9-1.5,1.7-2.1,2.4c-0.7,0.7-0.4-1-0.4-1.5
	s-0.2-1.5-0.4-2.4c-0.3-0.9-0.5-0.5-1.1-0.4c-0.6,0.2-1.1,0.2-1.8,0c-0.9-0.2-0.7-0.4-0.4-0.7c0.3-0.4,0.5-0.4,1.3-1.1
	c0.8-0.7,1.1-1.1,1.3-2.3c0.2-1.3,0.2-1.2-0.3-1.8S495.8,40.2,496.6,40.4L496.6,40.4z M523.4,110c1.3,0,3-0.2,4.4-0.4
	c0.8,4.9,4,10.1,4,11.3c0,0.1-0.1,0.6-0.3,1.1c-0.4,1.1-1.6,1-1.7,1.2c-0.2,0.3,0.3,1.5-0.4,2.6c-0.7,1.2-2.1,1.6-2.4,1.5
	c-0.2,0.3-0.3,1-0.4,1.4c-0.7,1.3-2.2,1.8-2.9,1.8c-0.8,0-2.4-0.5-3-1.7c-0.2-0.4-0.2-1.1-0.4-1.4c-0.3,0.1-1.8-0.5-2.4-1.5
	c-0.7-1.2-0.2-2.3-0.4-2.6c-0.1-0.2-1.2-0.2-1.5-1c-0.4-0.7-0.4-0.6-0.5-1.3c-0.2-1.2,2.8-6.3,3.7-11.5
	C520.1,109.6,522,110,523.4,110L523.4,110z M546.9,89.4c0.1,0.1,0.2,0.4,0.4,0.7l-0.1,8.9l-4.1-5.2l-4.1,5.1l-3.8-4.9
	c0,0-1.9,1.6-6.2,6c0,0-1.3,4.8-1.5,7.3c-1.3,0.2-3,0.4-4.2,0.4c-1.4,0-3.3-0.4-4.4-0.7c-0.3-2.6-1.6-6.6-2.1-7.1l-5-6l-4.4,4.7
	l-3.7-4.7l-4,5v-6.2c0,0,2.2-6.9,1.9-7.8c-0.3-1-1.9-2.2-1.9-2.2V69.4c0,0,3.6-0.3,4.2-0.4c0.6-0.1,2.8,1.5,4.4,1.3
	c1.6-0.2,1.4-2.3,1.4-2.3h8.6c0.4,1.6,1.2,4.4,1.3,4.8c0.2,0.7,1.2,0.5,1.6-0.1c0.6-0.8,2.8-2.9,4.7-4.7h12.9
	c0.5,0.7,1.1,1.4,1.5,1.6c0.6,0.5,1.2,0.2,1.5-0.2c0.4-0.4,1.6-0.4,1.9-0.8c0.4-0.4,0.8-0.4,1.1,0c0.4,0.4,0.6,0.3,1.3,0.3
	c0.3,0,0.8,0.1,1.3,0.2l-0.1,14.3l-0.3,0.2C545.2,84.8,546.1,88.3,546.9,89.4L546.9,89.4z M548.6,82.5V69.8l0.9,0.3
	c1,0.4,0.9,0.4,0.7,0.9c-0.2,0.5-0.1,3.6,0,5c0.1,1.5,0.4,3.2,0.6,3.9c0.3,0.7,0.4,0.9,0.7,1.3C550.9,81.4,549.8,81.8,548.6,82.5z
	 M565.1,39.4c0.1,0.5,0.9,0.3,1.5,0c0.8-0.3,1.6-0.5,2.4-1s1.1-0.2,0.9,0.2c-0.2,0.4-0.6,1.2-1.3,1.7c-0.6,0.5-2,1.5-2.7,1.8
	c-0.8,0.4-0.2,0.9,0.4,0.8c0.5-0.1,1.5,0.1,2.1,0.1c0.7,0,0.4,0.6-0.5,0.9c-0.9,0.2-3.2,1.2-4.2,1.7s-3.5,1.8-4.2,2.4
	c-0.8,0.6-0.9,1.4-1.1,1.7c-0.2,0.4-1.1,0-1.6-0.2c-0.6-0.2-0.5-0.7-0.5-1.1s0.6-2.5,0.6-2.5s0.2,0.1,0.6-0.4c0.5-0.4,1.2-1,1.7-1.4
	c0.5-0.4,2.1-2,3-3.7c0.9-1.6,1.2-2.2,1.5-3c0.4-0.8,0.6-0.5,0.8,0.1C564.9,38.2,565,38.9,565.1,39.4z M552.6,39.3
	c-0.5,0.4-0.8,0.5-1.3,1.1c-0.5,0.5-0.3,0.7,0.1,1.2c0.4,0.5,1.3,1.7,1.8,2.4c0.6,0.6-0.1,0.5-0.5,0.5s-0.8-0.1-1.4,0
	c-0.6,0.1-0.7,0.4-1,1.1c-0.3,0.7-0.5,1.8-0.7,2.4s-0.6,0.4-0.7-0.1s-1.4-2.4-1.7-3.2c-0.4-0.7-0.4-0.6-1.1-0.6
	c-0.6,0-1.1,0.1-2.2,0.2c-1.1,0.1-0.5-0.5,0.2-1c0.7-0.4,1.6-0.8,2.4-1.2c0.8-0.4,0.8-1.1,1.2-1.7s1.2-1,1.9-1.5
	c0.8-0.5,1.5-0.2,2.8-0.2C552.9,39,553.1,39,552.6,39.3L552.6,39.3z M575.2,57.8c0.1-0.5,0.1-0.8,0.8-0.6c0.7,0.2,2.1,0.5,2.8,0.8
	c0.6,0.3,1,0.8,1.4,1.1c0.4,0.3,0.5,0.3,0,0.7c-0.6,0.5-1.5,0.7-1.9,0.8s-1.4,0.4-1.8,0.4s-1.4-0.2-1.3-0.7c0.1-0.5,0.3-0.8,0.7-0.9
	c0.4,0,1.2,0,1.6-0.1s0.8-0.7,0.3-0.8c-0.6-0.2-1.1-0.4-1.5-0.4S575.1,58.3,575.2,57.8L575.2,57.8z M575,52.5c0,0.5-0.7,1.9-0.7,2.5
	s-0.5,2.7-0.4,3.7c0.1,1.3,0.4,2.8,1.1,3.4c0.7,0.5,1.1,0.4,1.8,0.4c0.3,0,1-0.1,1.3-0.4c0.5-0.6,0.3-0.6,0.3-0.6s2.2-1,3-1.3
	c0.4-0.2,1.2-0.2,1.7,0c0.5,1.5-1.5,3-1.9,3.8c-0.6,0.7-1.9,1.3-3.2,1.6c-1.3,0.4-2.9-0.2-3.7-0.6c-0.9-0.5-2-1.7-2.3-2.7
	c-0.4-1-1.1-2.8-0.8-4c0.3-1.2,0.7-2.2,1.3-3.3c0.6-1.1,1.5-2.1,2-2.8C574.7,51.7,575,52.1,575,52.5L575,52.5z M583,59.6
	c-0.1,0.2-0.4,0.1-1.1-0.5c-0.6-0.5-2.2-1.5-2.9-1.7c-0.7-0.3-2.8-0.9-3.4-1.1c-0.6-0.2-0.3-0.4-0.3-0.9c0-0.5,0.2-1.4,0.5-1.5
	c0.4-0.3,1.2-0.6,1.8-0.4c0.6,0.2,1.7,0.6,2.1,1s1.5,1,1.9,1.6c0.5,0.7,0.8,1.5,0.9,1.9C582.6,58.3,583.2,59.3,583,59.6L583,59.6z
	 M561.3,59.5c0.1-0.5,0.1-0.9,0.6-1.3c0.5-0.4,1.5-1.5,2.2-2c0.6-0.4,2.1-1.5,2.5-1.6c0.4-0.3,0.4-0.4,0.8-1c1-1.5,1.5-1.4,2.4-1.5
	c0.9-0.2,2.3-0.3,2.7,0s0.9,0.4,0.4,0.8c-0.4,0.4-1.3,1.5-1.3,1.5s-0.8-0.1-1.4,0.1c-0.6,0.2-0.6,0.3-1.3,0.6
	c-1.2-0.4-1.3-0.2-0.7,0.7c0.3,0.3,0.9,0.3,0.9,0.3s0.3,0.7,0.6,0.6c0.7-0.2,0.7-1.2,0.7-1.2l0.8-0.1l-0.7,2
	c-0.3,0.6-0.4,1.7-0.1,3.3c0.2,1.1,0.9,2.9,1.5,3.8c0.8,1,2.5,1.9,3.8,2.1c1.1,0.1,2.2-0.1,2.2-0.1l-0.2,1.7c-1-0.3-1.7,0.2-2.1,0.8
	c-0.4,0.5-0.1,0.9-0.1,1.4c0.1,0.5,0.1,1.1,0.1,1.1L574,72c0,0-0.6-1.7-0.6-2.1c0-0.4,0.7-0.1,1.1-0.9s0-2.1-0.8-2.5
	c-0.8-0.4-2.1-0.4-2.4,0.4c-0.4,1.1,0.2,2,0.2,2l-1.9,0.9l-0.8-2c0,0,0.9-0.4,1.3-0.9c0.4-0.5,0.1-1.7-0.7-2.1
	c-0.8-0.4-2-0.4-2.6,0.6c-0.5,0.8-0.2,1.8-0.2,1.8l-1.8,0.5l-0.7-1.7c0,0,0.9-0.4,1.1-0.9c0.5-0.8-0.1-1.1-0.1-1.1s-0.2-0.3,0.6-0.2
	c0.8,0.1,1.2-0.1,1.7-0.1s1.4-0.1,2-0.5c0.4-0.3,0.7-0.7,0.7-1c0-0.4,0-0.4-0.7,0c-0.6,0.4-1.1,0.5-1.6,0.6c-0.6,0.1-3,0-3.7,0h-1.7
	c-0.5-0.1-1-0.4-0.9-0.8c0-0.2,0.2-0.4,0.6-0.3c0.8,0.1,1.5,0,1.5,0s0.8-0.5-0.2-0.7c-0.6-0.1-1,0-1.5-0.1
	C561.7,60.9,561.2,60.1,561.3,59.5L561.3,59.5z M562.6,72.6c1.8,0.6,7.4,2.7,8.4,3.6c1.1,0.9,2,0.7,1.9,1.5
	c-0.4,14.7,14.5,25.2,11.8,38.9c-0.3,1.2-1,1.3-1,1.3s-0.4,0-0.7-0.8c-0.4-0.8-0.6-1.7-0.7-3.1c-0.2-1.3,0.2-2.8,0.2-4.4
	c0-1.6-0.9-5.8-1.5-6.5c-0.6-0.7-0.5,0.8-0.5,1.6c0.1,0.9,0.7,2.1,0.7,2.9s0.2,3.2,0,3.9s-0.3,2.4-0.1,3.5c0.2,1.1,0.4,2.8,0.7,3.4
	c0.4,0.6,0.5,1.1,0.9,1.5s0.7,1.5,0.2,2.1s-1,1.5-1.1,2.5c-0.1,1.1-0.2,3.4-0.4,4.1c-0.3,0.7-1.1,1.5-1.7,1.5
	c-0.6,0.1-1.3-0.3-1.6-0.6c-0.4-0.4-0.5-0.6-0.2-1.1c0.3-0.4,0.8-4,1-4.7c0.2-0.8,0.8-2.4-0.6-3.4c-1.4-1-6-4.7-6.5-5.2
	c-0.5-0.4-1.2-2.5-1.4-4.2c-0.2-1.6,0.4-4.1,0.4-5.1c0.1-1.1-0.1-4-0.5-3c-0.4,1-0.6,2.4-1,3.9c-0.4,1.5-0.1,2.3-0.4,2.9
	s-0.4,0.9-1.1,0.4c-0.7-0.4-1.1-0.9-1.2-1.5s0.2-3,0.1-3.7c-0.1-0.7-0.1-1.2-0.7-1.7c-0.6-0.5-2.2-2.5-3.3-3.9s-2.8-4.5-3.3-6.1
	c-0.5-1.5-1.5-4.3-1.7-4.6s-0.3-0.6,0.7-0.6c1,0,1.6,0,2.1-0.2s1.5-1.1,0.4-1.2c-1.1-0.2-3.8,0-4.5,0.2c-0.8,0.2-3,0.4-3.8,0.5
	c-0.8,0.2-2.3,0.4-2,1.3c0.3,0.9,0.6,1.6,0.7,2.5c0.1,0.9,0.6,1.8,0.4,2.1c-0.5,0.7,0.3,1.6,0,2.1c-0.3,0.5-0.5,0.4-1.1,0.6
	s-0.5-0.6-1-1.2c-0.4-0.6-1-3.2-1.4-4.1c-0.4-0.9-1.1-2.3-1.1-3.3s-0.5-2.1,0.4-2.7c0.9-0.6,3.3-2.1,3.9-2.4c0.5-0.3,2.3-0.4,3-3.7
	c0.7-3.2,1.7-4.6,2.6-5.1c1-0.4,1.6-0.6,2.4-1.1C560.4,72.1,560.8,72,562.6,72.6L562.6,72.6z M586,109.6c-0.1-3.2-2.1-7.8-2.9-9.2
	c-0.8-1.4-4.6-8.8-5.6-10.5c-1-1.7-2.8-8-3-8.5c-0.2-0.5-0.5-2.2-0.4-3.4c0.7,0,1.4-0.3,1.7-0.6c0.4-0.4-0.1-1.6,0.1-1.9
	c0.2-0.4,0.6-0.2,1-0.6c0.4-0.4,0.2-1.8,0.5-2.4c0.8,0.2,1.5-0.3,1.8-0.8c0.8-1.5-0.5-2.9-0.5-2.9l0.6-2.4c0,0,3.4-1.4,4.3-4.4
	c0.9-3-0.9-5.7-1.5-6.8c-0.7-1.1-2.8-2.2-3.6-2.4c-0.9-0.2-1.5-0.3-2.4-0.2c-0.2-0.8-0.6-1.7-1.2-1.5c-0.5,0.3-0.8,0.4-1.3,0.8
	c-0.4-0.6-3.2-0.9-4.6-0.7c-1.5,0.3-2.1,1.5-2.6,2.6c-0.9,0.8-2.1,1.4-2.8,1.7c-0.7,0.4-1.9,2-2.5,2.6c-0.4,0.4-0.6,1.2-0.5,1.7
	c0.1,0.4,0.8,1.1,0.6,1.5c-0.2,0.4-0.5,0.9-0.1,1.2c0.4,0.4,0.9,0.7,0.5,1.2c-1,1.3,0.5,1.8,0.3,2.4c-0.3,0.5-1.1,0.6-1.5,1.2
	s0,1.3-0.1,1.7c-0.1,0.4-0.7,0.4-0.9,0.8s-0.1,1.4-0.1,1.4s-1,0.1-2.4,0.9c0-1.1-1.8-4.4-2.2-5.2c-0.4-0.8-0.8-1-1.5-1.1
	c-0.8-0.1-2.8-0.5-3.9-0.8s-4.3-0.4-4.6-0.1c-0.4,0.3-1.1,0.3-1.1,0.3s-0.9-0.2-1.5-0.3c0-1.4-0.9-5-1.5-6.6
	c0.6-0.9,1.6-3.1,1.7-4.1c0.1-1.1,1.3-0.7,1.6-0.4c0.4,0.3,2.3,1.9,3.1,2.7c0.8,0.8,2.8,3.9,3,4.5c0.2,0.7,1.1,3.1,1.7,0.8
	c0.7-2.3,1.2-3.4,1.8-3.3c0.7,0.1,3.9,0.1,5.2-0.6c1.3-0.7,1.4-0.3,1.1-1.5c-0.3-1.3-1.4-2.6-1.7-3s-0.4-1.1,0-1.5
	c0.4-0.5,2.1-2.9,3-3.4c0.9-0.5,5.6-2.5,6.4-3c0.8-0.5,2.7-1.6,3.1-2.1s0.3-1-0.4-1c-0.7,0-1,0-1.4-0.1c-0.4-0.1-0.7-0.4-0.2-0.8
	c0.5-0.4,2.5-1.8,3.2-4.6c0.1-0.9-0.4-1.1-1.1-0.5c-0.7,0.5-3.2,1.8-4.1,2.2c-1,0.4-1.1,0.3-1.1-0.6c-0.1-0.9-0.4-2.4-0.6-2.9
	c-0.3-0.5-0.9-0.4-1.1,0.4c-0.3,0.8-2.3,4-3,5.3c-0.7,1.3-2.6,2.8-3,3.2c-0.4,0.4-0.7,0.8-0.8-0.3c-0.1-1.1-1.1-4.2-1.7-4.6
	c-0.7-0.5-1.5-2-5.1-1.6c-2.4,0.3-3.6,2.8-4.1,3.4s-1.7,0.9-2.4,1.5c-0.7,0.6-2.1,1.5-2.5,2c-0.4,0.5-0.6,1.1,0.3,1.3
	c0.9,0.2,3.2,0.1,4-0.1c0.8-0.2,1.1-0.1,1.2,0.4c0.1,0.5,1,1.7,1.2,2.1c0.3,0.4,0.1,0.4-0.4,0.8c-0.5,0.4-1.6,0.8-3.5,0.4
	c-1.8-0.4-5-1.7-6.6-3.3c-1.5-1.6-2.5-4.8-2.5-4.8s1.3-0.4,1.5-1.3s-0.5-1.5-0.5-1.8s1.2-0.6,1.5-1.7c0.3-1.1-0.7-1.7-0.6-2.2
	c0.1-0.5,1.6-1.1,2-1.6c0.4-0.6,1.1-2.2,0.4-3.7c-0.7-1.5-2.3-1.9-3.1-1.8c-0.8,0.1-2.8,1.1-2.8,2.4c0,1.5,0.4,2,0.6,2.4
	c0.2,0.4-0.3,1.1-0.6,1.4c-0.3,0.2-0.7-0.1-0.8-0.8c0.3-1.5,0.3-4.1,0.5-5.5c0.2-1.5-0.7-2.2,0.1-4.4c0.7-2.1,1.5-2.9,1.5-2.9
	s2.4-1.2,3.3-4.1c0.9-3-0.7-5.4-1.4-6.4c-0.7-1.1-2.8-2.2-3.6-2.4c-0.9-0.2-1.5-0.3-2.4-0.2c-0.2-0.8-0.6-1.7-1.2-1.5
	c-0.5,0.3-0.8,0.4-1.3,0.8c-0.4-0.6-3.6-0.6-5-0.3c-1.5,0.3-2.8,1.7-3.4,3c-0.8,1.2-2.1,1.4-2.9,1.7c-0.7,0.4-2.1,1.5-2.7,2
	c-0.4,0.4-0.6,1.2-0.5,1.7c0,0.2,0.1,0.5,0.5,0.7c0.2,0.1,3.7-0.9,3.3,0.9c-0.2,0.5-3.3,0.3-3.2,0.2c-0.1,0.3-0.2,0.5,0,0.9
	c0.3,0.6,0.3,1,3,1.3c2.9,0.7,2.4,2.1,1,3.8c-1.4,1.5-2.7,1.8-3.9,3.6c-0.7,1.2-1.5,2.3-1.3,4.4c-0.2-0.3-0.3-0.5-0.6-0.9
	c-0.4-0.6-1-0.8-1.6-0.9c-0.7-0.1-1.6,0.1-2.2,0.6c-0.7,0.5-1.5,1.7-1.3,2.7c0.2,0.9,1,2.2,1.5,2.4c0.6,0.2,1.2,0.3,1.2,0.3l0.6,0.8
	l-0.6,0.9c-0.2,0.3,0,1.5,0.6,1.6c0.5,0.2,0.8,0.2,1,0.8c0.2,0.6,0.1,0.9-0.1,1.2c-0.3,0.3-0.6,1.3-0.1,1.7c0.5,0.5,0.5,0.3,0.7,0.5
	c0.2,0.3,0.2,0.5,0,0.7c-0.2,0.2-1,1.5-1.2,2.1c-0.2,0.7-0.8,2-1.1,2.5c-0.3,0.6-0.7,1-1.5,1.2c-0.7,0.3-3.6,0.9-4.6,1.1
	c-1.1,0.2-2.8,0.1-2.8,0.1s0.9-1,1.1-1.9c0,0,1-0.2,1.5-0.3c0.7-0.1,1.9-0.1,2.3,0c0.2,0,0.6-0.6,0.1-1.2c-0.4-0.7-2.5-2.7-4.9-3.5
	c-1.1-1.8-3.6-3-6-2.8c-2.4,0.2-5.7,3.2-6.1,4.4c-1-0.1-2.8-3-3.2-7.3c-0.2-0.8-0.8-0.7-1,0s-1.6,3.7-1.7,4c-0.1,0.3-5.5-0.4-7,0
	c-1.5,0.4-0.3,1,0,1.3s3.4,2.9,3.8,3.1c-0.3,0.6-1.3,1.5-1.5,2c-0.4,0.4-0.3,1.3,0.7,1.4c1.1,0.1,4.9,0.8,5.6,0.9
	c0.4,0.8,4.9,7.5,4.9,7.5s-1.1,2-2,2.5c-1,0.5,6.8,1.1,6.8,1.1s1.1,2.5,1.7,3.4c2.3-2.1,6.4-5.6,7.9-6.2c1.5-0.6,1.4-0.1,1.3,0.4
	c-0.1,0.5-0.4,1.5-0.6,2.2c-0.2,0.7,0.1,1.2,0.8,0.9c0.7-0.4,2.8-2,3.2-2.4c0.4-0.4,0.6-0.3,1,0.2c0.4,0.4,0.9,1,1.2,1.5
	c0.4,0.5,0.4,0.4,0.8,0.1c0.4-0.4,1.9-2.6,2.1-3c0.2-0.4,0.4-0.7,0.6-0.4c0.1,0.2,1.7,1.8,3.5,3.6c-0.2,1.5,0.2,4.6,0.4,6.2H510
	c0-0.2,0-0.4-0.4-0.5c-0.7-0.1-3.6-1.1-4.2-1c-0.6,0.1-1.5,0.3-1.5,0.3s-0.6,0-1.1-0.3c-0.4-0.3-3.6-0.2-4.6,0.1
	c-1.1,0.3-3.2,0.7-3.9,0.8c-0.8,0.1-1.2,0.3-1.5,1.1c-0.4,0.8-2.2,4.1-2.2,5.2c-1.5-0.8-2.4-0.9-2.4-0.9s0.1-1.1-0.1-1.4
	c-0.2-0.4-0.8-0.4-0.9-0.8c-0.1-0.4,0.3-1.1-0.1-1.7c-0.4-0.6-1.6-1.3-1.8-1.7c0,0,1.3-0.8,0.7-1.7c-0.3-0.6,0.2-0.9,0.5-1.2
	c0.4-0.4,0.1-0.9-0.1-1.2c-0.2-0.4,0.5-1.1,0.6-1.5c0.1-0.6-0.1-1.4-0.5-1.7c-0.6-0.6-1.8-2.1-2.5-2.6c-0.7-0.4-1.9-1.1-2.8-1.7
	c-0.5-1.2-1.2-2.4-2.6-2.6c-1.5-0.3-4.3,0.1-4.6,0.7c-0.5-0.5-0.8-0.6-1.3-0.8c-0.5-0.3-1,0.7-1.2,1.5c-0.9-0.1-1.5,0-2.4,0.2
	c-0.9,0.2-2.9,1.4-3.6,2.4c-0.7,1.1-2.2,3.5-1.4,6.4c0.9,3,4.1,4.6,4.1,4.6l0.6,2.4c0,0-1.3,0.9-0.6,2.5c0.4,0.9,1.5,1.7,2.2,1.5
	c0.4,0.6-0.1,1.7,0.3,2.1c0.4,0.4,0.8,0.3,1,0.6c0.2,0.4-0.4,1.6,0.1,1.9c0.4,0.4,1.1,0.6,1.7,0.6c0.2,1.2-0.2,2.9-0.4,3.4
	c-0.2,0.5-2,6.7-3,8.5c-1,1.7-4.8,9.2-5.6,10.5c-0.8,1.4-2.8,6.1-2.9,9.2c-0.1,3.2-0.2,5.6,0.4,7.9c0.2,0.7,1.7,1.4,1.7,1.4
	s-0.4,1.5-0.4,2.2s1.1,3.5,1.5,4.4c0.4,0.9,0.7,4,1,4.5c0.3,0.5,0.8,0.6,1.1,0.7c0.4,0.1,1.3,2.7,1.2,3.3c-0.1,0.6,0.3,1.1,0.9,1.2
	c0.6,0.1,2,0.2,2.8,0.3c0.8,0.1,1.5-0.5,1.1-1.2c-0.4-0.7-2-3.9-2-3.9s0.2-0.7,0.1-1.2s0.3-0.8-0.2-1.6c-0.4-0.9-0.8-3.6-1.2-4.2
	c-0.4-0.6-0.3-1.6,0.5-1.9c0.8-0.4,4-3.1,4.8-3.6c0.9-0.5,1.7-1.1,2.1-1.5s1.2-1.6,1.3-2c0.1-0.4,0.4-2.6,0.4-2.6
	c0.7,0.4,0.5,1.5,0.6,2.1c0.3,1.1,0,2.3,0,2.9s-0.3,2,1.1,2s8.3,0.9,8.8,1.3c0.5,0.4,1.6,1,2.1,0.6s0.7-0.4,0.8,0
	c0.1,0.4,0.9,1.8,1.1,2.5c0.2,0.7,0.4,1.1,1.3,0.9c0.9-0.3,2.9-0.6,3.4-0.8c0.5-0.2,1.1-0.5,0.6-1.1c-0.5-0.5-1.1-2.1-1.1-2.1
	l-1.3-0.4c0,0,0.1-0.6,0-1.1c-0.1-0.5-0.5-1.5-1.2-1.7c-0.7-0.4-4-2.1-4.5-2.2s-2.4-0.8-3-0.8c-0.6,0-1.4-0.4-1-1
	c0.4-0.6,1.3-3.5,1.5-4.8c0.3-1.4,0.3-3.8-0.2-4.4c-0.4-0.7-2-1.7-2-1.7s2-2.9,2.8-4.5c0.8-1.7,3.4-7.1,3.4-8.8
	c1.3,0,2.5,0.4,2.9,0.4c0.4,0.1,0.8,0.8,0.6,1.3c-0.2,0.5-0.4,1.6-0.7,2.2c-0.3,0.6,0.1,1.3,0.4,1.6c0.3,0.4-0.3,1.3-0.6,1.6
	c-0.3,0.4-1,3.1-1,3.1s-0.2,0.7,0.4,1.1c0.5,0.4,1.3,1.8,1.7,2.4c0.4,0.5,1.1,0.4,1.2-0.2c0.2-0.6,1-2.6,1.1-3.1
	c0.1-0.4,0-0.7-0.2-1.1s0.5-1.2,0.8-1.6c0.2-0.3,0.3-0.6,0.5-1c0,16.2,6.4,31.7,24.5,45l0.7,0.5l0.7-0.5
	c18.1-13.3,24.5-28.8,24.5-44.9v-1.3c0.2,0.6,0.5,1.5,0.9,2c0.2,0.4,1,1.2,0.8,1.6c-0.2,0.4-0.3,0.7-0.2,1.1s0.9,2.5,1.1,3.1
	c0.2,0.6,0.8,0.7,1.2,0.2c0.4-0.5,1.2-1.9,1.7-2.4c0.5-0.4,0.4-1.1,0.4-1.1s-0.7-2.6-1-3.1c-0.3-0.4-0.8-1.3-0.6-1.6
	c0.3-0.4,0.7-1.1,0.4-1.6c-0.3-0.6-0.5-1.7-0.7-2.2c-0.2-0.5,0.2-1.2,0.6-1.3c0.4-0.1,1.6-0.4,2.9-0.4c0,1.7,2.6,7.1,3.4,8.8
	c0.8,1.7,2.8,4.5,2.8,4.5s-1.6,1.1-2,1.7c-0.4,0.7-0.4,3.1-0.2,4.4c0.3,1.4,1.1,4.3,1.5,4.8c0.4,0.6-0.4,1-1,1s-2.4,0.7-3,0.8
	s-3.9,1.8-4.5,2.2s-1.1,1.3-1.2,1.7c-0.1,0.5,0,1.1,0,1.1l-1.3,0.4c0,0-0.6,1.6-1.1,2.1s0.1,0.9,0.6,1.1s2.5,0.5,3.4,0.8
	c0.9,0.3,1.1-0.2,1.3-0.9c0.2-0.7,1-2.2,1.1-2.5c0.1-0.4,0.3-0.4,0.8,0s1.6-0.2,2.1-0.6c0.5-0.4,7.4-1.3,8.8-1.3s1.1-1.5,1.1-2
	s-0.3-1.7,0-2.9c0.1-0.6-0.1-1.7,0.6-2.1c0,0,0.3,2.2,0.4,2.6c0.1,0.4,0.9,1.6,1.3,2c0.4,0.4,1.3,1,2.1,1.5c0.9,0.5,4.1,3.2,4.8,3.6
	c0.8,0.4,1,1.4,0.5,1.9c-0.4,0.6-0.8,3.3-1.2,4.2c-0.4,0.9-0.1,1.1-0.2,1.6c-0.1,0.5,0.1,1.2,0.1,1.2s-1.7,3.2-2,3.9
	c-0.4,0.7,0.4,1.3,1.1,1.2c0.8-0.1,2.2-0.2,2.8-0.3c0.6-0.1,1-0.6,0.9-1.2c-0.1-0.6,0.9-3.2,1.2-3.3c0.4-0.1,0.9-0.2,1.1-0.7
	c0.3-0.5,0.5-3.7,1-4.5c0.4-0.9,1.5-3.6,1.5-4.4c0-0.8-0.4-2.2-0.4-2.2s1.5-0.7,1.7-1.4C586.2,115.2,586.1,112.7,586,109.6
	L586,109.6z"/>
<path d="M529.8,176c2.8,1.8,3.8,3.8,3.8,8.3V219c0,11.6,1.5,16.8,6.3,21.8c5.3,5.6,12.9,8.5,22.2,8.5c12.3,0,21.7-5.7,25.4-15.2
	c1.5-3.9,1.9-7.2,1.9-14.3v-35.4c0-4.5,0.9-6.5,3.8-8.3h-13.7c2.9,1.8,3.8,3.8,3.8,8.3v34.5l0.1,4.7c0,12.4-8,20-20.6,20
	c-7.7,0-14.3-3.2-17.8-8.5c-2.5-4-3.2-7.4-3.2-16.1v-34.7c0-4.5,1-6.5,3.8-8.3L529.8,176L529.8,176z"/>
</svg>
