<!-- Generator: Adobe Illustrator 19.2.1, SVG Export Plug-In  -->
<svg version="1.1"
     xmlns="http://www.w3.org/2000/svg" xmlns:xlink="http://www.w3.org/1999/xlink" xmlns:a="http://ns.adobe.com/AdobeSVGViewerExtensions/3.0/"
     x="0px" y="0px" width="244.2px" height="57.1px" viewBox="0 0 244.2 57.1" style="enable-background:new 0 0 244.2 57.1;"
     xml:space="preserve">
<style type="text/css">
    .st0{fill:#FFFFFF;}
</style>
<defs>
</defs>
<g>
    <g>
        <g>
            <path class="st0" d="M26,0c0,0,8.6,7.9-4,24.4c-11.4,14.8,2.8,37.2,16.4,32c0,0-3.5-4.3-4.6-9.2c-2-9,2.3-12.1,6.3-15.3
                c3.8-2.9,9.5-9.4,3.7-18.6c0,0,0.1,8-10.7,10.6C33.2,23.9,44.4,4.9,26,0z"/>
        </g>
        <path class="st0" d="M23.8,55.4c0,0-20.3-3.3-17.5-23.9c1.1-8-3.5-10.7-6.3-12.6c0,0,16.1,0.6,14.9,10.5
            C13.1,45.8,20.3,53,23.8,55.4z"/>
    </g>
    <g>
        <path class="st0" d="M74.1,29.3h-7.2v21.4H63V29.3h-7.1v-3.6h18.5L74.1,29.3z"/>
        <path class="st0" d="M87.9,51.2c-6.4,0-10.2-4.1-10.2-13c0-8.9,3.8-13,10.2-13c6.4,0,10.2,4.1,10.2,13
            C98.1,47.1,94.3,51.2,87.9,51.2z M87.9,28.7c-3.4,0-6.1,2.2-6.1,9.5c0,7.4,2.6,9.5,6.1,9.5c3.4,0,6.1-2.2,6.1-9.5
            C94,30.9,91.3,28.7,87.9,28.7z"/>
        <path class="st0" d="M118,50.6l-5.2-9.2c-0.8,0.1-1.5,0.1-2.4,0.1h-1.7v9.1h-3.9V25.7c1.4-0.2,4.6-0.5,7.3-0.5
            c5.1,0,9.5,2.3,9.5,8.1c0,3.8-2,6.1-5.1,7.2l5.8,10.1H118z M112.1,28.5c-1.1,0-2.3,0.1-3.3,0.2v9.6h1.9c3.8,0,6.9-1.1,6.9-5
            C117.6,29.7,114.7,28.5,112.1,28.5z"/>
        <path class="st0" d="M143.1,31.7c-1.3-2.4-3.1-3-5.3-3c-4.3,0-6.4,3.6-6.4,9.5c0,6.2,2.2,9.5,6.5,9.5c1.8,0,3.6-0.3,5.1-1l1.1,3.1
            c-2,0.9-4.4,1.3-6.3,1.3c-6.3,0-10.6-3.7-10.6-13c0-9.1,4.7-13,10.5-13c4.3,0,6.4,1.5,7.9,4.1L143.1,31.7z"/>
        <path class="st0" d="M166.3,50.6V39.5h-11.2v11.1h-3.9V25.7h3.9V36h11.2V25.7h3.9v24.9H166.3z"/>
        <path class="st0" d="M185.7,50.7c-1.8,0-5.6,0-7.2-0.1V25.8c1.7-0.4,5.2-0.6,7.3-0.6c4.6,0,8.8,1.5,8.8,6.5c0,2.3-1.1,4-2.8,5.2
            c2.4,1,4.1,2.9,4.1,6.3C195.8,48.7,191.7,50.7,185.7,50.7z M185.4,28.5c-0.8,0-2,0.1-3,0.2v7.2h3.9c0.7,0,1.4,0,2,0.1
            c1.5-0.9,2.3-2.3,2.3-3.8C190.5,29.3,188.3,28.5,185.4,28.5z M186,39.1h-3.7v8.3c0.9,0,2.2,0.1,3,0.1c3.6,0,6.2-0.8,6.2-4.2
            C191.6,40.3,189.5,39.1,186,39.1z"/>
        <path class="st0" d="M211.1,51.2c-6.4,0-10.2-4.1-10.2-13c0-8.9,3.8-13,10.2-13c6.4,0,10.2,4.1,10.2,13
            C221.3,47.1,217.4,51.2,211.1,51.2z M211.1,28.7c-3.4,0-6.1,2.2-6.1,9.5c0,7.4,2.6,9.5,6.1,9.5c3.4,0,6.1-2.2,6.1-9.5
            C217.2,30.9,214.5,28.7,211.1,28.7z"/>
        <path class="st0" d="M238.9,33.5l-3,4.4l3,4.6l5.2,8.1h-4.6l-3.5-5.6l-2.2-3.6l-2.3,3.6l-3.6,5.6h-4.7l5.5-8.1l2.9-4.4l-3-4.7
            l-5.1-7.8h4.7l3.6,5.6l2,3.2l2-3.2l3.6-5.6h4.7L238.9,33.5z"/>
    </g>
</g>
</svg>