<?xml version="1.0" encoding="utf-8"?>
<!-- Generator: Adobe Illustrator 19.2.1, SVG Export Plug-In . SVG Version: 6.00 Build 0)  -->
<svg version="1.1" id="Layer_1" xmlns="http://www.w3.org/2000/svg" xmlns:xlink="http://www.w3.org/1999/xlink" x="0px" y="0px"
	 viewBox="0 0 56.8 56.8" style="enable-background:new 0 0 56.8 56.8;" xml:space="preserve">
<style type="text/css">
	.st0{fill:#26B2B1;}
	.st1{opacity:0.4;}
	.st2{opacity:0.2;}
</style>
<g>
	<g>
		<path class="st0" d="M28.4,41.7c-7.3,0-13.3-6-13.3-13.3s6-13.3,13.3-13.3s13.3,6,13.3,13.3S35.7,41.7,28.4,41.7z M28.4,17.6
			c-6,0-10.8,4.9-10.8,10.8s4.9,10.8,10.8,10.8s10.8-4.9,10.8-10.8S34.3,17.6,28.4,17.6z"/>
	</g>
	<g class="st1">
		<path class="st0" d="M28.4,49.3c-11.5,0-20.9-9.4-20.9-20.9S16.9,7.5,28.4,7.5s20.9,9.4,20.9,20.9S39.9,49.3,28.4,49.3z M28.4,10
			C18.2,10,10,18.2,10,28.4s8.3,18.4,18.4,18.4s18.4-8.3,18.4-18.4S38.5,10,28.4,10z"/>
	</g>
	<g class="st2">
		<path class="st0" d="M28.4,56.8C12.7,56.8,0,44,0,28.4S12.7,0,28.4,0s28.4,12.7,28.4,28.4S44,56.8,28.4,56.8z M28.4,2.5
			C14.1,2.5,2.5,14.1,2.5,28.4s11.6,25.9,25.9,25.9s25.9-11.6,25.9-25.9S42.7,2.5,28.4,2.5z"/>
	</g>
</g>
</svg>
