<?xml version="1.0" encoding="utf-8"?>
<!-- Generator: Adobe Illustrator 19.1.0, SVG Export Plug-In . SVG Version: 6.00 Build 0)  -->
<svg version="1.1" id="Layer_1" xmlns="http://www.w3.org/2000/svg" xmlns:xlink="http://www.w3.org/1999/xlink" x="0px" y="0px"
	 viewBox="0 0 142 108.2" style="enable-background:new 0 0 142 108.2;" xml:space="preserve">
<style type="text/css">
	.st0{fill:#FD5938;}
</style>
<g>
	<path class="st0" d="M20.6,25.8h13.2c2.5,0,4.6-2.1,4.6-4.6c0-2.5-2-4.5-4.5-4.6c-0.3-3.3-3.1-5.9-6.5-5.9c-1.1,0-2.1,0.3-3,0.7
		c-1.1-0.6-2.4-1-3.7-1c-4.2,0-7.6,3.4-7.6,7.7S16.4,25.8,20.6,25.8z M20.6,13.5c1,0,2,0.3,2.8,1l0.9,0.7l0.9-0.7
		c0.6-0.5,1.4-0.7,2.1-0.7c2,0,3.6,1.6,3.6,3.6c0,0.3,0,0.6-0.1,0.9L30,21.5l3-1.7c0.2-0.1,0.5-0.2,0.8-0.2c0.8,0,1.6,0.7,1.6,1.6
		s-0.7,1.6-1.6,1.6H20.6c-2.6,0-4.6-2.1-4.6-4.7S18.1,13.5,20.6,13.5z"/>
	<path class="st0" d="M83.5,47.8h19.4c3.3,0,6-2.7,6-6.1s-2.7-6.1-6-6.1c-0.2,0-0.3,0-0.5,0c-0.1-4.8-4.1-8.7-9-8.7
		c-1.6,0-3.1,0.4-4.5,1.2c-1.7-1-3.5-1.6-5.5-1.6c-5.8,0-10.5,4.8-10.5,10.6S77.7,47.8,83.5,47.8z M83.5,29.6c1.7,0,3.2,0.5,4.6,1.6
		l0.9,0.7l0.9-0.7c1-0.8,2.3-1.2,3.6-1.2c3.3,0,6,2.7,6,6c0,0.5-0.1,0.9-0.2,1.4l-0.8,3.4l3-1.7c0.5-0.3,1-0.4,1.5-0.4
		c1.6,0,3,1.4,3,3.1s-1.4,3.1-3,3.1H83.5c-4.1,0-7.5-3.4-7.5-7.6S79.4,29.6,83.5,29.6z"/>
	<path class="st0" d="M139.6,92.8l-2.1-44h-12l-0.2,7l0,0c0,11-25.2,21.4-54.6,21.4c-29.4,0-54.6-10.4-54.6-21.4l0,0l-0.3-7h-12
		l-1.4,44h15.6l-0.6-12h107.3l-0.4,12H139.6z M134.6,51.8l1.8,38h-9.3l1.2-38H134.6z M5.3,89.8l1.2-38h6.3l1.8,38H5.3z M16.3,63.5
		C21.2,69.7,32,74.9,46,77.8H17L16.3,63.5z M95.1,77.8c14.1-2.9,25-8.2,29.8-14.5l-0.5,14.5H95.1z"/>
</g>
</svg>
