<?xml version="1.0" encoding="utf-8"?>
<!-- Generator: Adobe Illustrator 19.1.0, SVG Export Plug-In . SVG Version: 6.00 Build 0)  -->
<svg version="1.1" id="Layer_1" xmlns="http://www.w3.org/2000/svg" xmlns:xlink="http://www.w3.org/1999/xlink" x="0px" y="0px"
	 viewBox="0 0 142 108.2" style="enable-background:new 0 0 142 108.2;" xml:space="preserve">
<style type="text/css">
	.st0{fill:#FD5938;}
</style>
<g>
	<path class="st0" d="M112.3,58.4v-3.5c5.4-0.9,9.4-5.6,9.4-11.2c0-6.3-5.1-11.4-11.4-11.4S99,37.4,99,43.7
		c0,5.9,4.5,10.8,10.3,11.3v2.9c-1.1-0.1-2.2-0.2-3.3-0.2c-7.8,0-15.1,2.9-20.7,7.8v-4.3c4.7-0.6,8.3-4.7,8.3-9.5
		c0-5.3-4.3-9.6-9.6-9.6s-9.6,4.3-9.6,9.6c0,4.7,3.4,8.7,7.9,9.5v7.4c-3,3.5-5.3,7.7-6.6,12.3c-6.1-3.4-13-5.3-20.1-5.3
		c-0.1,0-0.2,0-0.3,0V66c8.1-0.5,14.6-7.2,14.6-15.5c0-8.6-7-15.5-15.5-15.5c-8.6,0-15.5,7-15.5,15.5c0,7.9,5.9,14.4,13.5,15.4v9.9
		c-15.2,1.2-28.6,10.7-34.6,25l2.8,1.2C26,88.8,38.3,80,52.3,78.8v7h3v-7.2c0.1,0,0.2,0,0.3,0c11.4,0,22.1,5,29.4,13.8l2.3-1.9
		c-2.6-3.1-5.6-5.8-8.8-8c1.2-4.9,3.6-9.2,6.8-12.7h0.1v-0.1c5.2-5.6,12.6-9,20.7-9c1.1,0,2.2,0.1,3.3,0.2v6.9h3v-6.4
		c12.6,2.9,22.1,14.2,22.1,27.7c0,1-0.1,2-0.2,3l3,0.3c0.1-1.1,0.2-2.2,0.2-3.3C137.4,74,126.6,61.3,112.3,58.4z M102,43.7
		c0-4.6,3.8-8.4,8.4-8.4s8.4,3.8,8.4,8.4c0,4.6-3.8,8.4-8.4,8.4S102,48.3,102,43.7z M41.8,50.5c0-6.9,5.6-12.5,12.5-12.5
		c6.9,0,12.5,5.6,12.5,12.5c0,6.9-5.6,12.5-12.5,12.5C47.5,63,41.8,57.4,41.8,50.5z M77.4,51.7c0-3.7,3-6.6,6.6-6.6s6.6,3,6.6,6.6
		s-3,6.6-6.6,6.6S77.4,55.4,77.4,51.7z"/>
	<path class="st0" d="M28.7,21.1c0-2.5-2-4.6-4.5-4.7c-0.3-3.3-3.1-5.9-6.5-5.9c-1.1,0-2.1,0.3-3,0.7c-1.1-0.6-2.4-1-3.7-1
		c-4.2,0-7.6,3.5-7.6,7.8s3.4,7.8,7.6,7.8h13.2C26.6,25.8,28.7,23.7,28.7,21.1z M6.4,18.1c0-2.6,2.1-4.8,4.6-4.8c1,0,2,0.3,2.8,1
		l0.9,0.7l0.9-0.7c0.6-0.5,1.4-0.7,2.1-0.7c2,0,3.6,1.6,3.6,3.6c0,0.3,0,0.6-0.1,0.9l-0.8,3.4l3-1.7c0.2-0.1,0.5-0.2,0.8-0.2
		c0.8,0,1.6,0.8,1.6,1.7s-0.7,1.7-1.6,1.7H11C8.5,22.8,6.4,20.7,6.4,18.1z"/>
	<path class="st0" d="M78.4,27.8h19.5c5.8,0,10.6-4.8,10.6-10.8c0-5.9-4.7-10.8-10.6-10.8c-2,0-3.9,0.5-5.5,1.6
		c-1.4-0.8-2.9-1.2-4.5-1.2c-4.9,0-8.9,3.9-9,8.7c-0.2,0-0.3,0-0.5,0c-3.3,0-6,2.8-6,6.2S75.1,27.8,78.4,27.8z M78.4,18.4
		c0.5,0,1,0.1,1.5,0.4l3,1.7l-0.8-3.4c-0.1-0.5-0.2-1-0.2-1.4c0-3.3,2.7-6,6-6c1.3,0,2.5,0.4,3.6,1.2l0.9,0.7l0.9-0.7
		c1.3-1,2.9-1.6,4.6-1.6c4.1,0,7.6,3.6,7.6,7.8c0,4.2-3.5,7.8-7.6,7.8H78.4c-1.6,0-3-1.5-3-3.2S76.8,18.4,78.4,18.4z"/>
</g>
</svg>
