<?xml version="1.0" encoding="utf-8"?>
<!-- Generator: Adobe Illustrator 19.1.0, SVG Export Plug-In . SVG Version: 6.00 Build 0)  -->
<svg version="1.1" id="Layer_1" xmlns="http://www.w3.org/2000/svg" xmlns:xlink="http://www.w3.org/1999/xlink" x="0px" y="0px"
	 viewBox="0 0 142 108.2" style="enable-background:new 0 0 142 108.2;" xml:space="preserve">
<style type="text/css">
	.st0{fill:#FD5938;}
</style>
<g>
	<path class="st0" d="M93.6,43.4c-3.1-12.5-14.4-21.8-27.9-21.8c-13.5,0-24.9,9.4-27.9,22C29,45.5,24.7,47.9,24.7,51
		c0,3.6,5.8,5.9,13.5,7.4c3.5,11.9,14.5,20.7,27.6,20.7c13,0,24-8.6,27.5-20.5c8.3-1.5,14.7-3.9,14.7-7.7
		C108,47.8,103.1,45.2,93.6,43.4z M65.7,24.7c14.2,0,25.8,11.6,25.8,25.7c0,1.9-0.2,3.8-0.6,5.7c-6.2,1-14.5,1.7-24.5,1.7
		c-10.7,0-19.4-0.8-25.7-2c-0.4-1.8-0.6-3.6-0.6-5.5C40,36.2,51.5,24.7,65.7,24.7z M27.7,51c0-0.6,1.8-2.5,9.6-4.2
		C37.1,48,37,49.2,37,50.4c0,1.7,0.1,3.3,0.4,4.8C31,53.9,27.7,52.2,27.7,51z M65.7,76.2C54.6,76.2,45,69,41.5,59.1
		c8.3,1.3,18,1.8,24.8,1.8c6.5,0,15.6-0.4,23.6-1.6C86.3,69.1,76.8,76.2,65.7,76.2z M94,55.5c0.3-1.7,0.5-3.4,0.5-5.1
		c0-1.3-0.1-2.6-0.3-3.8c8.7,1.8,10.8,3.8,10.8,4.4C105,52.3,101.2,54.1,94,55.5z"/>
	<polygon class="st0" points="137.3,49.8 133.3,49.8 133.3,45.8 130.3,45.8 130.3,49.8 126.3,49.8 126.3,52.8 130.3,52.8 
		130.3,56.8 133.3,56.8 133.3,52.8 137.3,52.8 	"/>
	<polygon class="st0" points="13.3,35.8 10.3,35.8 10.3,39.8 6.3,39.8 6.3,42.8 10.3,42.8 10.3,46.8 13.3,46.8 13.3,42.8 17.3,42.8 
		17.3,39.8 13.3,39.8 	"/>
	<rect x="6.3" y="66.8" class="st0" width="3" height="3"/>
	<rect x="96.3" y="76.8" class="st0" width="3" height="3"/>
	<rect x="116.3" y="26.8" class="st0" width="3" height="3"/>
	<rect x="46.3" y="86.8" class="st0" width="3" height="3"/>
</g>
</svg>
