<?xml version="1.0" encoding="utf-8"?>
<!-- Generator: Adobe Illustrator 17.1.0, SVG Export Plug-In . SVG Version: 6.00 Build 0)  -->
<!DOCTYPE svg PUBLIC "-//W3C//DTD SVG 1.1//EN" "http://www.w3.org/Graphics/SVG/1.1/DTD/svg11.dtd">
<svg version="1.1" id="Layer_1" xmlns="http://www.w3.org/2000/svg" xmlns:xlink="http://www.w3.org/1999/xlink" x="0px" y="0px"
	 viewBox="0 0 237.24 300.058" enable-background="new 0 0 237.24 300.058" xml:space="preserve">
<g opacity="0.75">
	<path fill="#F2D249" d="M107.467,275.058c0,0,8,4,15.75,0s71.583-83.667,94.25-115.667c0,0,69.333-113.333-51.667-154
		c0,0-104.667-25.667-150.333,35c0,0-54.333,71.333,40.667,171C56.134,211.392,98.801,265.725,107.467,275.058z"/>
	<rect x="102.467" y="287.058" fill="#F2D249" width="27" height="13"/>
	<path fill="none" stroke="#F2D249" stroke-width="3" stroke-miterlimit="10" d="M105.717,288.933l1.625-4.312
		c0,0,0.375-2.062,1.625-2.062s5.5,0,5.5,0h9l3,8.25L105.717,288.933z"/>
	
		<line fill="none" stroke="#F2D249" stroke-width="3" stroke-miterlimit="10" x1="113.967" y1="282.058" x2="113.967" y2="273.058"/>
</g>
</svg>
