<?xml version="1.0" encoding="utf-8"?>
<!-- Generator: Adobe Illustrator 19.2.1, SVG Export Plug-In . SVG Version: 6.00 Build 0)  -->
<svg version="1.1" id="Layer_1" xmlns="http://www.w3.org/2000/svg" xmlns:xlink="http://www.w3.org/1999/xlink" x="0px" y="0px"
	 viewBox="0 0 46.6 27.8" style="enable-background:new 0 0 46.6 27.8;" xml:space="preserve">
<style type="text/css">
	.st0{fill:#FD5938;}
</style>
<g>
	<path class="st0" d="M6.2,4.7h4.5c0.9,0,1.5-0.5,1.5-1.3s-0.6-1.3-1.5-1.3c-0.1-1.1-1.1-2-2.2-2c-0.4,0-0.7,0.1-1,0.3
		C7.1,0.1,6.7,0,6.2,0C4.7,0,3.7,1,3.7,2.4S4.7,4.7,6.2,4.7z M6.2,1c0.3,0,0.7,0.1,1,0.3c0.2,0.1,0.4,0.1,0.6,0
		C8,1.2,8.3,1.1,8.5,1.1c0.7,0,1.2,0.5,1.2,1.2c0,0.1,0,0.2,0,0.3c0,0.2,0,0.4,0.2,0.5s0.4,0.1,0.5,0c0.1,0,0.2-0.1,0.3-0.1
		c0.5,0,0.5,0.2,0.5,0.3s0,0.3-0.5,0.3H6.2c-0.8,0-1.6-0.4-1.6-1.4S5.4,1,6.2,1z"/>
	<path class="st0" d="M27.6,11.7h6.6c1.8,0,2-1.1,2-1.6s-0.2-1.6-2-1.6c-0.1,0-0.1,0-0.2,0c0-1.6-1.4-3-3-3c-0.5,0-1.1,0.1-1.5,0.4
		c-0.6-0.3-1.2-0.5-1.9-0.5c-2.1,0-3.6,1.3-3.6,3.1S25.5,11.7,27.6,11.7z M27.6,6.5c0.6,0,1.1,0.2,1.6,0.5c0.2,0.1,0.4,0.1,0.6,0
		c0.4-0.3,0.8-0.4,1.2-0.4c1.1,0,2,0.9,2,2c0,0.2,0,0.3-0.1,0.5c0,0.2,0,0.4,0.2,0.5s0.4,0.1,0.5,0c0.2-0.1,0.3-0.1,0.5-0.1
		c1,0,1,0.4,1,0.6c0,0.2,0,0.6-1,0.6h-6.6c-1.2,0-2.6-0.6-2.6-2.1S26.4,6.5,27.6,6.5z"/>
	<path class="st0" d="M45.9,13.4c0-0.3-0.2-0.7-0.5-0.7h-3.1c-0.3,0-0.5,0.4-0.5,0.7v1.4c-0.1,0.1-0.2,0.3-0.2,0.4
		c0,3.9-8.4,7.3-18.4,7.3S4.8,19.2,4.8,15.3c0-0.1-0.1-0.3-0.2-0.4l-0.1-1.5c0-0.3-0.2-0.7-0.5-0.7H0.9c-0.3,0-0.5,0.4-0.5,0.7
		L0,27.4c0,0.1,0,0.2,0.1,0.3c0.1,0.1,0.2,0,0.4,0h4.2c0.1,0,0.3,0.1,0.4,0s0.1-0.2,0.1-0.3L5,23.7h36.5l-0.1,3.8
		c0,0.1,0,0.1,0.1,0.2s0.2,0,0.4,0h4.2c0.1,0,0.3,0.1,0.4,0c0.1-0.1,0.1-0.3,0.1-0.4L45.9,13.4z M1,26.7l0.4-13h2.1l0.6,13H1z
		 M4.8,17.9c1.6,2.1,5.2,3.8,9.8,4.8H5L4.8,17.9z M31.8,22.7c4.7-1,8.3-2.7,9.9-4.9l-0.2,4.9H31.8z M42.4,26.7l0.4-13H45l0.6,13
		H42.4z"/>
</g>
</svg>
