<?xml version="1.0" encoding="utf-8"?>
<!-- Generator: Adobe Illustrator 19.2.1, SVG Export Plug-In . SVG Version: 6.00 Build 0)  -->
<svg version="1.1" id="Layer_1" xmlns="http://www.w3.org/2000/svg" xmlns:xlink="http://www.w3.org/1999/xlink" x="0px" y="0px"
	 viewBox="0 0 123 88" style="enable-background:new 0 0 123 88;" xml:space="preserve">
<style type="text/css">
	.st0{fill:#FFFFFF;}
</style>
<path class="st0" d="M121.9,0H6.9C6.1,0,5,0.6,5,1.4V30H1.5C0.7,30,0,30.2,0,31v28.7C0,60.5,0.7,61,1.5,61H16v24H7
	c-0.8,0-1.5,0.7-1.5,1.5S6.2,88,7,88h20c0.8,0,1.5-0.7,1.5-1.5S27.8,85,27,85h-8V61h14.1c0.8,0,1.9-0.5,1.9-1.3V56h86.9
	c0.8,0,1.1-0.8,1.1-1.7v-53C123,0.6,122.7,0,121.9,0z M32,58H3V33h29V58z M120,53H35V31c0-0.8-1.1-1-1.9-1H8V3h112V53z"/>
</svg>
