<?xml version="1.0" encoding="utf-8"?>
<!-- Generator: Adobe Illustrator 19.2.1, SVG Export Plug-In . SVG Version: 6.00 Build 0)  -->
<svg version="1.1" id="Layer_1" xmlns="http://www.w3.org/2000/svg" xmlns:xlink="http://www.w3.org/1999/xlink" x="0px" y="0px"
	 viewBox="0 0 49.8 55.4" style="enable-background:new 0 0 49.8 55.4;" xml:space="preserve">
<style type="text/css">
	.st0{fill:#26B2B1;}
</style>
<g>
	<g>
		<g>
			<path class="st0" d="M31,55.4H19.4c-0.7,0-1.2-0.6-1.2-1.2v-53c0-0.7,0.6-1.2,1.2-1.2H31c0.7,0,1.2,0.6,1.2,1.2v52.9
				C32.2,54.8,31.7,55.4,31,55.4z M20.7,52.9h9.1V2.5h-9.1V52.9z"/>
		</g>
		<g>
			<g>
				<path class="st0" d="M26.2,9h-6.6c-0.7,0-1.2-0.8-1.2-1.5S18.9,6,19.6,6h6.6c0.7,0,1.2,0.8,1.2,1.5S26.9,9,26.2,9z"/>
			</g>
			<g>
				<path class="st0" d="M22.9,15h-3.3c-0.7,0-1.2-0.3-1.2-1s0.6-1,1.2-1h3.3c0.7,0,1.2,0.3,1.2,1S23.6,15,22.9,15z"/>
			</g>
			<g>
				<path class="st0" d="M26.2,22h-6.6c-0.7,0-1.2-0.8-1.2-1.5S19,19,19.6,19h6.6c0.7,0,1.2,0.8,1.2,1.5S26.9,22,26.2,22z"/>
			</g>
			<g>
				<path class="st0" d="M22.9,29h-3.3c-0.7,0-1.2-0.8-1.2-1.5S19,26,19.6,26h3.3c0.7,0,1.2,0.8,1.2,1.5S23.6,29,22.9,29z"/>
			</g>
			<g>
				<path class="st0" d="M26.2,35h-6.6c-0.7,0-1.2-0.3-1.2-1s0.6-1,1.2-1h6.6c0.7,0,1.2,0.3,1.2,1S26.9,35,26.2,35z"/>
			</g>
			<g>
				<path class="st0" d="M22.9,42h-3.3c-0.7,0-1.2-0.8-1.2-1.5S19,39,19.6,39h3.3c0.7,0,1.2,0.8,1.2,1.5S23.6,42,22.9,42z"/>
			</g>
			<g>
				<path class="st0" d="M26.2,48h-6.6c-0.7,0-1.2-0.3-1.2-1s0.6-1,1.2-1h6.6c0.7,0,1.2,0.3,1.2,1S26.9,48,26.2,48z"/>
			</g>
		</g>
	</g>
	<g>
		<g>
			<g>
				<path class="st0" d="M48.5,45.8H36.9c-0.7,0-1.2-0.6-1.2-1.2V1.2c0-0.7,0.6-1.2,1.2-1.2h11.6c0.7,0,1.2,0.6,1.2,1.2v43.3
					C49.8,45.2,49.2,45.8,48.5,45.8z M38.2,43.3h9.1V2.5h-9.1C38.2,2.5,38.2,43.3,38.2,43.3z"/>
			</g>
			<g>
				<path class="st0" d="M42.7,55.4c-0.4,0-0.8-0.2-1.1-0.6l-5.8-9.6c-0.2-0.4-0.2-0.9,0-1.3c0.2-0.4,0.6-0.6,1.1-0.6h11.6
					c0.4,0,0.9,0.2,1.1,0.6c0.2,0.4,0.2,0.9,0,1.3l-5.8,9.6C43.6,55.2,43.2,55.4,42.7,55.4z M39.1,45.8l3.6,6l3.6-6H39.1z"/>
			</g>
		</g>
		<g>
			<rect x="36.9" y="1.2" class="st0" width="11.6" height="3.1"/>
			<path class="st0" d="M48.5,5.6H36.9c-0.7,0-1.2-0.6-1.2-1.2V1.2c0-0.7,0.6-1.2,1.2-1.2h11.6c0.7,0,1.2,0.6,1.2,1.2v3.1
				C49.8,5.1,49.2,5.6,48.5,5.6z M38.2,3.1h9.1V2.5h-9.1C38.2,2.5,38.2,3.1,38.2,3.1z"/>
		</g>
	</g>
	<g>
		<g>
			<path class="st0" d="M13.5,43.1H1.9c-0.3,0-0.7-0.1-0.9-0.4c-0.2-0.3-0.4-0.6-0.3-0.9L3.3,1.2C3.3,0.5,3.9,0,4.5,0h6.3
				C11.5,0,12,0.5,12,1.2l2.6,40.6c0,0.3-0.1,0.7-0.3,0.9C14.1,43,13.8,43.1,13.5,43.1z M3.2,40.6h8.9L9.7,2.5h-4L3.2,40.6z"/>
		</g>
		<g>
			<path class="st0" d="M7.7,55.4c-0.3,0-0.6-0.1-0.8-0.3c-1-0.9-9.6-9.2-5.9-14c0.2-0.3,0.6-0.5,1-0.5h11.6c0.4,0,0.7,0.2,1,0.5
				c4.1,5-4.9,13.1-5.9,14C8.3,55.3,8,55.4,7.7,55.4z M2.6,43.1c-0.8,2.3,2.6,6.8,5.1,9.3c2.3-2.3,6.2-6.8,5.1-9.3H2.6z"/>
		</g>
	</g>
</g>
</svg>
