<?xml version="1.0" encoding="utf-8"?>
<!-- Generator: Adobe Illustrator 19.2.1, SVG Export Plug-In . SVG Version: 6.00 Build 0)  -->
<svg version="1.1" id="Layer_1" xmlns="http://www.w3.org/2000/svg" xmlns:xlink="http://www.w3.org/1999/xlink" x="0px" y="0px"
	 viewBox="0 0 84.7 96.2" style="enable-background:new 0 0 84.7 96.2;" xml:space="preserve">
<style type="text/css">
	.st0{fill:#FFFFFF;}
</style>
<g>
	<path class="st0" d="M46.3,96.2h-7c-1.7,0-3.4-0.5-4.9-0.9c-0.6-0.2-1.2-0.4-1.9-0.5C14.2,90.4,0.6,74.2,0,56.2
		C-0.5,39,7.1,25.8,22.7,16.9c0.8-0.5,1.6-0.9,2.5-1.4c2.3-1.3,4.7-2.7,7-4.1C35,9.7,36.6,7,37.3,2.9c0.1-0.3,0.1-0.7,0.2-1.1
		l0.1-0.6c0.1-0.5,0.5-1,1-1.1c0.5-0.2,1.1,0,1.5,0.3c0.1,0.1,0.2,0.2,0.3,0.3c0.2,0.2,0.4,0.4,0.6,0.6c5.1,6.9,12.2,10.9,18.5,13.9
		c14.3,6.8,22.6,18.2,24.8,33.9l0,0c2.9,20.8-9.6,39.8-29.6,45.2c-0.6,0.2-1.3,0.4-1.9,0.6C50.7,95.5,48.5,96.2,46.3,96.2z M40,4.8
		c-1,4.2-3,7.2-6.3,9.2c-2.3,1.4-4.7,2.8-7,4.1c-0.8,0.5-1.6,0.9-2.5,1.4C9.5,27.9,2.5,39.9,3,56.1c0.5,16.7,13.1,31.7,30.1,35.7
		c0.7,0.2,1.3,0.4,2,0.5c1.4,0.4,2.8,0.8,4.1,0.8h7c1.8,0,3.7-0.6,5.6-1.2c0.7-0.2,1.4-0.4,2-0.6c18.6-5,30.1-22.6,27.4-41.9
		c-2-14.6-9.8-25.2-23.1-31.6C52.2,15,45.3,11.2,40,4.8z M28.4,77.8c-0.1,0-0.2,0-0.3,0c-0.6-0.1-1.2-0.2-1.8-0.3
		c-1.5-0.2-3-0.5-4.4-1.1c-5.5-2.2-8.1-8.2-6.1-14.7C17,57.5,20,54,24.1,52c4.3-2.1,9.4-2.3,14-0.5c3.7,1.4,6.9,3.6,10.1,5.7
		c6.4,4.3,6.5,4.4,12.9,0.2c0.6-0.4,1.2-0.8,1.8-1.2c1.8-1.2,3.6-2.4,5.5-3.4c2.5-1.3,5-1.5,7.1-0.4c2.1,1.1,3.4,3.2,3.7,5.9
		c0.8,6.4-0.9,12-5,16.5c-2.6,2.9-5.8,3.2-8.8,0.6c-1.4-1.2-2.8-2.5-4.1-3.8c-1-0.9-1.9-1.9-2.9-2.8c-2.9-2.7-3.8-2.8-7.2-1
		c-2,1.1-4,2.2-6,3.4c-1.5,0.9-3,1.8-4.6,2.6C37.2,75.9,33.2,77.7,28.4,77.8C28.5,77.8,28.5,77.8,28.4,77.8z M31.7,53.2
		c-2.2,0-4.3,0.5-6.2,1.4c-3.3,1.6-5.8,4.5-6.8,7.9c-1.5,4.9,0.3,9.4,4.4,11c1.1,0.5,2.4,0.7,3.8,0.9c0.6,0.1,1.2,0.2,1.8,0.3
		c4-0.1,7.5-1.8,10.7-3.5c1.5-0.8,3-1.7,4.5-2.6c2-1.2,4-2.4,6.1-3.5c4.5-2.4,6.8-2.1,10.6,1.5c1,0.9,2,1.9,3,2.8
		c1.3,1.2,2.6,2.5,3.9,3.7c1.7,1.5,3,1.4,4.6-0.3c0,0,0,0,0,0c3.5-3.9,4.9-8.6,4.3-14.2c-0.2-1.7-1-3-2.1-3.6
		c-1.2-0.6-2.7-0.5-4.3,0.4c-1.8,1-3.5,2.1-5.2,3.2c-0.6,0.4-1.2,0.8-1.8,1.2c-7.3,4.7-8.8,4.7-16.2-0.2c-3-2-6.2-4.1-9.5-5.4
		C35.3,53.6,33.5,53.2,31.7,53.2z"/>
</g>
</svg>
