<?xml version="1.0" encoding="utf-8"?>
<!-- Generator: Adobe Illustrator 19.2.1, SVG Export Plug-In . SVG Version: 6.00 Build 0)  -->
<svg version="1.1" id="Layer_1" xmlns="http://www.w3.org/2000/svg" xmlns:xlink="http://www.w3.org/1999/xlink" x="0px" y="0px"
	 viewBox="0 0 69 73" style="enable-background:new 0 0 69 73;" xml:space="preserve">
<style type="text/css">
	.st0{fill:#FFFFFF;}
</style>
<g>
	<path class="st0" d="M68.8,2.3c0.4-0.7,0.2-1.6-0.5-2.1c-0.7-0.4-1.6-0.2-2.1,0.5l-6.9,10.9c-2-3.3-5.7-5.6-9.8-5.6
		c-6.1,0-11,4.7-11.5,10.7c0,0,0,0,0,0H31C30.5,10.7,25.6,6,19.5,6c-4.2,0-7.8,2.2-9.8,5.6L2.8,0.7C2.3,0,1.4-0.2,0.7,0.2
		C0,0.7-0.2,1.6,0.2,2.3l8,12.7c0,0,0,0,0,0.1C8.1,15.8,8,16.6,8,17.5C8,23.8,13.2,29,19.5,29c5.6,0,10.3-4,11.3-9.3H38
		c0.1,0,0.1,0,0.2,0c1,5.3,5.7,9.4,11.3,9.4C55.8,29,61,23.8,61,17.5c0-0.9-0.1-1.7-0.3-2.5c0,0,0,0,0-0.1L68.8,2.3z M19.5,26
		c-4.7,0-8.5-3.8-8.5-8.5S14.8,9,19.5,9c4.5,0,8.3,3.6,8.5,8.1c-0.3,0.3-0.5,0.7-0.5,1.1c0,0.3,0.1,0.7,0.3,0.9
		C27.1,23,23.7,26,19.5,26z M49.5,26c-4.7,0-8.5-3.8-8.5-8.5S44.8,9,49.5,9s8.5,3.8,8.5,8.5S54.2,26,49.5,26z"/>
	<path class="st0" d="M44.1,59.6c-0.5-0.2-1.2-0.1-1.6,0.3l-3.1,2.8h-10l-5.1-3c-0.5-0.3-1-0.3-1.5,0c-0.5,0.3-0.8,0.8-0.8,1.3v10.6
		c0,0.5,0.3,1,0.8,1.3c0.5,0.3,1.1,0.3,1.5,0l5.1-3.1h10l3.1,2.9c0.3,0.3,0.7,0.4,1,0.4c0.2,0,0.4,0,0.6-0.1
		c0.6-0.2,0.9-0.8,0.9-1.4V60.9C45,60.3,44.7,59.8,44.1,59.6z M42,68l-1-0.9c-0.3-0.3-0.6-0.4-1-0.4H29c-0.3,0-0.5,0.1-0.8,0.2
		l-3.2,2v-5.3l3.2,1.9c0.2,0.1,0.5,0.2,0.8,0.2h11c0.4,0,0.7-0.1,1-0.4l1-0.9V68z"/>
</g>
</svg>
