<?xml version="1.0" encoding="UTF-8" standalone="no"?>
<!-- Created with Inkscape (http://www.inkscape.org/) -->

<svg
   xmlns:dc="http://purl.org/dc/elements/1.1/"
   xmlns:cc="http://creativecommons.org/ns#"
   xmlns:rdf="http://www.w3.org/1999/02/22-rdf-syntax-ns#"
   xmlns:svg="http://www.w3.org/2000/svg"
   xmlns="http://www.w3.org/2000/svg"
   version="1.1"
   width="100%"
   height="100%"
   viewBox="0 0 342.5 126.2"
   id="Layer_1"
   xml:space="preserve"><metadata
     id="metadata55"><rdf:RDF><cc:Work
         rdf:about=""><dc:format>image/svg+xml</dc:format><dc:type
           rdf:resource="http://purl.org/dc/dcmitype/StillImage" /><dc:title></dc:title></cc:Work></rdf:RDF></metadata><defs
     id="defs53" /><g
     id="g3"
     style="fill:#ffffff"><g
       id="g13"
       style="fill:#ffffff"><path
         d="M 87.6,43.6"
         id="path15"
         style="fill:#ffffff" /></g><g
       id="g3036"><g
         id="g17"
         style="fill:#ffffff"><circle
           cx="85.900002"
           cy="15.9"
           r="2.5999999"
           id="circle19"
           style="fill:#ffffff" /></g><path
         d="m 73.1875,0 c -13.9,0 -21.575,10.40625 -24.875,17.40625 l -39.125,71.90625 11,-2.125 -20.1875,39 14.09375,-2.5 L 24.90625,93 C 55.506249,93 94.6875,82.006249 89.1875,40.90625 c 0,0 -3.275001,-16.59375 -24.875,-12.09375 -2.2,-7.5 -1.8,-13.025 3,-18.125 C 73.8125,3.7875002 84,7.59375 84,7.59375 l 0,-5.6875 C 80.4,0.30625004 76.9875,0 73.1875,0 z m 1,43.6875 1.625,0.125 c 0,0 -0.11875,1.075 -0.21875,2.875 -0.1,0.5 -0.0875,1 -0.1875,1.5 -0.1,0.6 -0.1125,1.2125 -0.3125,1.8125 -0.1,0.6 -0.30625,1.3 -0.40625,2 -0.2,0.7 -0.39375,1.3875 -0.59375,2.1875 -0.2,0.8 -0.48125,1.50625 -0.78125,2.40625 -0.3,0.8 -0.6,1.6 -1,2.5 l -0.625,1.21875 -0.28125,0.59375 -0.3125,0.59375 c -0.2,0.4 -0.4875,0.8125 -0.6875,1.3125 -0.3,0.4 -0.5125,0.7875 -0.8125,1.1875 -0.1,0.2 -0.30625,0.39375 -0.40625,0.59375 l -0.375,0.59375 -0.90625,1.21875 c -0.7,0.8 -1.29375,1.58125 -2.09375,2.28125 -0.7,0.8 -1.5125,1.41875 -2.3125,2.21875 l -1.1875,1 c -0.4,0.3 -0.8125,0.60625 -1.3125,0.90625 -1.7,1.2 -3.5125,2.28125 -5.3125,3.28125 -1.8,0.9 -3.7,1.8 -5.5,2.5 -1.8,0.7 -3.58125,1.3125 -5.28125,1.8125 -1.564721,0.460212 -3.057988,0.883241 -4.53125,1.1875 -0.09199,0.02507 -0.190004,0.06942 -0.28125,0.09375 -3,0.8 -5.48125,1.4125 -7.28125,1.8125 -1.358563,0.301903 -1.763881,0.36346 -2.125,0.4375 0.45,-0.125 1.10625,-0.325 1.90625,-0.625 1.8,-0.3 4.40625,-0.925 7.40625,-1.625 0.127321,-0.02387 0.247629,-0.06745 0.375,-0.09375 1.42018,-0.387094 2.934663,-0.842749 4.53125,-1.40625 1.7,-0.6 3.4875,-1.2 5.1875,-2 1.8,-0.7 3.60625,-1.59375 5.40625,-2.59375 1.8,-1 3.49375,-2.10625 5.09375,-3.40625 0.4,-0.3 0.81875,-0.6 1.21875,-1 l 1.1875,-1 c 0.7,-0.7 1.4875,-1.3875 2.1875,-2.1875 0.7,-0.7 1.30625,-1.5125 1.90625,-2.3125 L 68,64.5 68.40625,63.90625 68.8125,63.3125 c 0.2,-0.4 0.4875,-0.81875 0.6875,-1.21875 0.2,-0.4 0.3875,-0.7875 0.6875,-1.1875 L 70.5,60.3125 l 0.3125,-0.625 c 0.2,-0.4 0.4,-0.7875 0.5,-1.1875 l 0.875,-2.40625 c 0.2,-0.8 0.51875,-1.58125 0.71875,-2.28125 0.2,-0.7 0.3,-1.525 0.5,-2.125 0.1,-0.7 0.18125,-1.3 0.28125,-2 0.1,-0.6 0.21875,-1.1875 0.21875,-1.6875 0.1,-0.5 0.0875,-1 0.1875,-1.5 0.1,-1.8 0.09375,-2.8125 0.09375,-2.8125 z"
         transform="translate(-4.1411532e-6,0)"
         id="path25"
         style="fill:#ffffff" /><g
         id="g27"
         style="fill:#ffffff"><polygon
           points="102.4,27 93.8,18.7 87,27 "
           id="polygon29"
           style="fill:#ffffff" /></g></g><g
       id="g35"
       style="fill:#ffffff"><path
         d="m 127,83.9 h -8.8 L 105.6,47.5 h 7.9 l 9,27.5 9,-27.5 h 7.9 l 9,27.5 9,-27.5 h 7.9 L 153,83.9 h -8.8 L 135.6,59 127,83.9 z"
         id="path37"
         style="fill:#ffffff" /><path
         d="m 200.1,83.9 h -7 V 79 c -3,3.6 -7,5.4 -12.1,5.4 -3.8,0 -6.9,-1.1 -9.4,-3.2 -2.5,-2.1 -3.7,-5 -3.7,-8.6 0,-3.6 1.3,-6.3 4,-8 2.6,-1.8 6.2,-2.7 10.7,-2.7 h 9.9 v -1.4 c 0,-4.8 -2.7,-7.3 -8.1,-7.3 -3.4,0 -6.9,1.2 -10.5,3.7 l -3.4,-4.8 c 4.4,-3.5 9.4,-5.3 15.1,-5.3 4.3,0 7.8,1.1 10.5,3.2 2.7,2.2 4.1,5.6 4.1,10.2 v 23.7 z m -7.7,-13.6 v -3.1 h -8.6 c -5.5,0 -8.3,1.7 -8.3,5.2 0,1.8 0.7,3.1 2.1,4.1 1.4,0.9 3.3,1.4 5.7,1.4 2.4,0 4.6,-0.7 6.4,-2.1 1.8,-1.3 2.7,-3.1 2.7,-5.5 z"
         id="path39"
         style="fill:#ffffff" /><path
         d="m 241.7,47.5 v 31.7 c 0,6.4 -1.7,11.3 -5.2,14.5 -3.5,3.2 -8,4.8 -13.4,4.8 -5.5,0 -10.4,-1.7 -14.8,-5.1 l 3.6,-5.8 c 3.6,2.7 7.1,4 10.8,4 3.6,0 6.5,-0.9 8.6,-2.8 2.1,-1.9 3.2,-4.9 3.2,-9 v -4.7 c -1.1,2.1 -2.8,3.9 -4.9,5.1 -2.1,1.3 -4.5,1.9 -7.1,1.9 -4.8,0 -8.8,-1.7 -11.9,-5.1 -3.1,-3.4 -4.7,-7.6 -4.7,-12.6 0,-5 1.6,-9.2 4.7,-12.6 3.1,-3.4 7.1,-5.1 11.9,-5.1 4.8,0 8.7,2 11.7,6 v -5.4 h 7.5 z m -28.4,16.8 c 0,3 0.9,5.6 2.8,7.7 1.8,2.2 4.3,3.2 7.5,3.2 3.1,0 5.7,-1 7.6,-3.1 1.9,-2.1 2.9,-4.7 2.9,-7.8 0,-3.1 -1,-5.8 -2.9,-7.9 -2,-2.2 -4.5,-3.2 -7.6,-3.2 -3.1,0 -5.6,1.1 -7.4,3.4 -2,2.1 -2.9,4.7 -2.9,7.7 z"
         id="path41"
         style="fill:#ffffff" /><path
         d="m 260.9,53.6 v 18.5 c 0,1.7 0.5,3.1 1.4,4.1 0.9,1 2.2,1.5 3.8,1.5 1.6,0 3.2,-0.8 4.7,-2.4 l 3.1,5.4 c -2.7,2.4 -5.7,3.6 -8.9,3.6 -3.3,0 -6,-1.1 -8.3,-3.4 -2.3,-2.3 -3.5,-5.3 -3.5,-9.1 V 53.6 h -4.6 v -6.2 h 4.6 V 36.1 h 7.7 v 11.4 h 9.6 v 6.2 h -9.6 z"
         id="path43"
         style="fill:#ffffff" /><path
         d="m 309.5,83.9 h -7 V 79 c -3,3.6 -7,5.4 -12.1,5.4 -3.8,0 -6.9,-1.1 -9.4,-3.2 -2.5,-2.1 -3.7,-5 -3.7,-8.6 0,-3.6 1.3,-6.3 4,-8 2.6,-1.8 6.2,-2.7 10.7,-2.7 h 9.9 v -1.4 c 0,-4.8 -2.7,-7.3 -8.1,-7.3 -3.4,0 -6.9,1.2 -10.5,3.7 l -3.4,-4.8 c 4.4,-3.5 9.4,-5.3 15.1,-5.3 4.3,0 7.8,1.1 10.5,3.2 2.7,2.2 4.1,5.6 4.1,10.2 v 23.7 z m -7.7,-13.6 v -3.1 h -8.6 c -5.5,0 -8.3,1.7 -8.3,5.2 0,1.8 0.7,3.1 2.1,4.1 1.4,0.9 3.3,1.4 5.7,1.4 2.4,0 4.6,-0.7 6.4,-2.1 1.8,-1.3 2.7,-3.1 2.7,-5.5 z"
         id="path45"
         style="fill:#ffffff" /><path
         d="m 319.3,40.2 c -1,-1 -1.4,-2.1 -1.4,-3.4 0,-1.3 0.5,-2.5 1.4,-3.4 1,-1 2.1,-1.4 3.4,-1.4 1.3,0 2.5,0.5 3.4,1.4 1,1 1.4,2.1 1.4,3.4 0,1.3 -0.5,2.5 -1.4,3.4 -0.9,0.9 -2.1,1.4 -3.4,1.4 -1.3,0.1 -2.4,-0.4 -3.4,-1.4 z m 7.2,43.7 h -7.7 V 47.5 h 7.7 v 36.4 z"
         id="path47"
         style="fill:#ffffff" /><path
         d="m 342.5,83.9 h -7.7 V 33.1 h 7.7 v 50.8 z"
         id="path49"
         style="fill:#ffffff" /></g></g></svg>