<?xml version="1.0" encoding="utf-8"?>
<!-- Generator: Adobe Illustrator 19.2.1, SVG Export Plug-In . SVG Version: 6.00 Build 0)  -->
<svg version="1.1" id="Layer_1" xmlns="http://www.w3.org/2000/svg" xmlns:xlink="http://www.w3.org/1999/xlink" x="0px" y="0px"
	 viewBox="0 0 62.9 76.8" style="enable-background:new 0 0 62.9 76.8;" xml:space="preserve">
<style type="text/css">
	.st0{fill:none;stroke:#FFFFFF;stroke-width:3;stroke-linecap:round;stroke-linejoin:round;stroke-miterlimit:10;}
	.st1{fill:#FFFFFF;}
</style>
<g>
	<g>
		<path class="st0" d="M52.7,27"/>
	</g>
	<g>
		<path class="st1" d="M51.7,13.8c-1.7,0-3-1.4-3-3s1.4-3,3-3s3,1.4,3,3S53.4,13.8,51.7,13.8z M51.7,10.8L51.7,10.8
			C51.7,10.8,51.7,10.8,51.7,10.8z"/>
	</g>
	<g>
		<path class="st1" d="M61.4,18.8h-9c-0.6,0-1.1-0.3-1.4-0.9c-0.2-0.5-0.2-1.1,0.2-1.6l4-4.8c0.3-0.3,0.7-0.5,1.1-0.5
			c0.4,0,0.8,0.1,1.1,0.4l5,4.8c0.4,0.4,0.6,1.1,0.4,1.6C62.5,18.4,62,18.8,61.4,18.8z M55.5,15.8h2.1l-1.2-1.1L55.5,15.8z"/>
	</g>
	<g>
		<path class="st1" d="M1.5,76.8c-0.5,0-0.9-0.2-1.2-0.6c-0.3-0.5-0.4-1.1-0.1-1.6l10.4-20.1l-3.4,0.6C6.6,55.3,6,55,5.7,54.6
			c-0.3-0.5-0.4-1.1-0.1-1.6l22.8-42c1.5-3.2,6.1-11,15.9-11c2.2,0,4.5,0.1,6.9,1.2c0.5,0.2,0.9,0.8,0.9,1.4l0,3.3
			c0,0.5-0.2,1-0.6,1.2c-0.4,0.3-0.9,0.3-1.4,0.2c-0.2-0.1-5.1-1.8-8.2,1.5c-2,2.1-2.5,4.4-1.7,7.8c4.1-0.6,7.5,0,10.2,1.8
			c3.8,2.5,4.7,6.6,4.7,6.7c0,0,0,0.1,0,0.1c1.1,8.3-0.7,15.2-5.4,20.6c-8.7,10-25,11.5-32.7,11.6l-5.9,17c-0.2,0.5-0.6,0.9-1.2,1
			l-8.3,1.5C1.7,76.8,1.6,76.8,1.5,76.8z M13.3,51c0.5,0,0.9,0.2,1.2,0.6c0.3,0.5,0.4,1.1,0.1,1.6L4.2,73.3l4.4-0.8l6-17.1
			c0.2-0.6,0.8-1,1.4-1c6.7,0,23.1-1,31.5-10.6c4.1-4.6,5.6-10.7,4.7-18.1c-0.2-0.7-2.2-8.1-12.8-5.9c-0.8,0.2-1.5-0.3-1.7-1
			c-1.5-5.2-0.9-8.8,2.1-12c3-3.2,7-3.1,9.4-2.7l0-0.4C47.6,3.1,46.1,3,44.3,3c-8,0-11.9,6.5-13.2,9.3L9.7,51.6l3.3-0.6
			C13.2,51,13.3,51,13.3,51z"/>
	</g>
</g>
</svg>
